<svg id="cape-particles-svg" class="rsCapeCustomizer_capeParticles" xmlns="http://www.w3.org/2000/svg" width="581" height="284" viewBox="0 0 581 284">
  <style>.CapeEditor_compParticles circle, .CapeEditor_compParticles ellipse, .CapeEditor_compParticles path:not(#special-fill) { fill: #FFF }</style>
  <defs>
    <filter id="pc-a" width="122.4%" height="156.4%" x="-11.2%" y="-28.2%" filterUnits="objectBoundingBox">
      <feGaussianBlur in="SourceGraphic" stdDeviation="13"></feGaussianBlur>
    </filter>
    <filter id="pc-c" width="205%" height="269%" x="-52.5%" y="-84.5%" filterUnits="objectBoundingBox">
      <feGaussianBlur in="SourceGraphic" stdDeviation="13"></feGaussianBlur>
    </filter>
    <filter id="pc-d" width="170.6%" height="250%" x="-35.3%" y="-75%" filterUnits="objectBoundingBox">
      <feGaussianBlur in="SourceGraphic" stdDeviation="12"></feGaussianBlur>
    </filter>
    <filter id="pc-e" width="263.6%" height="300%" x="-81.8%" y="-100%" filterUnits="objectBoundingBox">
      <feGaussianBlur in="SourceGraphic" stdDeviation="12"></feGaussianBlur>
    </filter>
    <filter id="pc-f" width="196%" height="237.1%" x="-48%" y="-68.6%" filterUnits="objectBoundingBox">
      <feGaussianBlur in="SourceGraphic" stdDeviation="8"></feGaussianBlur>
    </filter>
    <filter id="pc-g" width="163.2%" height="183.7%" x="-31.6%" y="-41.9%" filterUnits="objectBoundingBox">
      <feGaussianBlur in="SourceGraphic" stdDeviation="6"></feGaussianBlur>
    </filter>
    <filter id="pc-h" width="181.8%" height="209.1%" x="-40.9%" y="-54.5%" filterUnits="objectBoundingBox">
      <feGaussianBlur in="SourceGraphic" stdDeviation="6"></feGaussianBlur>
    </filter>
    <filter id="pc-i" width="173.2%" height="183.3%" x="-36.6%" y="-41.7%" filterUnits="objectBoundingBox">
      <feGaussianBlur in="SourceGraphic" stdDeviation="5"></feGaussianBlur>
    </filter>
    <filter id="pc-j" width="173.2%" height="183.3%" x="-36.6%" y="-41.7%" filterUnits="objectBoundingBox">
      <feGaussianBlur in="SourceGraphic" stdDeviation="5"></feGaussianBlur>
    </filter>
    <filter id="pc-k" width="143.5%" height="183.3%" x="-21.7%" y="-41.7%" filterUnits="objectBoundingBox">
      <feGaussianBlur in="SourceGraphic" stdDeviation="5"></feGaussianBlur>
    </filter>
    <filter id="pc-l" width="143.5%" height="183.3%" x="-21.7%" y="-41.7%" filterUnits="objectBoundingBox">
      <feGaussianBlur in="SourceGraphic" stdDeviation="5"></feGaussianBlur>
    </filter>
    <filter id="pc-m" width="143.5%" height="183.3%" x="-21.7%" y="-41.7%" filterUnits="objectBoundingBox">
      <feGaussianBlur in="SourceGraphic" stdDeviation="5"></feGaussianBlur>
    </filter>
    <filter id="pc-n" width="143.5%" height="183.3%" x="-21.7%" y="-41.7%" filterUnits="objectBoundingBox">
      <feGaussianBlur in="SourceGraphic" stdDeviation="5"></feGaussianBlur>
    </filter>
    <filter id="pc-o" width="235.5%" height="282.6%" x="-67.7%" y="-91.3%" filterUnits="objectBoundingBox">
      <feGaussianBlur in="SourceGraphic" stdDeviation="7"></feGaussianBlur>
    </filter>
    <filter id="pc-p" width="244%" height="244%" x="-72%" y="-72%" filterUnits="objectBoundingBox">
      <feGaussianBlur in="SourceGraphic" stdDeviation="6"></feGaussianBlur>
    </filter>
    <filter id="pc-q" width="244%" height="244%" x="-72%" y="-72%" filterUnits="objectBoundingBox">
      <feGaussianBlur in="SourceGraphic" stdDeviation="6"></feGaussianBlur>
    </filter>
    <filter id="pc-r" width="244%" height="244%" x="-72%" y="-72%" filterUnits="objectBoundingBox">
      <feGaussianBlur in="SourceGraphic" stdDeviation="6"></feGaussianBlur>
    </filter>
    <filter id="pc-s" width="244%" height="244%" x="-72%" y="-72%" filterUnits="objectBoundingBox">
      <feGaussianBlur in="SourceGraphic" stdDeviation="6"></feGaussianBlur>
    </filter>
    <filter id="pc-t" width="226.3%" height="226.3%" x="-63.2%" y="-63.2%" filterUnits="objectBoundingBox">
      <feGaussianBlur in="SourceGraphic" stdDeviation="4"></feGaussianBlur>
    </filter>
    <filter id="pc-u" width="226.3%" height="226.3%" x="-63.2%" y="-63.2%" filterUnits="objectBoundingBox">
      <feGaussianBlur in="SourceGraphic" stdDeviation="4"></feGaussianBlur>
    </filter>
    <filter id="pc-v" width="182.8%" height="214.3%" x="-41.4%" y="-57.1%" filterUnits="objectBoundingBox">
      <feGaussianBlur in="SourceGraphic" stdDeviation="4"></feGaussianBlur>
    </filter>
    <filter id="pc-w" width="190%" height="216.1%" x="-45%" y="-58.1%" filterUnits="objectBoundingBox">
      <feGaussianBlur in="SourceGraphic" stdDeviation="6"></feGaussianBlur>
    </filter>
    <filter id="pc-x" width="271.4%" height="271.4%" x="-85.7%" y="-85.7%" filterUnits="objectBoundingBox">
      <feGaussianBlur in="SourceGraphic" stdDeviation="4"></feGaussianBlur>
    </filter>
    <filter id="pc-y" width="233.3%" height="233.3%" x="-66.7%" y="-66.7%" filterUnits="objectBoundingBox">
      <feGaussianBlur in="SourceGraphic" stdDeviation="4"></feGaussianBlur>
    </filter>
    <filter id="pc-z" width="233.3%" height="233.3%" x="-66.7%" y="-66.7%" filterUnits="objectBoundingBox">
      <feGaussianBlur in="SourceGraphic" stdDeviation="4"></feGaussianBlur>
    </filter>
    <filter id="pc-A" width="220%" height="220%" x="-60%" y="-60%" filterUnits="objectBoundingBox">
      <feGaussianBlur in="SourceGraphic" stdDeviation="4"></feGaussianBlur>
    </filter>
    <filter id="pc-B" width="181.8%" height="200%" x="-40.9%" y="-50%" filterUnits="objectBoundingBox">
      <feGaussianBlur in="SourceGraphic" stdDeviation="3"></feGaussianBlur>
    </filter>
    <filter id="pc-C" width="181.8%" height="200%" x="-40.9%" y="-50%" filterUnits="objectBoundingBox">
      <feGaussianBlur in="SourceGraphic" stdDeviation="3"></feGaussianBlur>
    </filter>
    <filter id="pc-D" width="200%" height="200%" x="-50%" y="-50%" filterUnits="objectBoundingBox">
      <feGaussianBlur in="SourceGraphic" stdDeviation="2"></feGaussianBlur>
    </filter>
    <filter id="pc-E" width="200%" height="200%" x="-50%" y="-50%" filterUnits="objectBoundingBox">
      <feGaussianBlur in="SourceGraphic" stdDeviation="2"></feGaussianBlur>
    </filter>
    <filter id="pc-F" width="226.3%" height="226.3%" x="-63.2%" y="-63.2%" filterUnits="objectBoundingBox">
      <feGaussianBlur in="SourceGraphic" stdDeviation="4"></feGaussianBlur>
    </filter>
    <filter id="pc-G" width="212.5%" height="212.5%" x="-56.2%" y="-56.2%" filterUnits="objectBoundingBox">
      <feGaussianBlur in="SourceGraphic" stdDeviation="3"></feGaussianBlur>
    </filter>
    <filter id="pc-H" width="212.5%" height="212.5%" x="-56.2%" y="-56.2%" filterUnits="objectBoundingBox">
      <feGaussianBlur in="SourceGraphic" stdDeviation="3"></feGaussianBlur>
    </filter>
    <filter id="pc-I" width="212.5%" height="212.5%" x="-56.2%" y="-56.2%" filterUnits="objectBoundingBox">
      <feGaussianBlur in="SourceGraphic" stdDeviation="3"></feGaussianBlur>
    </filter>
    <filter id="pc-J" width="228.6%" height="228.6%" x="-64.3%" y="-64.3%" filterUnits="objectBoundingBox">
      <feGaussianBlur in="SourceGraphic" stdDeviation="3"></feGaussianBlur>
    </filter>
    <filter id="pc-K" width="228.6%" height="228.6%" x="-64.3%" y="-64.3%" filterUnits="objectBoundingBox">
      <feGaussianBlur in="SourceGraphic" stdDeviation="3"></feGaussianBlur>
    </filter>
    <filter id="pc-L" width="228.6%" height="228.6%" x="-64.3%" y="-64.3%" filterUnits="objectBoundingBox">
      <feGaussianBlur in="SourceGraphic" stdDeviation="3"></feGaussianBlur>
    </filter>
    <filter id="pc-M" width="263.6%" height="263.6%" x="-81.8%" y="-81.8%" filterUnits="objectBoundingBox">
      <feGaussianBlur in="SourceGraphic" stdDeviation="3"></feGaussianBlur>
    </filter>
    <filter id="pc-N" width="263.6%" height="263.6%" x="-81.8%" y="-81.8%" filterUnits="objectBoundingBox">
      <feGaussianBlur in="SourceGraphic" stdDeviation="3"></feGaussianBlur>
    </filter>
    <filter id="pc-O" width="263.6%" height="263.6%" x="-81.8%" y="-81.8%" filterUnits="objectBoundingBox">
      <feGaussianBlur in="SourceGraphic" stdDeviation="3"></feGaussianBlur>
    </filter>
    <filter id="pc-P" width="226.3%" height="226.3%" x="-63.2%" y="-63.2%" filterUnits="objectBoundingBox">
      <feGaussianBlur in="SourceGraphic" stdDeviation="4"></feGaussianBlur>
    </filter>
    <filter id="pc-Q" width="226.3%" height="226.3%" x="-63.2%" y="-63.2%" filterUnits="objectBoundingBox">
      <feGaussianBlur in="SourceGraphic" stdDeviation="4"></feGaussianBlur>
    </filter>
    <filter id="pc-R" width="216.1%" height="256.5%" x="-58.1%" y="-78.3%" filterUnits="objectBoundingBox">
      <feGaussianBlur in="SourceGraphic" stdDeviation="6"></feGaussianBlur>
    </filter>
    <filter id="pc-S" width="216.1%" height="256.5%" x="-58.1%" y="-78.3%" filterUnits="objectBoundingBox">
      <feGaussianBlur in="SourceGraphic" stdDeviation="6"></feGaussianBlur>
    </filter>
    <filter id="pc-T" width="250%" height="250%" x="-75%" y="-75%" filterUnits="objectBoundingBox">
      <feGaussianBlur in="SourceGraphic" stdDeviation="2"></feGaussianBlur>
    </filter>
    <filter id="pc-U" width="250%" height="250%" x="-75%" y="-75%" filterUnits="objectBoundingBox">
      <feGaussianBlur in="SourceGraphic" stdDeviation="2"></feGaussianBlur>
    </filter>
    <filter id="pc-V" width="192.3%" height="192.3%" x="-46.2%" y="-46.2%" filterUnits="objectBoundingBox">
      <feGaussianBlur in="SourceGraphic" stdDeviation="2"></feGaussianBlur>
    </filter>
    <filter id="pc-W" width="205.9%" height="205.9%" x="-52.9%" y="-52.9%" filterUnits="objectBoundingBox">
      <feGaussianBlur in="SourceGraphic" stdDeviation="9"></feGaussianBlur>
    </filter>
    <filter id="pc-X" width="156.4%" height="152.3%" x="-28.2%" y="-26.1%" filterUnits="objectBoundingBox">
      <feGaussianBlur in="SourceGraphic" stdDeviation="11"></feGaussianBlur>
    </filter>
    <filter id="pc-Y" width="205.9%" height="205.9%" x="-52.9%" y="-52.9%" filterUnits="objectBoundingBox">
      <feGaussianBlur in="SourceGraphic" stdDeviation="3"></feGaussianBlur>
    </filter>
    <filter id="pc-Z" width="205.9%" height="205.9%" x="-52.9%" y="-52.9%" filterUnits="objectBoundingBox">
      <feGaussianBlur in="SourceGraphic" stdDeviation="3"></feGaussianBlur>
    </filter>
    <filter id="pc-aa" width="185.7%" height="185.7%" x="-42.9%" y="-42.9%" filterUnits="objectBoundingBox">
      <feGaussianBlur in="SourceGraphic" stdDeviation="3"></feGaussianBlur>
    </filter>
    <filter id="pc-ab" width="185.7%" height="185.7%" x="-42.9%" y="-42.9%" filterUnits="objectBoundingBox">
      <feGaussianBlur in="SourceGraphic" stdDeviation="3"></feGaussianBlur>
    </filter>
    <filter id="pc-ac" width="183.3%" height="183.3%" x="-41.7%" y="-41.7%" filterUnits="objectBoundingBox">
      <feGaussianBlur in="SourceGraphic" stdDeviation="5"></feGaussianBlur>
    </filter>
    <filter id="pc-ad" width="173.5%" height="205.9%" x="-36.7%" y="-52.9%" filterUnits="objectBoundingBox">
      <feGaussianBlur in="SourceGraphic" stdDeviation="6"></feGaussianBlur>
    </filter>
    <filter id="pc-ae" width="228.6%" height="194.7%" x="-64.3%" y="-47.4%" filterUnits="objectBoundingBox">
      <feGaussianBlur in="SourceGraphic" stdDeviation="3"></feGaussianBlur>
    </filter>
    <filter id="pc-af" width="205.9%" height="220%" x="-52.9%" y="-60%" filterUnits="objectBoundingBox">
      <feGaussianBlur in="SourceGraphic" stdDeviation="3"></feGaussianBlur>
    </filter>
    <filter id="pc-ag" width="220%" height="209.1%" x="-60%" y="-54.5%" filterUnits="objectBoundingBox">
      <feGaussianBlur in="SourceGraphic" stdDeviation="2"></feGaussianBlur>
    </filter>
    <filter id="pc-ah" width="166.7%" height="170.6%" x="-33.3%" y="-35.3%" filterUnits="objectBoundingBox">
      <feGaussianBlur in="SourceGraphic" stdDeviation="2"></feGaussianBlur>
    </filter>
    <filter id="pc-ai" width="212.5%" height="220%" x="-56.2%" y="-60%" filterUnits="objectBoundingBox">
      <feGaussianBlur in="SourceGraphic" stdDeviation="3"></feGaussianBlur>
    </filter>
    <filter id="pc-aj" width="175%" height="180%" x="-37.5%" y="-40%" filterUnits="objectBoundingBox">
      <feGaussianBlur in="SourceGraphic" stdDeviation="2"></feGaussianBlur>
    </filter>
    <filter id="pc-ak" width="175%" height="166.7%" x="-37.5%" y="-33.3%" filterUnits="objectBoundingBox">
      <feGaussianBlur in="SourceGraphic" stdDeviation="2"></feGaussianBlur>
    </filter>
    <filter id="pc-al" width="175%" height="175%" x="-37.5%" y="-37.5%" filterUnits="objectBoundingBox">
      <feGaussianBlur in="SourceGraphic" stdDeviation="2"></feGaussianBlur>
    </filter>
    <filter id="pc-am" width="185.7%" height="192.3%" x="-42.9%" y="-46.2%" filterUnits="objectBoundingBox">
      <feGaussianBlur in="SourceGraphic" stdDeviation="2"></feGaussianBlur>
    </filter>
    <filter id="pc-an" width="220%" height="209.1%" x="-60%" y="-54.5%" filterUnits="objectBoundingBox">
      <feGaussianBlur in="SourceGraphic" stdDeviation="2"></feGaussianBlur>
    </filter>
    <filter id="pc-ao" width="238.5%" height="238.5%" x="-69.2%" y="-69.2%" filterUnits="objectBoundingBox">
      <feGaussianBlur in="SourceGraphic" stdDeviation="3"></feGaussianBlur>
    </filter>
    <filter id="pc-ap" width="325%" height="400%" x="-112.5%" y="-150%" filterUnits="objectBoundingBox">
      <feGaussianBlur in="SourceGraphic" stdDeviation="9"></feGaussianBlur>
    </filter>
    <filter id="pc-aq" width="325%" height="400%" x="-112.5%" y="-150%" filterUnits="objectBoundingBox">
      <feGaussianBlur in="SourceGraphic" stdDeviation="9"></feGaussianBlur>
    </filter>
    <filter id="pc-ar" width="325%" height="400%" x="-112.5%" y="-150%" filterUnits="objectBoundingBox">
      <feGaussianBlur in="SourceGraphic" stdDeviation="9"></feGaussianBlur>
    </filter>
    <filter id="pc-as" width="348.3%" height="348.3%" x="-124.1%" y="-124.1%" filterUnits="objectBoundingBox">
      <feGaussianBlur in="SourceGraphic" stdDeviation="12"></feGaussianBlur>
    </filter>
    <filter id="pc-at" width="348.3%" height="348.3%" x="-124.1%" y="-124.1%" filterUnits="objectBoundingBox">
      <feGaussianBlur in="SourceGraphic" stdDeviation="12"></feGaussianBlur>
    </filter>
    <filter id="pc-au" width="262.2%" height="262.2%" x="-81.1%" y="-81.1%" filterUnits="objectBoundingBox">
      <feGaussianBlur in="SourceGraphic" stdDeviation="10"></feGaussianBlur>
    </filter>
    <filter id="pc-av" width="348.3%" height="348.3%" x="-124.1%" y="-124.1%" filterUnits="objectBoundingBox">
      <feGaussianBlur in="SourceGraphic" stdDeviation="12"></feGaussianBlur>
    </filter>
    <filter id="pc-aw" width="348.3%" height="348.3%" x="-124.1%" y="-124.1%" filterUnits="objectBoundingBox">
      <feGaussianBlur in="SourceGraphic" stdDeviation="12"></feGaussianBlur>
    </filter>
    <filter id="pc-ax" width="220%" height="220%" x="-60%" y="-60%" filterUnits="objectBoundingBox">
      <feGaussianBlur in="SourceGraphic" stdDeviation="15"></feGaussianBlur>
    </filter>
    <filter id="pc-ay" width="220%" height="220%" x="-60%" y="-60%" filterUnits="objectBoundingBox">
      <feGaussianBlur in="SourceGraphic" stdDeviation="15"></feGaussianBlur>
    </filter>
    <filter id="pc-az" width="222.4%" height="222.4%" x="-61.2%" y="-61.2%" filterUnits="objectBoundingBox">
      <feGaussianBlur in="SourceGraphic" stdDeviation="10"></feGaussianBlur>
    </filter>
    <filter id="pc-aA" width="233.3%" height="233.3%" x="-66.7%" y="-66.7%" filterUnits="objectBoundingBox">
      <feGaussianBlur in="SourceGraphic" stdDeviation="10"></feGaussianBlur>
    </filter>
    <filter id="pc-aB" width="233.3%" height="233.3%" x="-66.7%" y="-66.7%" filterUnits="objectBoundingBox">
      <feGaussianBlur in="SourceGraphic" stdDeviation="10"></feGaussianBlur>
    </filter>
    <filter id="pc-aC" width="233.3%" height="233.3%" x="-66.7%" y="-66.7%" filterUnits="objectBoundingBox">
      <feGaussianBlur in="SourceGraphic" stdDeviation="10"></feGaussianBlur>
    </filter>
    <filter id="pc-aD" width="233.3%" height="233.3%" x="-66.7%" y="-66.7%" filterUnits="objectBoundingBox">
      <feGaussianBlur in="SourceGraphic" stdDeviation="10"></feGaussianBlur>
    </filter>
    <filter id="pc-aE" width="233.3%" height="233.3%" x="-66.7%" y="-66.7%" filterUnits="objectBoundingBox">
      <feGaussianBlur in="SourceGraphic" stdDeviation="10"></feGaussianBlur>
    </filter>
    <filter id="pc-aF" width="233.3%" height="233.3%" x="-66.7%" y="-66.7%" filterUnits="objectBoundingBox">
      <feGaussianBlur in="SourceGraphic" stdDeviation="10"></feGaussianBlur>
    </filter>
    <filter id="pc-aG" width="233.3%" height="233.3%" x="-66.7%" y="-66.7%" filterUnits="objectBoundingBox">
      <feGaussianBlur in="SourceGraphic" stdDeviation="10"></feGaussianBlur>
    </filter>
    <filter id="pc-aH" width="233.3%" height="233.3%" x="-66.7%" y="-66.7%" filterUnits="objectBoundingBox">
      <feGaussianBlur in="SourceGraphic" stdDeviation="10"></feGaussianBlur>
    </filter>
    <filter id="pc-aI" width="233.3%" height="233.3%" x="-66.7%" y="-66.7%" filterUnits="objectBoundingBox">
      <feGaussianBlur in="SourceGraphic" stdDeviation="10"></feGaussianBlur>
    </filter>
    <filter id="pc-aJ" width="233.3%" height="233.3%" x="-66.7%" y="-66.7%" filterUnits="objectBoundingBox">
      <feGaussianBlur in="SourceGraphic" stdDeviation="10"></feGaussianBlur>
    </filter>
    <filter id="pc-aK" width="220%" height="209.1%" x="-60%" y="-54.5%" filterUnits="objectBoundingBox">
      <feGaussianBlur in="SourceGraphic" stdDeviation="2"></feGaussianBlur>
    </filter>
    <filter id="pc-aL" width="220%" height="209.1%" x="-60%" y="-54.5%" filterUnits="objectBoundingBox">
      <feGaussianBlur in="SourceGraphic" stdDeviation="2"></feGaussianBlur>
    </filter>
    <filter id="pc-aM" width="220%" height="209.1%" x="-60%" y="-54.5%" filterUnits="objectBoundingBox">
      <feGaussianBlur in="SourceGraphic" stdDeviation="2"></feGaussianBlur>
    </filter>
    <filter id="pc-aN" width="220%" height="209.1%" x="-60%" y="-54.5%" filterUnits="objectBoundingBox">
      <feGaussianBlur in="SourceGraphic" stdDeviation="2"></feGaussianBlur>
    </filter>
    <filter id="pc-aO" width="220%" height="209.1%" x="-60%" y="-54.5%" filterUnits="objectBoundingBox">
      <feGaussianBlur in="SourceGraphic" stdDeviation="2"></feGaussianBlur>
    </filter>
    <filter id="pc-aP" width="200%" height="190%" x="-50%" y="-45%" filterUnits="objectBoundingBox">
      <feGaussianBlur in="SourceGraphic" stdDeviation="3"></feGaussianBlur>
    </filter>
    <filter id="pc-aQ" width="220%" height="209.1%" x="-60%" y="-54.5%" filterUnits="objectBoundingBox">
      <feGaussianBlur in="SourceGraphic" stdDeviation="2"></feGaussianBlur>
    </filter>
    <filter id="pc-aR" width="220%" height="209.1%" x="-60%" y="-54.5%" filterUnits="objectBoundingBox">
      <feGaussianBlur in="SourceGraphic" stdDeviation="2"></feGaussianBlur>
    </filter>
    <filter id="pc-aS" width="220%" height="209.1%" x="-60%" y="-54.5%" filterUnits="objectBoundingBox">
      <feGaussianBlur in="SourceGraphic" stdDeviation="2"></feGaussianBlur>
    </filter>
    <filter id="pc-aT" width="220%" height="220%" x="-60%" y="-60%" filterUnits="objectBoundingBox">
      <feGaussianBlur in="SourceGraphic" stdDeviation="2"></feGaussianBlur>
    </filter>
    <filter id="pc-aU" width="220%" height="220%" x="-60%" y="-60%" filterUnits="objectBoundingBox">
      <feGaussianBlur in="SourceGraphic" stdDeviation="2"></feGaussianBlur>
    </filter>
    <filter id="pc-aV" width="220%" height="220%" x="-60%" y="-60%" filterUnits="objectBoundingBox">
      <feGaussianBlur in="SourceGraphic" stdDeviation="2"></feGaussianBlur>
    </filter>
    <filter id="pc-aW" width="220%" height="220%" x="-60%" y="-60%" filterUnits="objectBoundingBox">
      <feGaussianBlur in="SourceGraphic" stdDeviation="2"></feGaussianBlur>
    </filter>
    <filter id="pc-aX" width="220%" height="220%" x="-60%" y="-60%" filterUnits="objectBoundingBox">
      <feGaussianBlur in="SourceGraphic" stdDeviation="2"></feGaussianBlur>
    </filter>
    <filter id="pc-aY" width="220%" height="220%" x="-60%" y="-60%" filterUnits="objectBoundingBox">
      <feGaussianBlur in="SourceGraphic" stdDeviation="2"></feGaussianBlur>
    </filter>
    <filter id="pc-aZ" width="220%" height="220%" x="-60%" y="-60%" filterUnits="objectBoundingBox">
      <feGaussianBlur in="SourceGraphic" stdDeviation="2"></feGaussianBlur>
    </filter>
    <filter id="pc-ba" width="220%" height="220%" x="-60%" y="-60%" filterUnits="objectBoundingBox">
      <feGaussianBlur in="SourceGraphic" stdDeviation="2"></feGaussianBlur>
    </filter>
    <filter id="pc-bb" width="200%" height="192.3%" x="-50%" y="-46.2%" filterUnits="objectBoundingBox">
      <feGaussianBlur in="SourceGraphic" stdDeviation="2"></feGaussianBlur>
    </filter>
    <filter id="pc-bc" width="200%" height="192.3%" x="-50%" y="-46.2%" filterUnits="objectBoundingBox">
      <feGaussianBlur in="SourceGraphic" stdDeviation="2"></feGaussianBlur>
    </filter>
    <filter id="pc-bd" width="200%" height="192.3%" x="-50%" y="-46.2%" filterUnits="objectBoundingBox">
      <feGaussianBlur in="SourceGraphic" stdDeviation="2"></feGaussianBlur>
    </filter>
    <linearGradient id="pc-b" x1="129.356%" x2="1.541%" y1="65.264%" y2="50%">
      <stop offset="0%" stop-color="#FFF" stop-opacity=".2">
      </stop>
      <stop offset="100%" stop-color="#FFF" stop-opacity=".4">
      </stop>
    </linearGradient>
  </defs>
  <g fill="none" fill-rule="evenodd" transform="translate(22 29)">
    <path fill-opacity=".3" d="M105.26765 67c59.8395 18.08234 91.47489 79.43966 150.5 85 59.0251 5.56034 103.99448-55.20044 125.5-59 21.50552-3.79956 63.69032-5.2528 16 34s-62.92708 79.46428-146 73c-83.07292-6.46428-138.54757-80.60156-156-96.5-17.45243-15.89844-49.83951-54.58234 10-36.5z" filter="url(#pc-a)"></path>
    <path id="special-fill" fill="url(#pc-b)" d="M29.0386.2029c-14.5-1.5-25.67267 5.3985-23.5 18 2.17268 12.60148 18.95058 25.157 35 27.5 16.04943 2.34297 39-4.5 39-14 0-12.7903-36-30-50.5-31.5z" filter="url(#pc-c)"></path>
    <ellipse cx="160.268" cy="108" fill-opacity=".25" filter="url(#pc-d)" rx="51" ry="24" transform="rotate(27 160.268 108)"></ellipse>
    <ellipse cx="81.268" cy="58" fill-opacity=".15" filter="url(#pc-e)" rx="22" ry="18" transform="rotate(10 81.268 58)"></ellipse>
    <ellipse cx="430.268" cy="31.5" fill-opacity=".2" filter="url(#pc-f)" rx="25" ry="17.5"></ellipse>
    <ellipse cx="162.768" cy="158.5" fill-opacity=".4" filter="url(#pc-g)" rx="28.5" ry="21.5" transform="rotate(10 162.768 158.5)"></ellipse>
    <ellipse cx="217.268" cy="161.5" fill-opacity=".4" filter="url(#pc-h)" rx="22" ry="16.5" transform="rotate(10 217.268 161.5)"></ellipse>
    <ellipse cx="256.855" cy="203.5" fill-opacity=".45" filter="url(#pc-i)" rx="20.5" ry="18" transform="rotate(-19 256.855 203.5)"></ellipse>
    <ellipse cx="300.768" cy="218" fill-opacity=".4" filter="url(#pc-j)" rx="20.5" ry="18" transform="rotate(-19 300.768 218)"></ellipse>
    <ellipse cx="296.005" cy="197.442" fill-opacity=".1" filter="url(#pc-k)" rx="34.5" ry="18" transform="rotate(-19 296.005 197.442)"></ellipse>
    <ellipse cx="303.768" cy="190" fill-opacity=".1" filter="url(#pc-l)" rx="34.5" ry="18" transform="rotate(-19 303.768 190)"></ellipse>
    <ellipse cx="275.768" cy="177" fill-opacity=".1" filter="url(#pc-m)" rx="34.5" ry="18" transform="rotate(-19 275.768 177)"></ellipse>
    <ellipse cx="275.768" cy="177" fill-opacity=".23" filter="url(#pc-n)" rx="34.5" ry="18" transform="rotate(-19 275.768 177)"></ellipse>
    <ellipse cx="131.768" cy="128.5" fill-opacity=".55" filter="url(#pc-o)" rx="15.5" ry="11.5" transform="rotate(10 131.768 128.5)"></ellipse>
    <circle cx="104.768" cy="83.5" r="12.5" fill-opacity=".3" filter="url(#pc-p)" transform="rotate(10 104.768 83.5)"></circle>
    <circle cx="108.768" cy="91.5" r="12.5" fill-opacity=".3" filter="url(#pc-q)" transform="rotate(10 108.768 91.5)"></circle>
    <circle cx="83.768" cy="94.5" r="12.5" fill-opacity=".3" filter="url(#pc-r)" transform="rotate(10 83.768 94.5)"></circle>
    <circle cx="89.768" cy="117.5" r="12.5" fill-opacity=".3" filter="url(#pc-s)" transform="rotate(10 89.768 117.5)"></circle>
    <circle cx="69.768" cy="73.5" r="9.5" fill-opacity=".2" filter="url(#pc-t)" transform="rotate(10 69.768 73.5)"></circle>
    <circle cx="111.768" cy="123.5" r="9.5" fill-opacity=".3" filter="url(#pc-u)" transform="rotate(10 111.768 123.5)"></circle>
    <ellipse cx="192.768" cy="183.5" fill-opacity=".3" filter="url(#pc-v)" rx="14.5" ry="10.5" transform="rotate(-10 192.768 183.5)"></ellipse>
    <ellipse cx="186" cy="219.5" fill-opacity=".38" filter="url(#pc-w)" rx="20" ry="15.5"></ellipse>
    <circle cx="243" cy="224" r="7" fill-opacity=".35" filter="url(#pc-x)"></circle>
    <circle cx="250" cy="238" r="9" fill-opacity=".35" filter="url(#pc-y)"></circle>
    <circle cx="256" cy="226" r="9" fill-opacity=".45" filter="url(#pc-z)"></circle>
    <circle cx="193" cy="235" r="10" fill-opacity=".35" filter="url(#pc-A)"></circle>
    <ellipse cx="208" cy="207" fill-opacity=".26" filter="url(#pc-B)" rx="11" ry="9"></ellipse>
    <ellipse cx="162" cy="202" fill-opacity=".26" filter="url(#pc-C)" rx="11" ry="9"></ellipse>
    <circle cx="186" cy="200" r="6" fill-opacity=".15" filter="url(#pc-D)"></circle>
    <circle cx="173" cy="197" r="6" fill-opacity=".15" filter="url(#pc-E)"></circle>
    <circle cx="48.768" cy="78.5" r="9.5" fill-opacity=".2" filter="url(#pc-F)" transform="rotate(10 48.768 78.5)"></circle>
    <circle cx="9.268" cy="36" r="8" fill-opacity=".25" filter="url(#pc-G)" transform="rotate(10 9.268 36)"></circle>
    <circle cx="19.268" cy="45" r="8" fill-opacity=".25" filter="url(#pc-H)" transform="rotate(10 19.268 45)"></circle>
    <circle cx="32.268" cy="44" r="8" fill-opacity=".25" filter="url(#pc-I)" transform="rotate(10 32.268 44)"></circle>
    <circle cx="26.268" cy="57" r="7" fill-opacity=".25" filter="url(#pc-J)" transform="rotate(10 26.268 57)"></circle>
    <circle cx="42.268" cy="64" r="7" fill-opacity=".25" filter="url(#pc-K)" transform="rotate(10 42.268 64)"></circle>
    <circle cx="32.268" cy="66" r="7" fill-opacity=".25" filter="url(#pc-L)" transform="rotate(10 32.268 66)"></circle>
    <circle cx="45.051" cy="51.262" r="5.5" fill-opacity=".35" filter="url(#pc-M)" transform="rotate(10 45.05 51.262)"></circle>
    <circle cx="47.768" cy="53.5" r="5.5" fill-opacity=".35" filter="url(#pc-N)" transform="rotate(10 47.768 53.5)"></circle>
    <circle cx="52.768" cy="60.5" r="5.5" fill-opacity=".35" filter="url(#pc-O)" transform="rotate(10 52.768 60.5)"></circle>
    <circle cx="124.768" cy="162.5" r="9.5" fill-opacity=".3" filter="url(#pc-P)" transform="rotate(10 124.768 162.5)"></circle>
    <circle cx="126.768" cy="148.5" r="9.5" fill-opacity=".3" filter="url(#pc-Q)" transform="rotate(10 126.768 148.5)"></circle>
    <ellipse cx="141.768" cy="125.5" fill-opacity=".3" filter="url(#pc-R)" rx="15.5" ry="11.5" transform="rotate(10 141.768 125.5)"></ellipse>
    <ellipse cx="157.768" cy="126.5" fill-opacity=".3" filter="url(#pc-S)" rx="15.5" ry="11.5" transform="rotate(10 157.768 126.5)"></ellipse>
    <circle cx="134.268" cy="183" r="4" fill-opacity=".25" filter="url(#pc-T)"></circle>
    <circle cx="140.268" cy="184" r="4" fill-opacity=".25" filter="url(#pc-U)"></circle>
    <circle cx="115.768" cy="139.5" r="6.5" fill-opacity=".3" filter="url(#pc-V)"></circle>
    <circle cx="59.768" cy="51.5" r="25.5" fill-opacity=".28" filter="url(#pc-W)"></circle>
    <path fill-opacity=".2" d="M464.26765 1.5c20-5 45 45.5 15 58.5s-47.5 37.5-58 57.5-39.5 5-44.5-3 24.5-30.5 30-44.5 37.5-63.5 57.5-68.5z" filter="url(#pc-X)"></path>
    <circle cx="348.768" cy="152.5" r="8.5" fill-opacity=".27" filter="url(#pc-Y)"></circle>
    <circle cx="334.768" cy="159.5" r="8.5" fill-opacity=".27" filter="url(#pc-Z)"></circle>
    <circle cx="345.768" cy="167.5" r="10.5" fill-opacity=".27" filter="url(#pc-aa)"></circle>
    <circle cx="370.768" cy="156.5" r="10.5" fill-opacity=".27" filter="url(#pc-ab)"></circle>
    <circle cx="390.268" cy="143" r="18" fill-opacity=".27" filter="url(#pc-ac)"></circle>
    <ellipse cx="403.768" cy="126.5" fill-opacity=".27" filter="url(#pc-ad)" rx="24.5" ry="17" transform="rotate(-20 403.768 126.5)"></ellipse>
    <ellipse cx="14" cy="73.5" fill-opacity=".2" filter="url(#pc-ae)" rx="7" ry="9.5"></ellipse>
    <ellipse cx="22.5" cy="104.5" fill-opacity=".2" filter="url(#pc-af)" rx="8.5" ry="7.5"></ellipse>
    <ellipse cx="9" cy="94.5" fill-opacity=".2" filter="url(#pc-ag)" rx="5" ry="5.5"></ellipse>
    <ellipse cx="22" cy="84.5" fill-opacity=".15" filter="url(#pc-ah)" rx="9" ry="8.5"></ellipse>
    <ellipse cx="74" cy="146.5" fill-opacity=".18" filter="url(#pc-ai)" rx="8" ry="7.5"></ellipse>
    <ellipse cx="76" cy="165.5" fill-opacity=".13" filter="url(#pc-aj)" rx="8" ry="7.5"></ellipse>
    <ellipse cx="59" cy="156" fill-opacity=".18" filter="url(#pc-ak)" rx="8" ry="9"></ellipse>
    <circle cx="225" cy="223" r="8" fill-opacity=".18" filter="url(#pc-al)"></circle>
    <ellipse cx="64" cy="184.5" fill-opacity=".15" filter="url(#pc-am)" rx="7" ry="6.5"></ellipse>
    <ellipse cx="29" cy="104.5" fill-opacity=".2" filter="url(#pc-an)" rx="5" ry="5.5"></ellipse>
    <circle cx="7.5" cy="58.5" r="6.5" fill-opacity=".2" filter="url(#pc-ao)"></circle>
    <ellipse cx="227" cy="193" fill-opacity=".3" filter="url(#pc-ap)" rx="12" ry="9" transform="rotate(21 227 193)"></ellipse>
    <ellipse cx="221" cy="190" fill-opacity=".5" filter="url(#pc-aq)" rx="12" ry="9" transform="rotate(21 221 190)"></ellipse>
    <ellipse cx="236" cy="184" fill-opacity=".6" filter="url(#pc-ar)" rx="12" ry="9" transform="rotate(21 236 184)"></ellipse>
    <circle cx="218.5" cy="192.5" r="14.5" fill-opacity=".5" filter="url(#pc-as)"></circle>
    <circle cx="218.5" cy="192.5" r="14.5" fill-opacity=".5" filter="url(#pc-at)"></circle>
    <circle cx="297.5" cy="196.5" r="18.5" fill-opacity=".5" filter="url(#pc-au)"></circle>
    <circle cx="194.5" cy="191.5" r="14.5" fill-opacity=".5" filter="url(#pc-av)"></circle>
    <circle cx="321.5" cy="184.5" r="14.5" fill-opacity=".5" filter="url(#pc-aw)"></circle>
    <circle cx="447.5" cy="80.5" r="37.5" fill-opacity=".3" filter="url(#pc-ax)"></circle>
    <circle cx="437.5" cy="111.5" r="37.5" fill-opacity=".3" filter="url(#pc-ay)"></circle>
    <circle cx="449.5" cy="90.5" r="24.5" fill-opacity=".3" filter="url(#pc-az)"></circle>
    <circle cx="466.5" cy="37.5" r="22.5" fill-opacity=".3" filter="url(#pc-aA)"></circle>
    <circle cx="476.5" cy="61.5" r="22.5" fill-opacity=".3" filter="url(#pc-aB)"></circle>
    <circle cx="453.5" cy="58.5" r="22.5" fill-opacity=".3" filter="url(#pc-aC)"></circle>
    <circle cx="479.5" cy="75.5" r="22.5" fill-opacity=".3" filter="url(#pc-aD)"></circle>
    <circle cx="510.5" cy="49.5" r="22.5" fill-opacity=".2" filter="url(#pc-aE)"></circle>
    <circle cx="515.5" cy="84.5" r="22.5" fill-opacity=".2" filter="url(#pc-aF)"></circle>
    <circle cx="480.5" cy="117.5" r="22.5" fill-opacity=".2" filter="url(#pc-aG)"></circle>
    <circle cx="356.5" cy="114.5" r="22.5" fill-opacity=".3" filter="url(#pc-aH)"></circle>
    <circle cx="356.5" cy="131.5" r="22.5" fill-opacity=".3" filter="url(#pc-aI)"></circle>
    <circle cx="362.5" cy="134.5" r="22.5" fill-opacity=".3" filter="url(#pc-aJ)"></circle>
    <ellipse cx="420" cy="101.5" fill-opacity=".2" filter="url(#pc-aK)" rx="5" ry="5.5"></ellipse>
    <ellipse cx="431" cy="112.5" fill-opacity=".2" filter="url(#pc-aL)" rx="5" ry="5.5"></ellipse>
    <ellipse cx="425" cy="127.5" fill-opacity=".2" filter="url(#pc-aM)" rx="5" ry="5.5"></ellipse>
    <ellipse cx="425" cy="119.5" fill-opacity=".2" filter="url(#pc-aN)" rx="5" ry="5.5"></ellipse>
    <ellipse cx="425" cy="119.5" fill-opacity=".2" filter="url(#pc-aO)" rx="5" ry="5.5"></ellipse>
    <ellipse cx="437" cy="159" fill-opacity=".29" filter="url(#pc-aP)" rx="9" ry="10"></ellipse>
    <ellipse cx="430" cy="162.5" fill-opacity=".2" filter="url(#pc-aQ)" rx="5" ry="5.5"></ellipse>
    <ellipse cx="434" cy="179.5" fill-opacity=".2" filter="url(#pc-aR)" rx="5" ry="5.5"></ellipse>
    <ellipse cx="412" cy="194.5" fill-opacity=".2" filter="url(#pc-aS)" rx="5" ry="5.5"></ellipse>
    <circle cx="456" cy="99" r="5" fill-opacity=".25" filter="url(#pc-aT)"></circle>
    <circle cx="470" cy="107" r="5" fill-opacity=".25" filter="url(#pc-aU)"></circle>
    <circle cx="460" cy="110" r="5" fill-opacity=".25" filter="url(#pc-aV)"></circle>
    <circle cx="461" cy="107" r="5" fill-opacity=".25" filter="url(#pc-aW)"></circle>
    <circle cx="474" cy="123" r="5" fill-opacity=".25" filter="url(#pc-aX)"></circle>
    <circle cx="464" cy="74" r="5" fill-opacity=".25" filter="url(#pc-aY)"></circle>
    <circle cx="461" cy="78" r="5" fill-opacity=".25" filter="url(#pc-aZ)"></circle>
    <circle cx="470" cy="80" r="5" fill-opacity=".4" filter="url(#pc-ba)"></circle>
    <ellipse cx="419" cy="180.5" fill-opacity=".26" filter="url(#pc-bb)" rx="6" ry="6.5"></ellipse>
    <ellipse cx="424" cy="170.5" fill-opacity=".26" filter="url(#pc-bc)" rx="6" ry="6.5"></ellipse>
    <ellipse cx="414" cy="169.5" fill-opacity=".26" filter="url(#pc-bd)" rx="6" ry="6.5"></ellipse>
  </g>
</svg>
