<svg id="comp-cape-svg" class="rsCapeCustomizer_capeSvg" xmlns="http://www.w3.org/2000/svg" viewBox="0 0 503 975">
  <style></style>
  <path id="capeDetailTop" d="M114 10.5l9 19.5 2 36 42 44 19.5 10.5L194 181l37 91v12l41 1v-12l31-90 10-60 22-12 43-45 3-35 8-20 5 24-15.5 44-17 35 3.5 21-20 91-38 93-55.5 60.5L201 326l-44-98-18-93 3-21-17-36-16-42 5-25.5zM263.5 187v87H240l-1-87 13 7 11.5-7zM230 104l21.5 18-20.5 49-16.5-35 3.5 2 12-34zm43 0l12 34 4-2-17 34-20.5-48 21.5-18zm-92-39l42 34-10 25-6-3.5L181 65zm142 0l-25 53.5-8 4.5-10-23 43-35zm47-45l-1 37-37 43-16 8.5 7-43.5 35-40 12-5zm-238-1l11 4 38 42 4 43-14-8-37-43-2-38z"></path>
  <path id="capeDetailBot" d="M369 539.5L367 645l-20 79-37 4 7 65-27 100-39 54-38-54-27-99 7-66-37-4-20-77-2-104 46 100 72 89 71-89 46-103.5zm-255-8.18321L103 629l-70 98 20-116 61-79.68321zM389 532l60 77.96727L469 724l-69-95-11-97zM72 358l4 2 46 101-54 58-25 9 29-170zm359 0l29 170-25-9-61-58 52-99 5-4z"></path>
  <path id="capeBgTop" d="M290 496l16 31-5 23-49.5 75-49.5-75-5-23 16-31 38.5 73 38.5-73zm-38.5-41l32 34.5-32 56-32-56.5 32-34zM81 235l47 66 34 69.5L208 486l-16 27-57.5-146.5-58.5-88-.5-11L81 235zm340 1l5 35-.5 9-57.5 87-57 146-16-27 50-124 29.5-61 46.5-65zM251.5 401l48.5 49-12 27-36.5-39-36.5 39-12-27 48.5-49zM110 2l4 8.5-5 25.5 16 42-22 35-9 115 38 2 7-95 18 93 44 98 50.5 53.5L198 439l-27-67-37-80-55-66v-3l7-28 7-79 10-72-3-27 10-15zm283-1l11 16-3.5 27 9.5 72 7.5 81 6.5 21-1 8-54 67-36 77-28 67.5-53.5-58L307 319l38-93 20-91 6 96 39-3-10.5-116-21-33L394 35l-5-24 4-10zm-80 122l-10 60-31 90V170l17-34 24-13zm-126.5-2.5l28 15.5 16.5 35v101l-37-91-7.5-60.5zm206.5 19l7 79.5-20.5 2-4.5-80 9.5 3.5 8.5-5zm-282.5.5l8.5 4.5 9.5-3.5-5 79-20-.5 7-79.5zM252 89l21 15-21.5 18-21.5-18 22-15zm-71-24l26 55.5-22-12.5-4-43zm142 0l-7 43.5-18 10L323 65zm58-60.5L370 20l-12 5-35 40-43 35-2-6-26-16-27 16-2 5-42-34-39-42-10-4-10-14.5 28.5 12 36.5 44 65 9 64-9 36.5-44 28.5-12z"></path>
  <path id="capeBgBot" d="M208 938l43 17 43-16 3 16-46 20-46-20 3-17zm-33-6l24 2-3 16-25-6 4-12zm153-7l3 12-24 13-2-16 23-9zm-115-32l38 54-42-18 4-36zm77 0l3 36-42 18 39-54zm-106-73l19 72-4 32-23-1 8-103zm134 2l8 95-22 7-4-32 18-70zm-208 47l25 7v24l-34-10 9-21zm283 0l9 21-33 10-1-24 25-7zM136 647l20 77-19 143-24-7 17-100 6-113zm231-2l2 34.143L374 762l9.041 55.377L390.5 861l-24.5 6-19-142 .087-.344L347 724l20-79zm-203 88l19 2-14 130h-25l20-132zm175 1l20 131h-25.5L320 735l19-1zm61-105l69 95 9 38 12 38-66 11-7-36-1-37-16-109zm-297 0L87 740l-1 33-6 38-67-11 14-44 7-30 69-97zM78 289l48 81 61 170 65 103 65-106 60-167 48-80 6 68-5 4-52 99-5 78.5L323 643l-71 89-72-89-46-101v-3l-12-78-46-101-4-2 6-69zm44 198l4 53-11-10-62 81 11-82 58-42zm259 0l59 43 9 80-60-78v-2l-12 9.5 4-52.5z"></path>
  <path class="comp-cape-stripes-toggle" d="M423 226l-2 10-46.5 65-29.5 61-50 124 16 27 57-146 57.5-87-.5 10-48 80-60 167-65 106-65-103-61-170-48-81-2-10.5 58.5 88L192 513l16-27-46-115.5-34-69.5-47-66v-6.5l53 63.5 37 80 27 67 53.5-59.5 53.5 58 28-67.5 36-77 54-67zM290 496l-38.5 73-38.5-72.5-16 30.5 5 23 49 75 50-75 5-23-16-31zm-38.5-41l-32 34 32 56.5 32-56-32-34.5zm0-54L203 450l12 27 36.5-39 36.5 39 12-27-48.5-49z"></path>
  <path d="M479 765l24 43-90 19 4-52 7 36 66-11-11-35zm-455-1l-11 36 67 11 6-38 5 53-91-18 24-44zm162 31l27 98-5 45-3 18-9-6 3-28 4-30-19-71 2-26zm131-2l1 31-18 68 4 31 1 13 2 14-10 5-2-17-2-9-3-36 27-100z"></path>
  <path fill="#D19E5C" d="M392 .5l1 .5-12 30-3 35-43 45-3-11 37-43 1-37 11-15.5 11-4zm-281 0l11 4L132 19l2 38 37 43-4 10-42-44-2-36-13-28 1-1.5zM252 78l26 16-5 10-21-14-22 14-5-10 27-16z"></path>
  <path fill="#926E40" d="M225 94l5 10-12 34-51-28 4-10 42 24 12-30zm53 0l12 29 42-23 3 11-50 27-12-34 5-10z"></path>
  <path fill="#C09255" d="M186 794l27 99-3 36-2 9-3 17-9-5 3-16v-11l4-31-19-71.5 2-26.5zm131-1l1 29-18 70 4 32 1 10 2 16-10 5-3-16-1-10-3-36 27-100z"></path>
  <path fill="#8A693D" d="M293 929l1 10-43 16-43-17 2-9 41 18 42-18zm17-201l10 7 21 199-34 16 24-13-3-12-23 9-1-10 22-7-8-95-1-28-7-66zm-117 0l-7 67-10 128 23 1v10l-24-2-4 12-9-9 7-69 14-131 10-7zm154-4l19 143 24.5-6 2.5 8-25 7 1 24-10 1.5V865l-20-131 8-10zm-191 0l8 9-20 132v36l-9-1v-24l-25-7 3-9 24 7 19-143z"></path>
  <path fill="#7E5F37" d="M393 869l18 22-38.5 8 29.5-9-9-21zm-283 0l-9 21 29 8.5-38.5-7.5 18.5-22z"></path>
  <path fill="#A37C48" d="M347 724l-8 10-19 1-10-7 37-4zm-191 0l37 4-10 7-19-2-8-9z"></path>
  <path fill="#DBA660" d="M374 461l7 26-4 53-.5 105 5 119 13.5 94 16 33-18-22-2.5-8-16.5-97-7-117 2-107 5-79zm-252 1l12 78 2 98v9l-6 113.5-17 99.5-3 9-18.5 22 16.5-33 13-91 1-11 4-101V540l-4-53v-25z"></path>
  <path fill="#7F6138" d="M122 461v26l-58 42-21-1 25-9 54-58zm252 0l61 58 25 9-21 1-58-42-7-26z"></path>
  <path fill="#9B7644" d="M24 766l-11 34 67 11 6-38 4 54-90-19 24-42zm455-1l24 43-90 19 4-53 7 37 66-11-11-35z"></path>
  <path fill="#88683C" d="M139 135.5l-7 94.5-38-2 9.5-8.5 20 .5 5-79 10.5-5.5zM125 78l17 35.5-1.5.5-17.5-11 2-25z"></path>
  <path fill="#CD9B5B" d="M103 113l.5 1.5v14l15 11.5 14.5-7.5 6 3-10.5 5.5-9.5 3.5-8.5-4.5-7 79.5L94 228l9-115zm22-35l-2 25-20 10 22-35z"></path>
  <path fill="#C69556" d="M133 132.5l3-16 6-2.5-3 21.5z"></path>
  <path fill="#9E7845" d="M240 274h23l9-1v12l-41-1v-12z"></path>
  <path fill="#C69757" d="M240 274l-1-87 1.5-6-6-10H231v101z"></path>
  <path fill="#E5AA64" d="M231 171l20.5-49 14 33 6.5 15-3.5 1-6.5-12.5 3.5-3.5-13.5-6-14 6.5 4 3-7.5 12.5z"></path>
  <path fill="#AA824B" d="M240.5 181.5l11 6 10-4.5 7-12 3.5-1v103l-8.5 1v-87l-11.5 7-13-7z"></path>
  <path fill="#826139" d="M400 219l10 9-39 3-6-96 10 6 4.5 80z"></path>
  <path fill="#85653A" d="M365 135l10 6 9.5 3.5 8.5-5 8-10.5-1-11-.5 10.5-15 11.5-14-8z"></path>
  <path fill="#C79856" d="M365 135l5.5-3-4-15.5-3.5-2.5h-1.5z"></path>
  <path fill="#AA804B" d="M361.5 114l17-35 1.5 24.5-17 10.5z"></path>
  <path fill="#DCA861" d="M378.5 79l1.5 24.5 9 3.5h3.5l6 5h1z"></path>
  <path fill="#BC8950" d="M393 139.5l8-10.5 9 99-10-9z"></path>
</svg>
