<svg id="masterComp-cape-svg" class="rsCapeCustomizer_capeSvg" xmlns="http://www.w3.org/2000/svg" viewBox="0 0 426.8 879">
  <style></style>
  <g id="capeDetailTop" class="capeDetailTop">
    <path class="capeDetailTop" d="M336,116.2c-1.7-11.7-3.5-23.5-5.2-35.2-.4-2.3-.9-4.5-1.3-6.8,0-.5,0-1-.1-1.4,0-.5,0-1.1,0-1.6-.5-3.7-1-7.5-1.7-12.2-1.7,1.5-2.8,2.3-3.6,3.2-4.6,4.7-9.4,9-15.2,12.5-6.3,3.8-11.8,9-17.6,13.6-3.8,3.4-7.5,6.8-11.3,10.2q.3,.4,0,0c-1.9,1.3-4,2.4-5.8,3.8-7.1,5.8-14,11.7-21,17.6-.7,0-1.5,0-2.2,0-.8,1.3-1.5,2.5-2.3,3.8-4,3-7.9,6-11.9,9,.5,13.3,1.3,26.6,1.3,39.9,0,17.2-.5,34.4-.8,51.5-.1,5.1-.4,10.2-.7,15.3,0,1.3-.1,1.3-1.5,.7-2.7-2.6-5.4-5.1-8-7.7q0,.1,0,0c-3.2-3.4-6.5-6.7-9.7-10.2-.9-1-1.7-2.1-2.5-3.2-1.2-.7-2.3-1.3-3.5-2-.8,.6-1.5,1.2-2.3,1.8-6,6.5-12,12.9-18.1,19.4-.9,1-1.7,2-3.1,3.8-.2-1.8-.4-2.7-.4-3.6,0-13.6,0-27.2-.2-40.8-.1-11.6-.5-23.1-.5-34.7,0-10.1,.3-20.2,.4-30.3-4.7-3.8-9.4-7.6-14.2-11.4-6-4.6-12-9.2-18-13.9-5.7-4.5-11.3-9.2-17-13.8t0,0h0c-1.7-1.6-3.4-3.1-5.1-4.7h0c-3.1-2.7-6-5.6-9.2-8.1-6.9-5.1-14.1-10-21.1-15.1-2-1.5-3.8-3.4-6.6-6v7.3c-.2,.8-.5,1.6-.7,2.5-1.2,9.1-2.4,18.3-3.4,27.4-1.4,11.9-2.7,23.7-4.1,35.6,1.1,.4,2.2,.8,3.9,1.5h0q.2-1.5,0,0l.8,2.4c0-.1,0,0,0,0,3.9,3.6,7.1,6.6,10.4,9.7h0c.8,1,1.5,2,2.3,3,5,5.8,10.1,11.4,14.9,17.3,3,3.6,5.5,7.4,8.3,11.2,2.5,3,5.1,6.1,7.6,9.1,1-9.2,1.9-18.4,2.9-27.7,0-.3,0-.6,0-.9,0-.2,0-.5-.1-.7,0,0,0,0,0,0,.5-4.5,1-9,1.6-13.4,.3-2.3,.8-4.5,1.2-6.8-1.1-7.2,5.2-9.9,8.9-14.1,1.7-1.9,4-3.4,5.8-5.3,1.8-1.9,3.2-1.9,4.9,0,1.1,1.3,2.5,2.4,3.8,3.6q1.4,.2,0,0c.4,.5,.7,1.1,1.2,1.4,7.4,4.9,6.9,12.1,6.1,19.6-.5,4.9,0,10-.5,14.9-.9,10.6-2,21.2-3.2,31.9-.7,6.7-1.8,13.3-2.8,19.9,0,.5-.9,.9-1.3,1.4-1.2-1.3-2.5-2.6-3.7-3.8-2.6-3.4-5.1-6.8-7.7-10.2-.7-.6-1.4-1.1-2.1-1.7-.7,.3-1.3,.6-2,.9-1.4,1.9-2.8,3.8-4.3,5.7,3.6,4.8,7.1,9.6,10.7,14.5,1.7,2,3.5,4,5.2,6,1,1.7,2,3.5,3,5.2,5,6.8,10.1,13.5,15,20.4,10.6,14.8,21.1,29.8,31.7,44.6,.6,.9,1.4,1.7,2.2,2.7,1.2-1.1,2-1.8,2.8-2.5,3-4.5,6-9,9-13.5,.3,0,.5,0,.8,0,7.3-10.7,14.7-21.4,22-32.1,.7-1,1.3-2.1,2-3.1h0c6.7-9,13.4-18.1,20-27.2,1.5-2.1,2.7-4.4,4-6.6q0-.7,0,0c.2,0,.5,0,.7,0,1.1-1.5,2.1-3,3.3-4.5,1.1-1.4,2.4-2.6,3.6-3.9-2-2.1-4-4.1-6-6.2-.8,0-1.5,.2-2.3,.3-.5,1-1.1,1.9-1.6,2.9,0,0,0,0,0,0-2.7,2.8-5.4,5.7-8.1,8.5-.8,1.2-1.7,2.4-3.2,4.6-1.1-8.3-2.1-15.6-3-22.8q-.3,.2,0,0c-1-9.9-2.2-19.8-2.9-29.8-.6-8.7-.6-17.4-.8-26,0-1.4,.4-2.9,.7-4.3,.3-.7,.7-1.4,1-2.1,0,0,0,0,0,0,3.2-2.9,6.3-5.9,9.7-8.7,1-.9,2.5-1.1,3.8-1.7,.4,.4,.9,.8,1.3,1.3l.2,.2c.7,.3,1.3,.5,2,.8,0,0,0,0,0,0,2.8,2.5,5.6,5,8.4,7.5,4.1,3.1,4.8,7.3,4.6,12.1-.2,5.4,.6,10.7,0,16.2-.3-2.2-.6-4.4-.9-6.6-1.8,1.2-3.5,2.3-5.3,3.5,0,0,0,0,0,0-1.9,.8-3.8,1.7-5.8,2.5,0,0-.1,0-.1,0-.2,.2-.5,.5-.7,.7-1.3-.5-2.8-.9-4-1.6-2.5-1.4-4.8-3-7.2-4.5,0,.3-.1,.6-.2,1,0-.3,.1-.6,.2-1-.6-.5-1.2-1.1-2.1-1.9,0,2.2-.1,3.9,0,5.6,1.4,14.8,2.8,29.6,4.4,44.3,0,.7,1.3,1.3,2,2,.8-1.4,1.6-2.8,2.4-4.2,0,0,0,0,0,0,.2-.3,.5-.5,.7-.8h0c.2-.2,.5-.5,.7-.8h0c.3-.5,.6-1,.9-1.4,.7-.5,1.3-1.1,2-1.6,.8-.9,1.6-1.8,2.4-2.7,3.5,2.9,7,5.7,10.5,8.6,1.2,1,2.4,2.2,3.5,3.3,.3-3.6,.5-7.1,.8-10.7,.3-.8,.4-1.8,.9-2.4,6.2-8,12.4-15.9,18.6-23.8,1.2-1.2,2.5-2.5,3.7-3.7,.5-1,1-2,1.5-3h0c2.2-2.6,4.5-5.2,6.7-7.9,1-1.3,1.8-2.7,2.7-4.1l2.1-1c-.3-2.2-.3-2.2,0,0,1.3-1.3,2-2.1,2.7-2.8,3.5-3,7-6,10.5-9-.6-4.8-1-9.6-1.7-14.3Zm-216.4-32c.6,.4,1.2,.8,1.8,1.3-.6-.5-1.2-1-1.8-1.3Z"/>
    <path class="capeDetailTop" d="M232.2,210.7h0c0-.5,0-1,0-1.4,0-.5,0-1,0-1.6,0-26.9-.1-53.9-.2-80.8-.5,.8-1.3,1.6-1.3,2.5-.4,5.6-.7,11.3-1,16.9-.7,1-1.4,2-2.1,3-4,3.4-8,6.9-12,10.3-.5,0-.9,.1-1.4,.2-.3,.2-.5,.4-.8,.7-.8,0-1.6,.2-2.4,.3-5.1-3.9-10.3-7.7-15.4-11.6h0c0-.2,0-.5-.1-.7-.5-2.6-1.1-5.2-1.4-7.9-.6-4.4-1-8.7-1.5-13.1-.2,32.4-.3,64.7-.4,97.1,0,.3,1.1,.7,1.7,1,5.9-6.7,11.9-13.4,18.1-20.5,1.6,1.8,2.7,3.2,3.9,4.6,1.1,1,2.3,1.9,3.3,2.9,3.6,3.6,7.1,7.3,10.6,11q0-.9,0,0c.8,.8,1.5,1.7,2.3,2.5,0-2.8,.1-5.5,.2-8.3,0-2.4,0-4.8,0-7.2Z"/>
    <path class="capeDetailTop" d="M145.2,192.1c0-.2,.1-.5,.2-.7,1.7-1.3,3.5-2.7,5.2-4,.8,.9,1.5,1.8,2.3,2.6,2.7,2.9,5.4,5.9,8.1,8.8,.5-1.5,1-3.1,1.5-4.6,.9-11.9,1.8-23.8,2.7-35.6,.3-3.3,.5-6.7,.7-10,0-.2-.7-.5-1.1-.7-3.2,2.3-6.5,4.5-9.7,6.8-.8,.2-1.8,.9-2.3,.6-4-2.1-8.3-4.1-10-8.8-.3-.3-.6-.7-1.2-1.3-1.5,15.5-3.1,30.6-4.5,45.8-.3,3.1-.1,6.3-.1,9.4,2.8-2.6,5.5-5.3,8.3-7.9,0,0,0-.3,0-.3Z"/>
    <path class="capeDetailTop" d="M110.4,60.9c16.6,12.7,33.4,25.2,50,37.9,2.7,2,4.9,4.7,7.2,7.1,1.4,1.4,2.5,1.7,3.9,0,2.1-2.6,4.9-4.6,6.8-7.3,5.2-7.2,13.3-8.8,20.9-11.5,2.7-1,5.6-1.5,8.1-2.8,3.3-1.6,6.3-1.5,9.6-.3,6.6,2.5,13.4,4.6,20.1,7.1,1.8,.7,3.5,1.9,4.9,3.2,2.8,2.5,5.4,5.1,8.1,7.7h0c4.7,5.7,4.9,5.7,10.2,.5,2.8-2.7,5.4-5.6,8.4-7.9,11.3-8.9,22.9-17.5,34.2-26.4,6.8-5.3,13.5-10.9,20.2-16.4,2.6-2.1,4.5-4.7,4.1-8.3,0-1.5,0-3,.1-4.6,0,0-.1,0-.1,0-.2-.7-.5-1.4-.7-2.2,0,0,0,0,0,0-.2-.5-.5-1-.7-1.5,0,0,0,0,0,0-1.3-1.4-2.6-2.9-3.8-4.3,0,0,0-.2,0-.2h-.2c-.2-.2-.3-.3-.5-.5,0,0-.2-.2-.2-.2-.9-.7-1.9-1.4-2.8-2.1-.3,0-.7-.2-1-.2-4.6-2.5-9.2-5-13.9-7.5-1.5,3-3,6-4.5,9.1-.6,.7-1.1,1.4-1.7,2.2-3.2,3-6.5,6-9.7,9,0,0,0,0,0,0h0c-6,3.5-11.9,7-17.9,10.5-5.2,2.3-10.3,4.8-15.6,6.7-11.1,3.9-22.7,5.8-34.3,7.4-3.2,.4-6.4,1.1-9.5,.8-8.9-.9-17.8-2.3-26.7-3.5-1-.3-2-.6-3-.9-.5-.2-1-.5-1.5-.7-.8-.2-1.5-.4-2.3-.6-.2,0-.5,0-.7,0-1.2-.3-2.4-.6-3.7-.8-.5-.2-1-.4-1.6-.7-.2,0-.5,0-.7,0-.3-.2-.5-.4-.8-.6-.5,0-1-.1-1.5-.2,0,0,0,0,0,0-1.5-.5-3-.9-4.5-1.4-.5,0-1,0-1.4-.1,0,0,0,0,0,0-.8-.7-1.5-1.5-2.4-2-7.8-3.9-16-6.9-22.6-12.9-6.4-5.9-14.5-10.4-15.6-20.3-1.2,.7-2.5,1.4-3.7,2-3.7,1.9-7.4,3.8-11.1,5.7-1.7,1.5-3.4,2.9-5.1,4.4-1.6,2.7-3.1,5.4-4.7,8.1,0,1,0,2,.1,3.1,1.5,8.1,7.9,12.2,13.8,16.7Zm54.3-2.7c-.2-.1-.5-.3-.7-.6,.2,.2,.4,.4,.7,.6Z"/>
  </g>
  <g id="capeDetailBot" class="capeDetailBot">
    <path class="capeDetailBot" d="M338.9,506.9c-5.5,4.2-11,8.5-16.5,12.6-1,.8-2.4,1.1-3.5,1.6,0,0,0,0,0,0-.5,.5-1.1,1-1.6,1.5-.2,.2-.4,.3-.6,.5-.5,.6-1,1.2-1.5,1.8,0,0-.2,0-.2,0,0,.5,.1,.9,.2,1.4,4.5,21.3,8.9,42.7,13.4,64,2.3,11,4.6,21.9,6.9,32.9,8.1-3.5,16.3-7,24.4-10.5-2.7-13.5-5.3-27.1-8-40.6-4.3-21.7-8.6-43.5-13-65.2Z"/>
    <path class="capeDetailBot" d="M382.3,509c-.3-.9,.1-2.1,.2-3.1,.4,0,.8,0,1.1,0l-23.3-8.8c-1.1,.3-2.3,.5-3.4,.9,5.5,21.4,11,42.9,16.5,64.3,4,15.4,8,30.7,12,46,.2,.7,.6,1.3,.8,2,.9-.3,1.9-.4,2.7-.9,5.8-3.6,11.6-7.3,17.3-11-1.9-7-3.7-13.9-5.6-20.9-6.2-22.9-12.4-45.8-18.5-68.7Z"/>
    <path class="capeDetailBot" d="M59.1,498.9c-4.2,1.3-8.4,3-12.5,4.7-1.1,.5-1.9,1.6-2.9,2.5-3.8,14.2-7.6,28.4-11.3,42.6-4.3,16.6-8.6,33.2-12.9,49.8,4.6,2.5,9.3,4.9,13.9,7.6,2.1,1.2,3.9,3,5.8,4.5,3.6-14.4,7.3-28.7,10.8-43.1,5.8-23.4,11.6-46.9,17.4-70.3-2.8,.5-5.7,.8-8.4,1.7Z"/>
    <path class="capeDetailBot" d="M305.1,597.8c-2.9-15-5.8-30-8.7-45.1-.2-.6-.3-1.1-.5-1.7-.3-.3-.5-.5-.8-.8-1.8,3.5-3.6,7-5.5,10.6-.7,.7-1.6,1.2-2,2.1-3.1,6.3-6.4,12.6-9.1,19.2-1.3,3.2-1.6,6.9-2.4,10.4,.2,.6,.5,1.1,.6,1.7,3.2,16.2,6.3,32.4,9.5,48.6,7.9-3.5,15.8-7,23.7-10.6,.5,0,1,0,1.4,0,0-.6,.1-1.3,0-1.9-2.1-10.9-4.2-21.7-6.3-32.6Z"/>
    <path class="capeDetailBot" d="M380.4,426c-4.9-23.3-9.9-46.6-14.8-69.9-3.3,4.2-6.6,8.4-10,12.6-5.7,7.1-11.6,13.9-17,21.2-7.1,9.6-13.8,19.5-20.6,29.2-8.5,12.1-17.4,24-25.2,36.5-11.7,18.8-22.9,37.9-33.8,57.1-4.5,7.9-7.9,16.3-11.3,24.7-11.2,27.1-22.1,54.3-33.2,81.5-.8,1.9-1.5,3.7-2.5,6-1.6-3.6-3.1-6.7-4.5-9.9-.5-1.8-1-3.6-1.6-5.3-8.7-21.9-17.3-43.7-26.2-65.5-4.1-10-7.7-20.4-13-29.8-11.1-19.9-22.9-39.4-35-58.7-8-12.7-16.9-24.8-25.4-37.3-14.5-21.4-30.3-41.9-47.2-61.4-.2,.5-.4,.9-.5,1.4-3.8,18.9-7.5,37.8-11.3,56.7-1.2,6.1-2.5,12.3-3.8,18.4,6.5,3.5,13.1,6.8,19.6,10.4,4.7,2.6,9.3,5.6,13.9,8.4,20,9.9,35.9,25.4,51.1,41.1,14.1,14.6,27.8,30,35.9,49.3,4.6,11,11.9,20.8,14.5,32.7,1,4.5,2.5,8.9,3.7,13.3,1.9,7.1,4.8,14.1,5.5,21.3,1.4,14.1,1.6,28.4,2.3,42.6,.8,16.5-2.7,32.5-4.1,48.8-.8,9.9-1.7,19.9-2.6,29.8,0,.5,0,1-.1,1.4-.1,1-.2,2.1-.3,3.1,0,.7-.1,1.5-.2,2.2-.7,7-1.3,13.9-2,20.9,4.5-4.6,8-9.3,11.5-14.1,6.3-8.7,12.6-17.5,18.9-26.2,.7,0,1.4,0,2.2,0,.5,.8,1.1,1.5,1.6,2.3,.8,.9,1.7,1.8,2.4,2.8,2.9,3.8,5.8,7.7,8.7,11.5,.2,.3,.4,.5,.6,.8,.5,.7,1.1,1.5,1.6,2.2,0,0,0,0,0,0,.5,.5,.9,1.1,1.4,1.6,0,0,0,0,0,0,1.8,2.5,3.5,4.9,5.3,7.4,0,0,0,0,0,0,1.3,1.7,2.5,3.5,3.8,5.2,0,0,0,0,0,0,1.7,2.6,3.5,5.2,5.2,7.8,.3-.1,.6-.3,.9-.4-.5-4.8-1.1-9.5-1.6-14.3,0-.5,0-1-.1-1.5-.2-2.2-.4-4.5-.6-6.7,0-1-.1-2-.2-3-.1-.8-.3-1.5-.4-2.3,0-.7,0-1.5-.1-2.2-.5-5.7-1.1-11.5-1.6-17.2-.1-.8-.2-1.5-.3-2.3h0c-.3-2.3-.7-4.5-1-6.8q-.4,.8,0,0c0-.5,0-1,0-1.5-.2-2.2-.5-4.5-.7-6.7-.3-2.3-.5-4.5-.8-6.8-.4-3.5-.9-7-1.3-10.5,0-1.2-.2-2.5-.3-3.7-.2-.8-.3-1.5-.5-2.3,0-.5,0-1-.1-1.5-.2-1-.4-2-.6-3,0-.5,0-1,0-1.5h0c0-.3,0-.5,0-.8,0-1-.1-2-.2-3,.1-.2,.1-.5,0-.7,.2-6.3,.5-12.5,.7-18.8,.1-.2,.1-.5,0-.7,0-.5,0-1,0-1.6,0-.5,0-1,0-1.4,0-.8,0-1.5,0-2.3,.1-.2,.1-.5,0-.7h0c0-.5,0-1,0-1.5,.2-5.2,.4-10.5,.6-15.7,0-.5,0-1,0-1.5,0-.2,0-.5,0-.7,0-1.5,0-3,0-4.5,0-1,.2-2,.2-3,.2-1,.5-1.9,.7-2.9h0c.2,0,.4,0,.5-.1,0-.7,.1-1.5,.2-2.2,.4-.8,.9-1.6,1.3-2.5,.3-1.2,.6-2.4,1-3.6,.7-1.8,1.3-3.7,2-5.5,.2-.7,.4-1.4,.6-2.1,2.4-7.7,4.8-15.4,7.2-23.1,.3-.8,.7-1.6,1-2.4,.6-1.1,1.1-2.1,1.7-3.2,5.5-11.9,10.9-23.9,16.5-35.7,1-2.2,2.8-4,4.3-5.9,4.8-6,9.7-11.9,14.6-17.8,.3-.3,.5-.6,.8-.9,0,0,0,0,0,0,1.2-1.3,2.5-2.6,3.7-3.8,.2-.2,.4-.5,.6-.7,0,0,0,0,0,0,3.5-3.5,7-7,10.5-10.5,0,0,0,0,0,0,1.5-1.3,3-2.5,4.5-3.8h0s0,0,0,0c1.5-1.3,3-2.5,4.5-3.8,.5-.5,1-.9,1.5-1.4,1.2-1,2.5-2.1,3.7-3.1,.5-.5,1-1,1.5-1.5,.5-.5,1.1-1,1.6-1.5,0,0,0,0,0,0,.7-.5,1.4-1.1,2.2-1.6,.2,0,.4,0,.6,0,.5-.5,1.1-1,1.6-1.5,.8-.7,1.5-1.4,2.3-2.1,4.8-3.3,9.5-6.7,14.5-9.7,8.5-5.2,17-10.2,25.7-15.1,4.6-2.6,9.6-4.7,14.4-7-.5-2.7-.8-5.4-1.4-8.1Z"/>
    <path class="capeDetailBot" d="M149.1,589.4c-1.3-3.5-2.5-7-3.8-10.4h0s0,0,0,0c-.1-.6-.2-1.3-.4-1.8-4.5-8.6-9-17.1-13.5-25.7-.6-1.2-1.6-2.2-2.5-3.3,0,1.4,0,2.8-.2,4.1-3.5,19-7.2,37.9-10.7,56.8-1.4,7.7-2.7,15.4-4,23.1,2,.5,4,.8,6,1.5,3.7,1.4,7.4,3,11.1,4.5q1.3-8.8,0,0c1,.7,2.1,1.5,3.1,2.2,1.6,.5,3.2,1,4.7,1.6,3.2-16.5,6.4-33,9.5-49.5,0-.3,.2-.6,.3-.9,.4-.2,.7-.4,1.1-.6-.2,0-.5,0-.7,0h0c.2,0,.5,0,.7,0,0,0,0,0,0,0-.2-.5-.4-1-.6-1.6Zm-.1,0c-.4-1.2-.8-2.3-1.3-3.5,.4,1.2,.8,2.3,1.3,3.5,0,0,0,.2,0,.3,0,0,0-.2,0-.3Z"/>
    <path class="capeDetailBot" d="M105.4,521.5c-3.9-2.8-7.8-5.6-11.8-8.5-2.4-2.1-4.7-4.1-7.1-6.2-.4,1.4-.8,2.9-1.1,4.3-4.3,22.2-8.6,44.5-12.8,66.7-2.2,11.6-4.3,23.2-6.5,34.8,1.4,.3,2.8,.5,4.2,.8,0,0,0,0,0,0,6.4,3,12.8,6.1,19.2,9.1,1.1-4.3,2.1-8.6,3.2-13,.1-1.4,.1-2.7,.4-4.1,3.6-17.3,7.2-34.5,10.9-51.7,2-9.2,4-18.4,6-27.6,0-.2,0-.3,0-.5,0-.2,0-.5,0-.7-1.5-1.2-3.1-2.4-4.6-3.6Z"/>
  </g>
  <g id="capeBgTop" class="capeBgTop">
    <path class="capeBgTop" d="M187.3,127.2c.5-1.8,1.9-3.4,2.8-5.1,3.7-3.7,7.4-7.3,11.1-11,1.4-1.4,2.7-2.9,4-4.3,0,0,0,0,0,0,2.2-1.8,4.3-3.6,6.7-5.6,7.9,7.4,15.8,14.5,23.4,21.9,1.1,1,.9,3.4,1.1,5.2,.2,1.5,.1,3,.2,4.5,4-3,7.9-6,11.9-9,.8-1.3,1.5-2.5,2.3-3.8-.2-.3-.5-.5-.7-.8-.3-.2-.5-.4-.8-.7h0c-.2-.3-.5-.5-.7-.8h0c-.5-.7-1-1.4-1.5-2.1h-.1c-.2-.4-.4-.6-.6-.8h0c-.2-.4-.4-.6-.7-.9-3.2-3.9-6.2-8.2-9.9-11.6-2.1-2-5.3-3.2-8.2-4.1-4.7-1.6-9.5-3-14.3-4.1-1.8-.4-3.9,.2-5.9,.4-4.7,1.6-9.5,2.9-14.1,4.8-2.6,1.1-4.9,3.2-6.9,5.2-3.6,3.7-6.8,7.8-10.2,11.7-.5,.9-.9,1.8-1.4,2.8-.6,.8-1.3,1.5-1.9,2.3,4.7,3.8,9.4,7.6,14.2,11.4,0-1.9-.3-3.8,.3-5.6Z"/>
    <path class="capeBgTop" d="M360.5,238.2c-.4-4-1.9-7.8-3.1-12-1.3,.7-2.3,1.2-3.2,1.8-1.7,1.3-3.4,2.6-5.1,3.9-3.3,2.7-6.7,5.4-10,8,0,0,0,0,0,0-5.1,3.4-10.6,6.4-14.2,11.7-1.9,2.8-4.4,5.2-6.7,7.9-2.5,3.5-5,7-7.4,10.5-3.5,4.5-7,9.1-10.5,13.6-7.8,13-15.8,25.9-23.1,39.2-4.4,7.9-7.6,16.5-11.2,24.8-5.1,12-10.2,24-15.1,36.1-3.6,8.9-7.1,17.8-10,26.8-4.5,13.8-8.5,27.8-12.7,41.6-.4,1.4-1.2,2.7-1.8,4.1,0,.2,0,.4,0,.6-.2,.6-.5,1.1-.7,1.7-2.8,10.1-5.5,20.3-8.3,30.4-.2,.6-.5,1.1-.7,1.7-1.3,5.2-2.6,10.4-3.9,15.5q-.2,4.4,0,0c-.4-.3-1.2-.5-1.3-.9-3.3-13.3-6.6-26.7-9.9-40.1-.2-.5-.4-1-.6-1.6-.4-1.2-.7-2.5-1.1-3.7-1.2-3.7-2.3-7.4-3.5-11.1-3-9.3-6-18.6-8.9-27.9-2.4-6.6-4.7-13.3-7.3-19.9-4.8-12.3-9.8-24.5-14.7-36.7-.4-1-1.2-1.9-1.8-2.8,0-.2,0-.3,0-.5,0,0,0,0,0,0-.6-2-1.2-4-1.8-6-1.7-3.5-3.3-7-5-10.6-.2-.5-.5-1-.7-1.5,0,0,0,0,0,0-2.2-5-4.5-10-6.7-15-.3-.5-.5-1-.8-1.5,0,0,0,0,0,0-1.3-2.2-2.5-4.5-3.8-6.7h0c-1-1.8-2-3.5-3-5.3,0,0,0,0,0,0-.5-1-1-2-1.5-3-.3-.5-.5-1-.8-1.5,0,0,0,0,0,0-.5-.8-.9-1.5-1.4-2.3-.3-.5-.5-1-.8-1.5,0,0,0,0,0,0-1.3-2.2-2.5-4.5-3.8-6.7h0c-1.2-2-2.5-4.1-3.7-6.1-.3-.5-.6-.9-.8-1.4-.2-.3-.5-.5-.7-.8,0,0,0,0,0,0q-.4,.2,0,0c-1.5-2.5-3-5-4.5-7.5-4.8-6.6-9.6-13.3-14.5-19.9-.9-1.3-2.3-2.2-3.5-3.3,0,0,0,0,0,0-4.3-5-8.5-9.9-12.8-14.9-1-.8-2-1.6-3-2.3,0,0,0,0,0,0-4-2.8-7.9-5.5-11.9-8.3-1.1-.9-2.1-1.9-3.2-2.8-1.5-1-2.9-2-4.4-3.1-1.2-.7-2.4-2.3-3.7,0,0,0,0,0,0,0-.5,1.8-.9,3.6-1.4,5.4,0,.7-.2,1.4-.2,2.1-.2,.3-.3,.6-.5,.9,0,.4,0,.9-.1,1.3,0,.3,0,.5-.1,.8,0,.5,.1,1,.2,1.5,1,.8,2,1.7,3.1,2.5,1.9,1.3,3.8,2.5,5.8,3.7,0-.2,0-.4,0-.6,0,.2,0,.4,0,.6,.8,.6,1.6,1.2,2.3,1.8,5.7,4.4,11.3,8.7,17,13.1,.3,.4,.7,.9,1,1.3,0,0,0,0,0,0,2.7,2.7,5.6,5.4,8.1,8.3,4.6,5.3,9.1,10.8,13.6,16.2,.9,1.2,1.8,2.4,2.6,3.6,3.3,5.4,6.6,10.9,10,16.3q-.3-1.4,0,0s0,0,0,0c.5,1,1,2,1.5,3,.3,.5,.5,1,.8,1.5,1.5,2.7,3,5.5,4.5,8.2,.3,.5,.5,1,.8,1.5,3.2,6.3,6.5,12.6,9.7,19,0,.2,0,.4,.1,.5,1,2.4,2,4.8,3.1,7.1,3.7,7.7,7.4,15.3,11,23,0,0,0,0,0,0,.8,2,1.5,4,2.3,6,0,0,0,0,0,0,.4,1.4,.7,2.9,1.3,4.3,6.5,17.8,13.4,35.4,19.3,53.4,7.1,21.7,13.3,43.7,20.1,65.6,2.9,9.2,3.7,19.2,9.7,27.3,.5-.7,1-1.4,1.6-2.1,1.4-2.2,3.4-4.2,4.1-6.6,5-16.8,9.7-33.8,14.6-50.7,4.6-15.7,8.9-31.4,14.2-46.8,4.3-12.6,9.6-24.9,14.7-37.2,14.9-36.1,30.6-71.8,52.2-104.6,.7-.6,1.3-1.2,2-1.8,.4-.4,.7-.8,1.1-1.2,.2-.2,.4-.4,.6-.6,3.9-3.8,7.9-7.6,11.8-11.5,0,0,0,0,0,0,.5-.5,.9-1,1.4-1.4,1-.8,2-1.5,3-2.3,2.5-2.2,5-4.5,7.6-6.7,.3-.2,.6-.4,.9-.7,.4-.3,.9-.5,1.3-.8,3.2-2.3,6.5-4.5,9.7-6.8,1.4-1.1,2.9-2.1,4.3-3.2,1.2-1.6,3.6-3.3,3.5-4.7Z"/>
    <path class="capeBgTop" d="M187.9,334.7c-1.3-1.3-2.1-3.1-3.1-4.6-9.5-12.5-18.9-25.1-28.4-37.6-2.6-3.4-5.4-6.6-8.3-10.2-1,1.5-1.5,2.5-2.1,3.4,0,0,0,0,0,0-.8,1-1.5,2-2.3,3-1,1.5-2,3-3,4.5,0,1,0,2,0,3.1,.3,.5,.5,1,.8,1.5,.3,.5,.5,1,.8,1.5,0,0,0,0,0,0,.2,.3,.5,.6,.7,.9,0,.2,0,.4,.1,.6,.2,.3,.4,.6,.7,.9,.5,1,1,1.9,1.5,2.9,.3,.5,.5,1,.8,1.5,3.8,7.2,7.5,14.5,11.3,21.7,.5,1,.9,2,1.4,3.1,.3,.7,.6,1.5,.9,2.2q.9,.3,0,0c0,.4,0,.9,0,1.3,.2,.3,.4,.6,.6,.9,.2,.5,.5,1.1,.7,1.6,.3,.3,.5,.5,.8,.8,.3,.7,.5,1.5,.8,2.2,.7,1.5,1.5,3.1,2.2,4.6,0,.2,0,.4,.1,.6,.2,.3,.4,.5,.7,.8,0,0,0,0,0,0,.5,1.2,1,2.5,1.5,3.7,.3,.7,.5,1.5,.8,2.2,.5,1,.9,2.1,1.4,3.1,.3,.5,.5,1,.8,1.5,.4,1,.8,1.9,1.4,3.4,1.2-1.2,2.2-1.9,3-2.8,4.5-5,8.8-10.1,13.4-14.9,2.5-2.5,2.9-4.6,.3-7.2Z"/>
    <path class="capeBgTop" d="M232.8,402.3c-2.7-5.2-5.9-10.2-8.9-15.3-2.5-3.8-4.9-7.5-7.4-11.3-.6-1-1.1-2-1.7-3-.2-.3-.4-.6-.6-.9-.2-.2-.5-.5-.7-.7-.5-.6-.9-1.3-1.4-1.9-.6,.9-1.2,1.7-1.8,2.6,0,0,0,0,0,0-3.5,5.3-6.9,10.6-10.4,15.9-3,5-6.1,10-8.9,15.1-.7,1.3-1.1,3.3-.8,4.7,1.8,7.5,4,14.9,5.9,22.3,2.4,8.9,4.7,17.8,7,26.7,3,10.1,5.9,20.3,9.1,30.9,1.1-3.4,1.9-6.2,2.8-9,1.5-6.2,3.1-12.5,4.6-18.7,.7-2.8,1.4-5.6,2.1-8.3,.3-.5,.6-1,.8-1.4,0-.5,0-1.1,0-1.6,.2-.2,.3-.4,.5-.7,0-.8,.2-1.6,.3-2.3,.2-.2,.3-.4,.5-.6,0-.5,.1-1,.2-1.6,.4-.6,.8-1.1,1.2-1.7,.2-.7,.4-1.5,.6-2.2,2.6-10.3,5.4-20.6,7.8-31,.4-1.9,0-4.3-.9-6.1Z"/>
    <path class="capeBgTop" d="M196.8,344.4c-1.3,1.4-2.5,2.8-3.8,4.2,0,0,0,0,0,0-.5,.2-1.2,.3-1.6,.7-5.2,5.5-10.2,11.1-15.4,16.5-2.4,2.5-2.2,4.6,0,7,0,.2,0,.4,.1,.6,1.7,3.8,3.4,7.6,5.1,11.5,0,.2,0,.4,0,.5,.7,1.5,1.4,3,2.2,4.6,0,0,0,0,0,0,.4,1.4,.9,2.9,1.6,5.1,3.8-5.8,7.1-10.8,10.4-15.8,2.5-4.3,5-8.6,7.7-12.8,1.7-2.7,1.7-5.2,.3-8-2.3-4.7-4.3-9.5-6.4-14.2Z"/>
    <path class="capeBgTop" d="M246.9,364.7c-4.4-4.4-8.4-9.1-12.6-13.7-2.1-2.1-4.3-4.1-6.5-6.3-1.4,2.3-2.5,4.3-3.7,6.3-.1,.2-.2,.5-.3,.7,0,0-.3,.1-.3,.2,0,.2,0,.4,0,.6-3,5.7-6.3,11.3-.6,17.3,2.3,3.7,4.5,7.5,6.8,11.2,3.1,4.6,6.1,9.2,9.3,14.1,.5-1,.9-1.7,1.2-2.4,2.6-6.5,4.8-13.3,8-19.6,1.8-3.6,1.3-5.7-1.4-8.4Z"/>
    <path class="capeBgTop" d="M212.1,358.7c2.9-4.9,5.4-9.3,8-13.7,3.8-5.3,2-9.3-2.6-13-1.5-1.2-2.5-3.1-3.8-4.5-.6-.6-1.6-.8-2.4-1.2-2.3,2.7-4.6,5.4-7,8.1-.5,.5-.9,.9-1.4,1.4-1.8,1.8-2,3.6-.6,6,2.7,4.3,5,8.9,7.5,13.3,.6,1.1,1.4,2.1,2.3,3.5Z"/>
    <path class="capeBgTop" d="M253.8,357.5c6.6-14.1,13.1-28.2,19.8-42.1,3-6.3,6.6-12.3,9.9-18.4,.6-1,1.3-2.7,.9-3.4-2-3.7-4.4-7.3-6.8-11.1-1.1,.8-1.6,1.1-2,1.6-8.4,10.3-17,20.4-25.3,30.9-4.6,5.8-8.6,12.1-12.9,18.2-1.2,2-2.3,4.1-3.7,6.4,1.9,2.1,3.9,4.3,5.9,6.4,4.3,4.5,8.5,9.1,13,13.9,.6-1.2,.9-1.7,1.2-2.2Z"/>
    <path class="capeBgTop" d="M72,221.1c1.5,1.1,2.9,2.1,4.4,3.2,.5,.3,1,.5,1.5,.8,6.2,4.6,12.4,9.2,18.5,13.8,.7,.5,1.2,1.3,1.7,1.9,.5,.5,1,1,1.5,1.5,.2,.3,.5,.5,.7,.8,.4,.3,.9,.6,1.3,.9,0,0,0,0,0,0,5.8,7,11.6,14,17.4,21,2.5,3.9,5.1,7.8,7.6,11.8,2.6,3.2,5.2,6.5,8.2,10.1,4.3-5.7,8.5-11.2,12.8-16.9,1.9,1.7,3.5,3.2,5.2,4.7,0,0,0,0,0,0,2.3,3,4.6,5.9,6.9,8.9,.2,.3,.4,.5,.6,.8,.7,.7,1.4,1.5,2.1,2.2,.5,.7,1.1,1.4,1.6,2.2,.2,.3,.5,.5,.7,.8,8.7,11.4,17.4,22.7,26.1,34.1,.3,.4,.5,.9,.7,1.3,1.6,1.9,3.1,3.8,4.7,5.8,1.4-1.1,2.5-2,3.6-2.9,3.5-3.4,6.9-6.7,10.4-10.1,1.3-.6,2.7-1.1,4-1.7,.6-.2,.6-.2,0,0,4.1,4.7,8.1,9.4,12.3,14,.2,.2,1.6-.5,2.4-.8,0,0,0,0,0,0,.8-1,1.6-1.9,2.4-2.9,3.1-4.2,6-8.4,9.2-12.5,8.4-10.8,16.8-21.6,25.2-32.4,.5-1,.9-1.9,1.3-2.9-.5,.9-.9,1.9-1.3,2.9,3-3.3,5.9-6.5,8.9-9.8,.7-.8,1.5-1.6,2.5-2.6,3.2,4.9,6.3,9.4,9.2,13.9,2.4,3.8,3.3,3.9,6.1,.3,.7-1,1.6-1.9,2.4-2.8,4.5-6.6,9-13.2,13.6-19.7,1-1.4,2-2.7,3-4.1q0-1.1,0,0c.5-.3,1-.5,1.5-.8,6.4-7,12.8-14,19.2-20.9,.6-.7,1.3-1.4,1.9-2.1,.2-.8,.6-1.7,.6-2.5,0,.8-.4,1.7-.6,2.5,2.8-1.8,5.7-3.6,8.5-5.4,1-.6,2.1-1.1,3.2-1.6,2.1-1.7,4.1-3.4,6.2-5.1,1.3-1,2.6-2,3.9-3,0-.5,0-1-.2-1.5-3.5-16.5-7.1-33-10.5-49.6-2.5-12-5-24-7.4-35.9-3.5,3-7,6-10.5,9-.7,.7-1.4,1.5-2.7,2.8,0,0,0,0,0,0l-2.1,1c-.9,1.4-1.7,2.8-2.7,4.1-2.2,2.7-4.5,5.3-6.7,7.9-.5,1-1,2-1.5,3-1.2,1.2-2.5,2.5-3.7,3.7-6.2,7.9-12.4,15.9-18.6,23.8-.5,.6-.6,1.6-.9,2.4-.3,3.6-.5,7.1-.8,10.7,1.2,3.9,2.3,7.9,3.5,11.8-.5,.3-1,.5-1.5,.8-3.1-3.3-6.2-6.6-9.3-9.9-1.2,1.3-2.4,2.5-3.6,3.9-1.2,1.4-2.2,3-3.3,4.5h0c-.2,0-.5,0-.7,0-1.3,2.2-2.5,4.5-4,6.6-6.6,9.1-13.3,18.1-20,27.2-.7,1-1.3,2.1-2,3.1-7.3,10.7-14.6,21.4-22,32.1-.3,0-.5,0-.8,0-3,4.5-6,9-9,13.5-.8,.7-1.6,1.4-2.8,2.5-.8-1-1.5-1.8-2.2-2.7-10.6-14.9-21.1-29.8-31.7-44.6-4.9-6.9-10-13.6-15-20.4-1-1.7-2-3.5-3-5.2-1.7-2-3.5-4-5.2-6h0c-3.6-4.8-7.1-9.6-10.7-14.5-.5,.3-.9,.6-1.4,1h0c-.9,.5-1.9,1.1-2.8,1.6h0c-1.3,1.7-2.6,3.4-3.9,5-.6,.7-1.2,1.4-1.8,2.2-.3,0-.6-.1-1-.2,.3-3.4,.5-6.7,.8-10.1,.5-4.7,1-9.5,1.5-14.2-2.5-3-5.1-6.1-7.6-9.1-2.7-3.7-5.3-7.6-8.3-11.2-4.8-5.9-9.9-11.5-14.9-17.3-.8-1-1.5-2-2.3-3-3.2-3-6.5-6-10.4-9.7h0s-.8-2.4-.8-2.4c-1.5-.6-2.9-1.1-3.9-1.5-.2,.5-.5,.9-.6,1.4-4.5,20.7-8.9,41.4-13.4,62-1.5,6.9-3.1,13.7-4.7,20.6,0,.3,0,.5,0,.8,0,.5,.1,1,.2,1.4,1,.7,2,1.4,3,2.1Zm20.2-84.4"/>
  </g>
  <g id="capeBgBot" class="capeBgBot">
    <path class="capeBgBot" d="M330.5,715.9c-3.7-15.3-7.3-30.7-10.8-46.1-2.9-12.5-5.6-25-8.3-37.5-.5,0-1,0-1.4,0-7.9,3.5-15.8,7-23.7,10.6,.2,.7,.3,1.5,.5,2.2,.1,.4,.3,.8,.4,1.2l.3,1.8c.2,.4,.3,.8,.5,1.2,1.8,8.4,3.5,16.8,5.4,25.1,7.9,35.2,15.9,70.5,23.9,105.7,.3,1.4,1.1,2.6,1.7,3.9,7.2-7.8,14.4-15.7,21.5-23.6,.5-.5,.7-1.6,.5-2.3-3.5-14.1-7.1-28.1-10.5-42.1Z"/>
    <path class="capeBgBot" d="M383.8,698.3c-3.2-9.3-6.6-18.4-9.3-27.8-3-10.4-5.5-20.9-8.1-31.4-2.2-8.8-4.3-17.6-6.4-26.4-8.1,3.5-16.3,7-24.4,10.5,1.8,7.2,3.4,14.5,5.4,21.7,8.2,29.8,16.5,59.6,24.7,89.4,.3,.9,.8,1.8,1.2,2.6,6.5-7.8,13.2-15.6,19.6-23.5,.9-1.1,1.4-3.2,1-4.6-.9-3.6-2.4-7-3.6-10.5Z"/>
    <path class="capeBgBot" d="M248.7,831.5c-.9-15.6-1.7-31.1-2.3-46.7-.1-3.6-1.2-6.4-3.3-9.3-10.2-13.8-20.3-27.8-30.5-41.7-.5,.4-1.1,.6-1.4,1.1-10.4,14.2-20.8,28.4-31,42.6-.9,1.3-1.4,3.2-1.4,4.9-.7,13.6-.9,27.2-2,40.7-.7,8.2,.8,14.7,8.1,19,.1,0,.2,.2,.3,.3,9.2,8.3,18.3,16.5,27.5,24.8,6.1-5.7,12.1-11.4,18.3-17,5-4.5,10.2-8.7,15.4-12.9,2-1.6,2.6-3.3,2.5-5.8Z"/>
    <path class="capeBgBot" d="M134.1,640.5c-1-.7-2.1-1.5-3.1-2.2-3.7-1.5-7.4-3.1-11.1-4.5-1.9-.7-4-1-6-1.5h0c-.5,1.5-1.1,2.9-1.5,4.3-4.2,19-8.3,38.1-12.6,57.1-2.8,12.1-5.9,24-8.9,36.1l-.3,1.5c-.3,.4-.7,.7-.9,1.2-1.6,6.6-2.9,13.3-5,19.8-1.2,3.7-.8,6.1,1.9,8.9,6.9,7.2,13.6,14.6,20.3,22,.5-1,1.1-1.9,1.3-3,1.3-6.1,2.6-12.2,3.9-18.3,5.2-24.3,10.3-48.5,15.6-72.8,3.5-15.7,7.3-31.3,11-47-1.6-.5-3.2-1-4.7-1.6h0Z"/>
    <path class="capeBgBot" d="M74.9,681.8c4.9-19.7,9.8-39.5,14.7-59.2-6.4-3-12.8-6.1-19.2-9.1-1.4-.3-2.8-.5-4.2-.8-1.1,3.4-2.2,6.9-3.2,10.3-3.2,12-6.1,24-9.4,36-3.4,11.9-7.2,23.7-10.9,35.6-.8,2.2-1.5,4.4-2.3,6.6,0,0,0,0,0,0h0c-.7,2.1-1.6,4.2-2.1,6.3-.2,1.1,0,2.6,.6,3.4,6.7,8,13.5,15.9,20.3,23.9,.4-.4,.9-.7,1.3-1.1,0-1.1,.1-2.2,.2-3.2h0s0,0,0,0c1-3.5,2-7,3.1-10.5,.1-.1,.2-.3,0-.4,.2-.6,.4-1.2,.5-1.8,.3-1,.6-2,.9-3,.3-1,.6-2,.9-3v-.2c0,0,0-.2,0-.2,.5-1.6,1-3.2,1.5-4.8h0c.2-.5,.4-1.1,.5-1.6,.3-1,.6-2,.9-3,.6-2,1.2-4,1.8-6,.2-.8,.4-1.7,.5-2.5,.2-.4,.3-.8,.5-1.2,0-.4,.1-.7,.2-1.1,.2-.4,.3-.8,.5-1.1,0-.4,.2-.8,.2-1.2,.2-.8,.5-1.7,.7-2.5,.2-.5,.3-1.1,.5-1.6h0c.2-.2,.2-.4,.2-.7,.2-.5,.3-1.1,.5-1.6,0,0,0-.1,0-.2,0,0,0,.1,0,.2,.2-.2,.2-.4,.2-.7h0Z"/>
    <path class="capeBgBot" d="M423.5,655c-5.8-18.8-11.4-37.6-17.1-56.4-5.8,3.7-11.5,7.4-17.3,11-.8,.5-1.8,.6-2.7,.9,1.7,6.8,3.4,13.6,5.2,20.3,4.1,15,8.3,30,12.6,45,.5,1.7,1.6,3.1,2.4,4.7,.5-.1,1.1-.1,1.4-.5,4.6-4.9,8.9-9.9,13.6-14.6,3.1-3.2,3.1-6.4,1.9-10.4Z"/>
    <path class="capeBgBot" d="M19.5,598.5c-6,19.8-12.1,39.6-18,59.4-.3,.9,.3,2.4,1,3.3,5.3,6.2,10.7,12.4,16,18.5,.8-1.8,1.6-3.6,2.4-5.4,4.6-15.9,9.2-31.8,13.7-47.8,1.5-5.3,3-10.5,4.5-15.8-1.9-1.5-3.7-3.3-5.8-4.5-4.5-2.7-9.2-5.1-13.9-7.6Z"/>
    <path class="capeBgBot" d="M258.9,512.7c10.9-19.2,22.1-38.4,33.8-57.1,7.8-12.5,16.8-24.4,25.2-36.5,6.8-9.8,13.5-19.7,20.6-29.2,5.4-7.3,11.3-14.1,17-21.2,3.3-4.2,6.6-8.4,10-12.6-1.7-9.3-3.4-18.6-5.1-27.8-2.6-14.5-6.3-28.9-6.5-43.8,0-2.8-1-5.5-1.5-8.3-.2,0-.4,0-.5-.2-5-1.5-10-3-15-4.4-3.5-1.3-6.1,.3-8.5,2.6-1,1-2.3,1.7-3.5,2.5-2.5,2.1-4.9,4.2-7.4,6.3-.3,.2-.5,.5-.8,.7-.5,.5-1,.9-1.6,1.4-.8,.8-1.6,1.5-2.4,2.3-3.6,6.5-7.5,12.9-10.9,19.6-6.2,12.3-12.1,24.8-18.1,37.1-3,6.3-6.3,12.5-9,18.9-4.5,10.7-8.6,21.5-12.9,32.3-.2,.6-.5,1.1-.8,1.6-2.3,7-4.6,13.9-6.8,21-5.2,16.9-10.4,33.8-15.6,50.7-6.7,21.6-13.3,43.2-20.2,64.7-1.3,4-3.9,7.7-5.9,11.4,0,.1-.5,.2-.6,.1-.2-.1-.2-.4-.3-.6-.2-.1-.5-.2-.7-.3-.5-.5-.9-.9-1.4-1.4-4.3-2.7-3.7-7.8-5.1-11.8-3.3-9.2-5.7-18.7-8.4-28.2-1.3-4.7-2.5-9.3-3.8-14-1.5-3.9-3.2-7.8-4.3-11.8-7.7-28.4-17.1-56.1-26.8-83.8-7.2-20.5-17.3-39.5-26.3-59.1-3.8-8.3-7.5-16.6-11.7-24.7-3.6-6.9-7.6-13.6-11.9-20.1-1.6-2.5-4.6-4.1-6.9-6.1-1.4-1.2-2.8-2.4-4.2-3.6-2.5-2-4.8-4.3-7.5-6-1.2-.8-3.2-1.1-4.6-.7-5.3,1.5-10.4,3.3-15.6,5.1,0,0,0,0,0,0-.3,1-.5,2.1-.8,3.1,0,.5,0,1,0,1.4,0,.3,0,.5,0,.8,0,.5-.1,1-.2,1.5,0,.3-.1,.6-.2,.8-2.1,13.4-4.1,26.9-6.3,40.3-1.8,10.6-3.9,21.1-5.8,31.6,17,19.5,32.7,40,47.2,61.4,8.4,12.4,17.4,24.6,25.4,37.3,12.1,19.3,23.9,38.8,35,58.7,5.3,9.4,8.9,19.7,13,29.8,8.8,21.8,17.5,43.7,26.2,65.5,.7,1.7,1.1,3.5,1.6,5.3,1.4,3.1,2.8,6.2,4.5,9.9,.9-2.2,1.7-4.1,2.5-6,11.1-27.2,22-54.3,33.2-81.5,3.5-8.4,6.9-16.9,11.3-24.7Z"/>
    <path class="capeBgBot" d="M178.8,612.2c-5.5-19.3-8.2-39.6-19-57.2-4.1-6.7-6.9-14.2-10.9-21-3.1-5.3-7.1-10.1-10.9-15-5-6.5-9.5-13.5-15.4-19.1-15.5-14.5-30.7-29.6-50-39.4-8.6-4.7-17.1-9.5-25.8-14.2-1.9-1-4-1.4-6-2.1-.2,1.1-.4,2.3-.7,3.4,0,.3-.2,.6-.3,.8,0,.2,0,.4-.1,.6-1.7,7.8-3.5,15.5-5.2,23.3-.2,.4-.4,.7-.6,1.1,0,.4,0,.7,0,1.1-.2,.8-.5,1.6-.7,2.4h0c-.2,1.1-.5,2.2-.7,3.2,0,.4,0,.8-.1,1.2-.2,.4-.4,.8-.6,1.2,0,.3,0,.7,0,1-.2,1.6-.4,3.1-.7,5.4,4.2-2,7.9-3.9,11.6-5.7,3.4-1.7,7-3.1,10.3-5.1,3.4-2,6-1.3,8.6,1.2,10.9,6.9,22,13.6,32.7,20.8,7.2,4.9,14.7,9.8,20.5,16.2,11.9,12.9,22.6,26.9,30.8,42.7,2.9,5.5,7.5,10.5,9,16.3,4.2,16.6,10.6,32.7,11.5,50.1,1.2,22.8,2.1,45.6-.8,68.4-1.1,8.2-1.7,16.3,4.3,23.3,2.5,2.9,4.3,6.5,6.3,9.8,.8-1,.9-1.9,1-2.7,.9-11.2,2-22.4,2.8-33.6,.9-11.7,2-23.4,2.2-35.1,.2-9.1-.9-18.2-1.5-27.3-.4-5.5,0-11.2-1.5-16.4Z"/>
    <path class="capeBgBot" d="M325.7,504.3c9.6-6.8,18.8-14.4,29.7-19.2,4.1-2.5,8.2-5.1,12.5-7.3,1.1-.6,3.1,0,4.4,.6,6.5,3.1,13,6.3,19.5,9.5,.8,.4,1.6,.6,3.2,1.3-1.2-6.3-2.3-11.9-3.3-17.6,0,0,0,0,0,0-.2-.7-.4-1.4-.6-2.1-1.3-5.1-2.5-10.3-3.8-15.4-.9-3.5-2.1-7-3.1-10.5-14.1,8.2-28.1,16.5-42.2,24.7-2.4,1.4-5.1,2.3-7.7,3.5-3.4,3.1-6.7,6.3-10.2,9.2-15.4,12.5-28.8,26.7-40.9,42.4-9.6,12.4-15.3,27-22.7,40.6-.2,.2-.4,.4-.5,.7-.6,1.3-1.2,2.6-1.8,3.8-.2,.2-.3,.4-.5,.6-.3,.3-.5,.6-.8,.9,0,.2-.1,.5-.2,.7-.7,2.3-1.4,4.5-2,6.8-.3,1-.5,2-.8,3-.6,2.5-1.2,5-1.7,7.5-.2,.5-.4,1-.5,1.5-.5,2.3-1.1,4.5-1.6,6.8-.2,.5-.4,1-.6,1.5-1.2,5-2.4,10-3.7,15,0,1-.2,2-.3,3-.8,13.7-1.7,27.4-2.5,41.1-.2,2.7-.4,5.5-.2,8.2,1.4,15.5,2.9,30.9,4.3,46.4,.5,5.2,1,10.4,1.7,16.6,3.6-5.3,6.4-9.8,9.6-13.9,2.9-3.8,3.1-7.7,2.6-12.3-1.8-17.5-5.5-34.8-3.6-52.7,1.6-14.4,.8-29,4.6-43.3,4-15.2,7.5-30.2,15.8-44,13-21.7,26.9-42.5,48-57.4Z"/>
  </g>
  <g id="capeTrim" class="capeTrim">
    <path class="capeTrim" d="M391.6,630.8c-1.9-6.7-3.5-13.5-5.2-20.3-.3-.7-.7-1.3-.8-2-4-15.3-8-30.7-12-46-5.5-21.4-11-42.9-16.5-64.3-2.4,.4-4.9,.9-7.3,1.3,.5,1.1,1.3,2,1.6,3.2,1.7,6.8,3.3,13.6,4.9,20.3,4.8,20.5,9.6,41,14.4,61.5,2.3,9.8,4.3,19.7,7,29.5,6.2,22.8,12.7,45.6,19.2,68.3,.5,1.9,2,3.4,3.6,6.1,2.5-3.2,4.4-5.5,6.2-7.8-.8-1.6-2-3-2.4-4.7-4.3-15-8.5-30-12.6-45Z"/>
    <path class="capeTrim" d="M74.1,498.9c-1.5-.3-3-.6-4.5-.8h0c-.7-.3-1.4-.5-2.2-.8-5.8,23.4-11.6,46.9-17.4,70.3-3.6,14.4-7.2,28.7-10.8,43.1-1.5,5.3-3,10.5-4.5,15.8-4.6,15.9-9.2,31.8-13.7,47.8-.8,1.8-1.6,3.6-2.4,5.4,1.1,1.2,2.2,2.4,3.4,3.4,3.7,3.4,6.2,2.6,7.5-2.3,1.6-5.6,3.2-11.2,4.6-16.8,6.3-24.6,12.6-49.2,18.6-73.9,5-20.7,9.7-41.5,14.5-62.3,2.3-9.7,4.6-19.3,6.9-28.9Z"/>
    <path class="capeTrim" d="M342.9,500.6c5.1-3.7,11.7-5.4,17.8-7.6,1.3-.5,3.2,.6,4.9,1,9.1,3.2,18.3,6.3,27.4,9.6,4.7,1.7,9.2,3.7,13.8,5.6,0-.5,0-1-.1-1.5-4.9-17.3-9.9-34.5-14.8-51.8-2.9-10.4-5.8-20.8-8.3-31.3-2.5-10.3-4.5-20.6-6.6-31-2.3-11.2-4.8-22.3-6.8-33.6-3.1-17.3-5.8-34.6-8.7-51.9-1.7-10.5-3.3-21-5-31.4,0,0,0,0,0,0,0,0,0,0,0,0,4.4,.8,8.9,1.6,13.3,2.4,.9,.1,1.9,.2,3,.4-.6-2.5-.9-4.3-1.4-6-1.5-5.9-2.9-11.8-4.4-17.8,0,0,0,0,0,0-.3-.6-.6-1.2-.9-1.8,0,0,0-.2,0-.2-.8-3.3-1.6-6.6-2.4-9.9,0,0,0,0,0,0-1.7-8-3.5-16-5.2-24.1,0,0,0,0,0,0-2.5-11.7-5-23.5-7.5-35.2-2.5-11.7-5.2-23.5-7.5-35.3-1.2-6.2-1.7-12.6-2.6-18.8-1.3-9-2.8-18-4.2-27.1-1-6.6-2.1-13.2-2.9-19.9-1.1-9-2.2-18.1-2.9-27.2-.4-4.7,.9-9.6-2.4-13.8-.7-.9-1-2.2-1.5-3.4,0,1.5,0,3-.1,4.6,.4,3.6-1.5,6.2-4.1,8.3-6.7,5.5-13.3,11.1-20.2,16.4-11.3,8.9-22.9,17.5-34.2,26.4-3,2.4-5.7,5.3-8.4,7.9-5.3,5.2-5.5,5.2-10.2-.5-2.7-2.6-5.3-5.2-8.1-7.7-1.5-1.3-3.1-2.6-4.9-3.2-6.6-2.5-13.4-4.6-20.1-7.1-3.3-1.3-6.3-1.4-9.6,.3-2.5,1.3-5.4,1.8-8.1,2.8-7.5,2.7-15.7,4.3-20.9,11.5-1.9,2.7-4.7,4.7-6.8,7.3-1.5,1.8-2.5,1.5-3.9,0-2.4-2.4-4.6-5-7.2-7.1-16.6-12.7-33.3-25.2-50-37.9-5.9-4.5-12.2-8.6-13.8-16.7,0-1,0-2-.1-3.1-.3,1-.6,2-.9,3-.2,.3-.4,.5-.5,.8-.6,2.8-1.7,5.6-1.9,8.4-.4,6.7,.1,13.5-.8,20.1-2.8,19.2-5.9,38.4-9.2,57.6-3,17.2-6.1,34.3-9.6,51.4-2.5,12.4-5.7,24.7-8.4,37.1-3.7,16.9-7.3,33.8-10.9,50.8-.7,3.4-1.3,6.9-2,10.7,5.7-1,10.6-1.9,16.2-2.9-.5,2.7-.8,4.8-1.2,6.8-.9,4.3-2.1,8.5-2.8,12.8-2.7,17-4.9,34.1-8.1,51-5.2,27.7-10.3,55.4-16.7,82.8-5.3,22.5-12.4,44.6-18.6,66.9-1,3.7-2,7.4-3,11.1,14-5.5,28-11,42.1-16.4,1.5-.6,3.4-.4,5,0,13.3,3.2,23.7,11.1,33.3,20.3,3.9,3.8,7.9,7.5,11.9,11.2,0,0,0,0,0,0,0,0,0,0,0,0-.2,.1-.3,.3-.5,.4,0,.2,0,.5,0,.7,0,0,0,0,0,0,0,0,0,0,0,0,0,.2,0,.3,0,.5,0,0,0,0,0,0-2,9.2-4,18.4-6,27.6-3.7,17.2-7.3,34.5-10.9,51.7-.3,1.3-.3,2.7-.4,4.1,0,0,0,0,0,0-1.1,4.3-2.1,8.6-3.2,13-4.9,19.7-9.8,39.5-14.7,59.2,0,.3,0,.5-.2,.7-.2,.5-.3,1.1-.5,1.6,0,.3,0,.5-.2,.7-.2,.5-.3,1.1-.5,1.6-.2,.8-.5,1.7-.7,2.5,0,.4-.2,.8-.2,1.2-.2,.4-.3,.8-.5,1.1,0,.4-.1,.7-.2,1.1-.2,.4-.3,.8-.5,1.2-.2,.9-.4,1.7-.5,2.5-.6,2-1.2,4-1.8,6-.3,1-.6,2-.9,3-.2,.5-.4,1.1-.5,1.6,0,0,0,0,0,0-.5,1.6-1,3.2-1.5,4.8,0,0,.1,.2,.1,.2v.2c-.4,1-.7,2-1,3-.3,1-.6,2-.9,3-.2,.6-.4,1.2-.5,1.8,0,.2,0,.3,0,.4-1,3.5-2,7-3.1,10.5,0,0,0,0,0,0,0,1.1-.1,2.2-.2,3.2-.4,.4-.9,.7-1.3,1.1,5.1,3.1,8.1,2.2,9.6-3.2,6.3-23,12.8-46,18.9-69.1,5.8-21.7,11.1-43.6,14.8-65.8,3.3-20.1,7.2-40.2,10.9-60.3,.3-1.4,1.4-2.6,2.1-4,.7,.3,1.4,.6,2.1,.9,.2,.7,.5,1.4,.7,2.1,3.5,4.3,7.1,8.5,10.6,12.8,.8,1.1,1.8,2.1,2.5,3.3,4.6,8.5,9.1,17.1,13.5,25.7,.3,.5,.3,1.2,.4,1.8,1.3,3.5,2.5,7,3.8,10.4,.2,.5,.4,1,.6,1.6h0c-.4,.2-.7,.5-1.1,.7,0,.3-.2,.6-.3,.9h0c-3.2,16.5-6.4,33-9.5,49.5-3.7,15.7-7.5,31.3-11,47-5.3,24.2-10.4,48.5-15.6,72.8-1.3,6.1-2.5,12.2-3.9,18.3-.2,1-.9,2-1.3,3,1.8,.8,3.5,1.5,5.3,2.3,.5,0,1.3,0,1.4-.3,.9-2.4,2-4.8,2.6-7.3,2.7-11.2,5.4-22.4,7.8-33.6,5.4-25.2,10.8-50.4,15.9-75.6,3.9-19.6,7.2-39.4,10.9-59.1,.3-1.4,1.7-2.7,2.6-4,3.1,8.7,4.2,17.6,4.3,26.7,.2,9.7,.9,19.4,1.1,29.1,.1,6,.4,12-.3,17.9-2.5,20.9-4.9,41.8-8.1,62.6-3.1,20.4-6.9,40.7-10.6,61-.5,2.9,.2,4.9,1.8,6.8,4.2,4.7,8.5,9.4,13.1,13.8,17.7,17.1,35.6,34.2,53.4,51.2,1.3,1.2,3,1.9,4.6,2.9,1.3-.9,2.7-1.8,3.8-2.8,11-10,22.1-19.8,32.8-30.1,11.2-10.7,22-21.8,33-32.8,1.6-1.6,3.6-2.8,2.9-5.9-1.9-8.4-3.6-16.9-5.1-25.5-2.1-12.5-4-25.1-6-37.6-.8-5.1-1.5-10.2-2.2-15.3-1-7-2.2-13.9-3-20.9-.9-7.3-1.5-14.7-2.2-22-.3-3.2-.2-6.5-.4-9.7,0-7.1,0-14.3,0-21.4-.2,1-.3,1.6-.4,1.9,0-.3,.2-.9,.4-1.9,.2-3.1,.5-6.3,.5-9.4,0-9.6-1.6-19.3,1.9-28.7,1.1-2.9,2.4-5.7,3.6-8.5,0,0,0,0,0,0,0,0,0,0,0,0,.2,.5,.5,.9,.5,1.4,4.1,21.4,8.2,42.8,12.2,64.2,2.7,14.1,5.1,28.2,8.2,42.2,4.3,19.5,9,38.8,13.6,58.2,1.2,5,2.8,9.9,4.4,15.6,3.1-1.9,5.3-3.1,7.5-4.4-.6-1.3-1.4-2.5-1.7-3.9-8-35.2-16-70.4-23.9-105.7-1.9-8.4-3.6-16.8-5.4-25.1-.2-.4-.3-.8-.5-1.2,0-.6-.2-1.2-.3-1.8-.1-.4-.3-.8-.4-1.2-.2-.7-.3-1.5-.5-2.2-3.1-16.2-6.3-32.4-9.5-48.6-.1-.6-.4-1.1-.6-1.7t0,0c.8-3.5,1-7.2,2.4-10.4,2.7-6.5,6-12.8,9.1-19.2,.4-.8,1.3-1.4,2-2.1,1.8-3.5,3.6-7,5.5-10.6,3.5-4.6,7-9.2,10.5-13.8,.9-1.2,1.9-2.2,2.9-3.3,.2,0,.4,0,.6-.1,.6,.9,1.5,1.7,1.7,2.6,2.1,10.4,4,20.8,6.1,31.2,3.5,18,6.6,36,10.6,53.9,3.3,15.2,7.5,30.2,11.4,45.2,6.1,23.1,12.2,46.2,18.4,69.3,.2,.9,1.2,2.4,1.8,2.4,2.6,0,5.2-.5,7.8-.8-.4-.9-1-1.7-1.2-2.6-8.3-29.8-16.5-59.6-24.7-89.4-2-7.2-3.6-14.5-5.4-21.7-2.3-11-4.6-21.9-6.9-32.9-4.5-21.3-8.9-42.7-13.4-64,0-.5-.1-.9-.2-1.4q-.9,1,0,0s.2,0,.2,0c.5-.6,1-1.2,1.5-1.8,.2-.2,.4-.3,.6-.5,.5-.5,1.1-1,1.6-1.5h0c8-6.9,15.5-14.4,24-20.6ZM68.8,217.5c0-.3,0-.5,0-.8h0c1.6-6.9,3.2-13.7,4.7-20.6,4.5-20.7,8.9-41.4,13.4-62,.1-.5,.4-.9,.6-1.4,1.4-11.9,2.7-23.7,4.1-35.6,1.1-9.1,2.3-18.3,3.4-27.4,.1-.8,.4-1.6,.7-2.5v-7.3c2.8,2.6,4.6,4.5,6.6,6,7,5.1,14.1,9.9,21.1,15.1,3.3,2.4,6.2,5.4,9.2,8.1,1.7,1.6,3.4,3.1,5.1,4.7h0c5.7,4.6,11.3,9.3,17,13.8,5.9,4.7,12,9.3,18,13.9,.6-.8,1.3-1.5,1.9-2.3,.5-.9,.9-1.8,1.4-2.8,3.4-3.9,6.6-8,10.2-11.7,2-2.1,4.3-4.1,6.9-5.2,4.5-2,9.4-3.3,14.1-4.8-.4-.1-.7-.3-1-.4,.3,.1,.7,.2,1,.4,2-.2,4-.8,5.9-.4,4.8,1.1,9.7,2.5,14.3,4.1,2.9,1,6.1,2.1,8.2,4.1,3.7,3.5,6.6,7.7,9.9,11.6,.2,.3,.4,.5,.7,.8,0,0,0,0,0,0,.2,.2,.4,.4,.6,.7,0,0,.1,.1,.1,.1,.5,.7,1,1.4,1.5,2.1,0,0,0,0,0,0,.2,.2,.5,.5,.7,.7,0,0,0,0,0,0,.3,.2,.5,.4,.8,.7,.2,.3,.5,.5,.7,.8,.7,0,1.5,0,2.2,0h0c7-5.9,14-11.8,21-17.6,1.8-1.5,3.9-2.6,5.8-3.8,3.8-3.4,7.5-6.8,11.3-10.2,5.8-4.6,11.3-9.8,17.6-13.6,5.7-3.5,10.6-7.8,15.2-12.5,.9-.9,1.9-1.7,3.6-3.2,.7,4.7,1.2,8.5,1.7,12.2,0,.5,0,1.1,0,1.6,0,.5,0,1,.1,1.4,.4,2.3,.9,4.5,1.3,6.8,1.7,11.7,3.5,23.4,5.2,35.2,.7,4.8,1.1,9.6,1.7,14.3,2.5,12,4.9,24,7.4,35.9,3.5,16.5,7,33.1,10.5,49.6,.1,.5,.1,1,.2,1.5-1.3,1-2.6,2-3.9,3,0,0,0,0,0,0h0c-2.1,1.7-4.1,3.4-6.2,5.1,0,0,0,0,0,0-1.1,.5-2.2,1-3.2,1.6-2.9,1.8-5.7,3.6-8.5,5.4-.6,.7-1.2,1.4-1.9,2.1-6.4,7-12.8,14-19.2,20.9,0,0,0,0,0,0,0,0,0,0,0,0-.5,.3-1,.5-1.5,.8-1,1.4-2.1,2.7-3,4.1-4.5,6.6-9.1,13.2-13.6,19.7-.8,.9-1.6,1.9-2.4,2.8-2.7,3.6-3.7,3.5-6.1-.3-2.9-4.6-5.9-9-9.2-13.9-1,1.1-1.8,1.9-2.5,2.6-3,3.2-5.9,6.5-8.9,9.8-8.4,10.8-16.8,21.6-25.2,32.4-3.2,4.1-6.1,8.3-9.2,12.5-.8,1-1.6,1.9-2.4,2.9-.8,.3-2.2,1.1-2.4,.8-4.2-4.6-8.2-9.3-12.3-14-1.3,.5-2.7,1.1-4,1.7-3.5,3.4-6.9,6.7-10.4,10.1-1.1,.9-2.3,1.8-3.6,2.9-1.6-2-3.2-3.9-4.7-5.8-.2-.4-.4-.9-.7-1.3-8.7-11.4-17.4-22.7-26.1-34.1-.2-.3-.5-.5-.7-.8-.5-.7-1.1-1.4-1.6-2.2-.7-.7-1.4-1.5-2.1-2.2-.2-.3-.4-.5-.6-.8-2.3-3-4.6-5.9-6.9-8.9h0c-1.6-1.5-3.3-3-5.2-4.8-4.3,5.7-8.4,11.2-12.8,16.9-2.9-3.6-5.5-6.9-8.2-10.1,0,0,0,0,0,0-2.5-3.9-5.1-7.8-7.6-11.8-5.8-7-11.6-14-17.4-21-.4-.3-.9-.6-1.3-.9-.2-.3-.5-.5-.7-.8-.5-.5-1-1-1.5-1.5-.6-.6-1.1-1.4-1.7-1.9-6.2-4.6-12.3-9.2-18.5-13.8-.5-.3-1-.5-1.5-.8-1.5-1.1-2.9-2.1-4.4-3.2-1-.7-2-1.4-3-2.1,0-.5-.1-1-.2-1.4,0-.2-.2-.4-.2-.6,0,.2,.1,.4,.2,.6ZM215,478.5c-.9,2.8-1.8,5.6-2.8,9-3.1-10.7-6.1-20.8-9.1-30.9,0,0,0,0,0,0-2.3-8.9-4.6-17.8-7-26.7-2-7.4-4.1-14.9-5.9-22.3-.4-1.5,0-3.4,.8-4.7,2.8-5.1,5.9-10.1,8.9-15.1,0,0,0,0,0,0,3.5-5.3,6.9-10.6,10.4-15.9h0c.6-.8,1.2-1.7,1.8-2.6,.5,.6,.9,1.3,1.4,1.9,.2,.2,.5,.5,.7,.7l.6,.9c.6,1,1.1,2,1.7,3h0c2.5,3.8,4.9,7.5,7.4,11.3,3,5.1,6.2,10.1,8.9,15.3,.9,1.7,1.4,4.2,.9,6.1-2.4,10.4-5.2,20.7-7.8,31,0,0,0,0,0,0-.2,.7-.4,1.5-.6,2.2l-1.2,1.7c0,.5-.1,1-.2,1.6-.2,.2-.3,.4-.5,.6,0,.8-.2,1.6-.3,2.3-.2,.2-.3,.4-.5,.7,0,.5,0,1.1,0,1.6-.3,.5-.6,1-.8,1.4-.7,2.8-1.4,5.6-2.1,8.3-1.5,6.2-3.1,12.5-4.6,18.7,0,0,0,0,0,0Zm-33.8-93.1c0-.2-.1-.4,0-.5-1.7-3.8-3.4-7.6-5.1-11.5,0-.2-.1-.4-.1-.6-2.1-2.4-2.3-4.5,0-7,5.2-5.4,10.3-11,15.4-16.5,.4-.4,1.1-.5,1.6-.7h0c1.3-1.5,2.5-2.9,3.8-4.3,0,0,0,0,0,0,2.1,4.8,4.1,9.6,6.4,14.2,1.4,2.8,1.4,5.3-.3,8-2.7,4.2-5.1,8.5-7.7,12.8q.7,1.3,0,0c-3.3,5-6.6,10-10.4,15.8-.7-2.2-1.1-3.7-1.6-5.1h0c-.7-1.6-1.4-3.1-2.2-4.6Zm-16.4-40.5c0-.2-.1-.4-.1-.6-.7-1.5-1.5-3.1-2.2-4.6l-.8-2.2c-.3-.3-.5-.5-.8-.8,0,0,0,0,0,0-.2-.5-.5-1.1-.7-1.6-.2-.3-.4-.6-.6-.9,0-.4,0-.9,0-1.3-.3-.7-.6-1.5-.9-2.2-.5-1-.9-2-1.4-3.1-3.8-7.2-7.5-14.5-11.3-21.7-.3-.5-.5-1-.8-1.5-.5-1-1-1.9-1.5-2.9-.2-.3-.4-.6-.7-.9,0-.2-.1-.4-.1-.6-.2-.3-.4-.6-.7-.9h0c-.3-.5-.5-1-.8-1.5-.3-.5-.5-1-.8-1.5,0-1,0-2,0-3.1,1-1.5,2-3,3-4.5,.8-1,1.5-2,2.3-3h0c.6-.9,1.2-1.9,2.1-3.4,3,3.6,5.8,6.8,8.3,10.2,9.5,12.5,19,25.1,28.4,37.6,0,0,0,0,0,0,0,0,0,0,0,0,1,1.6,1.8,3.3,3.1,4.6,2.6,2.6,2.2,4.7-.3,7.2-4.6,4.8-8.9,9.9-13.4,14.9-.8,.9-1.7,1.7-3,2.8-.6-1.4-1-2.4-1.4-3.4-.3-.5-.5-1-.8-1.5-.5-1-.9-2.1-1.4-3.1-.3-.7-.5-1.5-.8-2.2-.5-1.2-1-2.5-1.5-3.7h0c-.2-.3-.4-.6-.7-.8Zm38.1-9.2c.5-.5,.9-.9,1.4-1.4,2.3-2.7,4.6-5.4,7-8.1,.8,.4,1.8,.6,2.4,1.2,1.4,1.4,2.3,3.3,3.8,4.5,4.6,3.7,6.5,7.7,2.6,13-2.6,4.4-5.1,8.8-8,13.7-.9-1.4-1.7-2.4-2.3-3.5-2.5-4.4-4.8-9-7.5-13.3-1.5-2.3-1.2-4.1,.6-6Zm27,45.1h0c-2.3-3.7-4.5-7.5-6.8-11.2-5.7-5.9-2.4-11.6,.6-17.3,0-.2,0-.4,0-.6,0,0,.2-.1,.3-.2,.1-.2,.2-.5,.3-.7q-.8-.8,0,0c1.2-2,2.3-3.9,3.7-6.3,2.2,2.2,4.4,4.2,6.5,6.3,4.2,4.6,8.2,9.3,12.6,13.7,2.7,2.7,3.2,4.8,1.4,8.4-3.1,6.3-5.3,13-8,19.6-.3,.8-.7,1.5-1.2,2.4-3.2-4.9-6.3-9.5-9.3-14.1Zm9.7-35.2s0,0,0,0c-2-2.2-4-4.3-5.9-6.4,1.3-2.3,2.5-4.3,3.7-6.4,4.3-6.1,8.3-12.4,12.9-18.2,8.2-10.4,16.8-20.6,25.3-30.9,.4-.5,.9-.8,2-1.6,2.4,3.8,4.8,7.4,6.8,11.1,.4,.8-.3,2.4-.9,3.4-3.3,6.2-6.8,12.2-9.9,18.4-6.7,14-13.2,28.1-19.8,42.1-.3,.5-.6,1.1-1.2,2.2-4.5-4.8-8.8-9.4-13-13.9ZM67.5,243.2c-1.1-.7-2.1-1.6-3.1-2.5-.1,0-.2,.2-.3,.3,.1,0,.2-.2,.3-.3,0-.5-.1-1-.2-1.5,0-.2-.1-.4-.2-.6,0,.2,0,.4,.2,.6,0-.3,0-.5,.1-.8v-1.3c.3-.3,.4-.6,.6-.9l.2-2.1c.5-1.8,.9-3.6,1.4-5.4h0s0,0,0,0h0c1.3-2.3,2.5-.7,3.7,0,0,0,0,0,0,0,1.5,1,2.9,2,4.4,3.1,1.1,.9,2.1,1.9,3.2,2.8,4,2.8,7.9,5.5,11.9,8.3q.2-1.4,0,0s0,0,0,0c1,.8,2,1.6,3,2.3,4.3,5,8.5,9.9,12.8,14.9,1.2,1.1,2.5,2.1,3.5,3.3,4.9,6.6,9.7,13.3,14.5,19.9,1.5,2.5,3,5,4.5,7.5,0,0,0,0,0,0,.2,.3,.5,.5,.7,.8,.3,.5,.6,.9,.8,1.4,1.2,2,2.5,4,3.7,6,0,0,0,0,0,0,1.3,2.2,2.5,4.5,3.8,6.7,.3,.5,.5,1,.8,1.5,.5,.8,.9,1.5,1.4,2.3,.3,.5,.5,1,.8,1.5,.5,1,1,2,1.5,3,0,0,0,0,0,0,1,1.7,2,3.5,3,5.2,0,0,0,0,0,0,1.3,2.2,2.5,4.5,3.8,6.7,.3,.5,.5,1,.8,1.5,2.2,5,4.5,10,6.7,15,.2,.5,.5,1,.7,1.5,1.7,3.5,3.3,7,5,10.6,0,0,0,0,0,0,.6,2,1.2,4,1.8,6,0,.2,.1,.3,0,.5,.6,.9,1.3,1.8,1.8,2.8,4.9,12.2,9.9,24.4,14.7,36.7,2.6,6.6,4.9,13.3,7.3,19.9,3,9.3,6,18.6,8.9,27.9,1.2,3.7,2.3,7.4,3.5,11.1,.4,1.2,.7,2.5,1.1,3.7,.2,.5,.4,1,.6,1.6,3.3,13.4,6.6,26.7,9.9,40.1,0,.4,.9,.6,1.3,.9,1.3-5.2,2.6-10.4,3.9-15.5,.2-.6,.5-1.1,.7-1.7,2.8-10.1,5.5-20.3,8.3-30.4,.2-.6,.5-1.1,.7-1.7,0-.2,0-.4,0-.6,.6-1.3,1.3-2.7,1.8-4.1,4.2-13.9,8.2-27.8,12.7-41.6,3-9.1,6.5-18,10-26.8,4.9-12.1,10-24.1,15.1-36.1,3.6-8.4,6.8-16.9,11.2-24.8,7.3-13.3,15.4-26.1,23.1-39.2,3.5-4.5,7-9.1,10.5-13.6,2.5-3.5,5-7,7.4-10.5,2.2-2.6,4.8-5,6.7-7.9,3.6-5.3,9.1-8.3,14.2-11.7,3.3-2.7,6.7-5.4,10-8,1.7-1.3,3.4-2.6,5.1-3.9,.9-.5,1.9-1,3.2-1.8,1.2,4.2,2.7,8,3.1,12,.2,1.4-2.2,3.1-3.5,4.7q.5,.6,0,0c-1.4,1.1-2.9,2.1-4.3,3.2,0,0,0,0,0,0-3.2,2.3-6.5,4.5-9.7,6.8-.4,.3-.9,.5-1.3,.8-.3,.2-.6,.4-.9,.7-2.5,2.2-5,4.5-7.6,6.7,0,0,0,0,0,0-1,.8-2,1.5-3,2.3-.5,.5-.9,1-1.4,1.4h0c-3.9,3.9-7.9,7.7-11.8,11.5-.2,.2-.4,.4-.6,.6-.4,.4-.7,.8-1.1,1.2-.7,.6-1.3,1.2-2,1.8-21.5,32.8-37.3,68.5-52.2,104.6-5.1,12.3-10.4,24.6-14.7,37.2-5.2,15.4-9.6,31.2-14.2,46.8-4.9,16.9-9.6,33.8-14.6,50.7-.7,2.4-2.7,4.4-4.1,6.6-.5,.7-1,1.4-1.6,2.1h0c-6-8.1-6.8-18.1-9.7-27.3-6.8-21.8-13-43.9-20.1-65.6-5.9-18-12.9-35.6-19.3-53.4-.5-1.4-.8-2.9-1.3-4.3h0c-.8-2-1.5-4-2.3-6h0c-3.7-7.7-7.4-15.3-11-23-1.1-2.3-2.1-4.7-3.1-7.1-.1-.1-.2-.3-.1-.5-3.2-6.3-6.5-12.6-9.7-19-.3-.5-.5-1-.8-1.5-1.5-2.7-3-5.5-4.5-8.2-.3-.5-.5-1-.8-1.5-.5-1-1-2-1.5-3,0,0,0,0,0,0-3.3-5.4-6.6-10.9-10-16.3-.8-1.3-1.7-2.4-2.6-3.6,0,0,0,0,0,0-4.5-5.4-9-10.9-13.6-16.2-2.5-2.9-5.4-5.5-8.1-8.3h0c-.3-.5-.7-1-1-1.4-5.7-4.4-11.3-8.7-17-13.1-.8-.6-1.6-1.2-2.3-1.8-1.9-1.2-3.9-2.4-5.8-3.7Zm124.2,241.8c-.4-2.2-.8-4.4-1.3-6.5,.5,2.2,.9,4.3,1.3,6.5ZM47.2,415.1c3.8-18.9,7.5-37.8,11.3-56.7,0-.5,.4-.9,.5-1.4,2-10.5,4.1-21.1,5.8-31.6,2.2-13.4,4.2-26.8,6.3-40.3,0-.3,.1-.6,.2-.8,0-.5,.1-1,.2-1.5,0-.2-.1-.4-.2-.6,0,.2,.1,.4,.2,.6,0-.3,0-.5,0-.8,0-.5,0-1,0-1.4q-.8-.7,0,0c.3-1,.5-2.1,.8-3.1h0q0-.8,0,0c5.2-1.7,10.4-3.6,15.6-5.1,1.4-.4,3.4-.1,4.6,.7,2.7,1.7,5,4,7.5,6,1.4,1.2,2.8,2.4,4.2,3.6,2.4,2,5.3,3.6,6.9,6.1,4.3,6.5,8.3,13.2,11.9,20.1,4.2,8.1,7.9,16.4,11.7,24.7,9,19.6,19.1,38.6,26.3,59.1,9.7,27.7,19.1,55.5,26.8,83.8,1.1,4,2.9,7.9,4.3,11.8h0c1.3,4.7,2.5,9.4,3.8,14,2.7,9.4,5.2,18.9,8.4,28.2,1.4,4,.8,9,5.1,11.8,.5,.5,.9,.9,1.4,1.4,.2,.1,.5,.2,.7,.3,0,.2,.1,.5,.3,.6,.1,0,.5,0,.6-.1,2-3.8,4.6-7.4,5.9-11.4,6.9-21.5,13.5-43.1,20.2-64.7,5.2-16.9,10.4-33.8,15.6-50.7,2.2-7,4.5-14,6.8-21,.3-.5,.6-1,.8-1.6,4.3-10.8,8.4-21.6,12.9-32.3,2.7-6.4,6-12.6,9-18.9,6-12.4,11.9-24.8,18.1-37.1,3.3-6.7,7.2-13,10.9-19.6,.8-.8,1.6-1.5,2.4-2.3,.5-.5,1-.9,1.6-1.4,.3-.2,.5-.5,.8-.7,0,0,0,0,0,0,2.5-2.1,4.9-4.2,7.4-6.2,1.2-.8,2.5-1.5,3.5-2.5,2.4-2.4,4.9-4,8.5-2.6,5,1.5,10,3,15,4.4,.1,.2,.3,.2,.5,.2,0,0,0,0,0,0,0,0,0,0,0,0,.5,2.8,1.5,5.5,1.5,8.3,.2,14.9,3.9,29.3,6.5,43.8,1.7,9.3,3.4,18.6,5.1,27.8,4.9,23.3,9.9,46.6,14.8,69.9,.6,2.7,.9,5.4,1.4,8.1,0,0,0,0,0,0-4.8,2.3-9.7,4.4-14.4,7-8.7,4.8-17.2,9.9-25.7,15.1-5,3-9.7,6.5-14.5,9.7-.8,.7-1.5,1.4-2.3,2.1-.5,.5-1.1,1-1.6,1.5-.2,0-.4,0-.6,0-.7,.5-1.4,1.1-2.2,1.6h0c-.5,.5-1.1,1-1.6,1.5-.5,.5-1,1-1.5,1.5-1.2,1-2.5,2.1-3.7,3.1-.5,.5-1,.9-1.5,1.4-1.5,1.3-3,2.5-4.5,3.8,0,0,0,0,0,0-1.5,1.3-3,2.5-4.5,3.8-3.5,3.5-7,7-10.5,10.5-.2,.2-.4,.5-.6,.7-1.2,1.3-2.5,2.6-3.7,3.8h0c-.3,.2-.5,.5-.8,.8-4.9,5.9-9.8,11.9-14.6,17.8-1.5,1.9-3.3,3.7-4.3,5.9-5.6,11.9-11,23.8-16.5,35.7l-1.7,3.2c-.3,.8-.7,1.6-1,2.4q.5,2.1,0,0c-2.4,7.7-4.8,15.4-7.2,23.1-.2,.7-.4,1.4-.6,2.1l-2,5.5c-.3,1.2-.6,2.4-1,3.6h0c-.4,.8-.9,1.6-1.3,2.5,0,.7-.1,1.4-.2,2.2,0,0,0,0,0,0-.2,0-.4,0-.5,.1-.2,1-.5,1.9-.7,2.9,0,1-.2,2-.2,3,0,1.5,0,3,0,4.5,0,.2,0,.5,0,.7,0,.5,0,1,0,1.5-.2,5.2-.4,10.5-.6,15.7,0,.5,0,1,0,1.5,0,.2,0,.5,0,.7,0,.8,0,1.5,0,2.3,0,.5,0,1,0,1.4,0,.5,0,1,0,1.6,.1,.2,.1,.5,0,.7-.2,6.3-.5,12.5-.7,18.8,.1,.2,.1,.5,0,.7,0,1,.1,2,.2,3,0,.3,0,.5,0,.8,0,.5,0,1,0,1.5,.2,1,.4,2,.6,3,0,.5,0,1,.1,1.5,.2,.8,.3,1.5,.5,2.3,0,1.2,.2,2.5,.3,3.7,.4,3.5,.9,7,1.3,10.5l.8,6.8c.2,2.2,.5,4.5,.7,6.7,0,.5,0,1,0,1.5,.3,2.3,.7,4.5,1,6.8,.1,.8,.2,1.5,.3,2.3,.5,5.7,1.1,11.5,1.6,17.2,0,.7,0,1.5,.1,2.2,.1,.8,.3,1.5,.4,2.3,0,1,.1,2,.2,3,.2,2.2,.4,4.5,.6,6.7,0,.5,0,1,.1,1.5,.5,4.8,1.1,9.5,1.6,14.3-.3,.1-.6,.3-.9,.4-1.7-2.6-3.5-5.2-5.2-7.8h0c-1.3-1.7-2.5-3.5-3.8-5.2h0c-1.8-2.5-3.5-5-5.3-7.4h0c-.5-.6-.9-1.1-1.4-1.6h0c-.5-.7-1.1-1.5-1.6-2.2-.2-.3-.4-.5-.6-.8-2.9-3.8-5.8-7.7-8.7-11.5-.7-1-1.6-1.8-2.4-2.8,0,0,0,0,0,0-.5-.8-1.1-1.5-1.6-2.3-.7,0-1.4,0-2.2,0-6.3,8.7-12.6,17.5-18.9,26.2-3.5,4.8-7,9.6-11.5,14.1,.7-7,1.3-13.9,2-20.9,0-.7,.1-1.5,.2-2.2,.1-1,.2-2.1,.3-3.1,0-.5,0-1,.1-1.4,.9-9.9,1.7-19.9,2.6-29.8,1.4-16.3,4.9-32.4,4.1-48.8-.7-14.2-.9-28.5-2.3-42.6-.7-7.2-3.6-14.2-5.5-21.3-1.2-4.5-2.7-8.8-3.7-13.3-2.6-11.9-9.9-21.7-14.5-32.7-8.2-19.3-21.8-34.8-35.9-49.3-15.2-15.7-31.1-31.1-51.1-41.1,0,0,0,0,0,0-4.6-2.8-9.2-5.7-13.9-8.4-6.5-3.6-13.1-7-19.6-10.4,1.3-6.1,2.5-12.3,3.8-18.4Zm70.3,118.2s0,0,0,0c0,0,0,0,0,0h0Zm51.9,184c-6.1-7-5.4-15.1-4.3-23.3,2.9-22.8,2-45.6,.8-68.4-.9-17.4-7.3-33.5-11.5-50.1-1.5-5.8-6.1-10.8-9-16.3-8.2-15.7-18.9-29.7-30.8-42.7-5.8-6.3-13.3-11.3-20.5-16.2-10.7-7.3-21.8-13.9-32.7-20.8,0,0,0,0,0,0-2.6-2.5-5.2-3.2-8.6-1.2-3.3,2-6.9,3.4-10.3,5.1-3.7,1.8-7.4,3.6-11.6,5.7,.3-2.3,.5-3.8,.7-5.4,0-.3,0-.7,0-1,.2-.4,.4-.8,.6-1.2,0-.4,0-.8,.1-1.2,.2-1.1,.5-2.2,.7-3.3,0,0,0,0,0,0,.2-.8,.5-1.6,.7-2.4,0-.4,0-.7,0-1.1,.2-.4,.4-.7,.6-1.1,1.7-7.8,3.5-15.5,5.2-23.3,.1-.2,.2-.4,.1-.6,0-.3,.2-.6,.3-.8,.2-1.1,.4-2.3,.7-3.4,0,0,0,0,0,0,2,.7,4.2,1.1,6,2.1,8.6,4.6,17.2,9.4,25.8,14.2,19.3,9.7,34.5,24.8,50,39.4,5.9,5.5,10.4,12.6,15.4,19.1,3.8,4.9,7.7,9.7,10.9,15,4,6.8,6.8,14.3,10.9,21,10.8,17.6,13.5,37.9,19,57.2,1.5,5.2,1.1,10.9,1.5,16.4,.6,9.1,1.6,18.2,1.5,27.3-.2,11.7-1.3,23.4-2.2,35.1-.8,11.2-1.9,22.4-2.8,33.6,0,.8-.2,1.6-1,2.7-2.1-3.3-3.8-6.9-6.3-9.8Zm76.9,120c-5.2,4.2-10.4,8.4-15.4,12.9-6.2,5.5-12.2,11.3-18.3,17,0,0,0,0,0,0,0,0,0,0,0,0-9.2-8.3-18.3-16.5-27.5-24.8,0,0-.2-.2-.3-.3-7.3-4.4-8.8-10.9-8.1-19,1.2-13.5,1.3-27.1,2-40.7,0-1.7,.5-3.5,1.4-4.9,10.3-14.3,20.7-28.4,31-42.6,.3-.5,.9-.7,1.4-1.1,0-.6,0-1,0-1.1,0,.1,0,.5,0,1.1,10.1,13.9,20.2,27.8,30.5,41.7,2.1,2.8,3.2,5.7,3.3,9.3,.6,15.6,1.4,31.2,2.3,46.7,.1,2.5-.4,4.2-2.5,5.8Zm31.4-275.5c-8.2,13.8-11.7,28.9-15.8,44-3.8,14.3-3,28.9-4.6,43.3-1.9,17.9,1.8,35.2,3.6,52.7,.5,4.6,.2,8.5-2.6,12.3-3.2,4.2-5.9,8.6-9.6,13.9-.6-6.2-1.2-11.4-1.7-16.6-1.5-15.5-3-30.9-4.3-46.4-.2-2.7,0-5.5,.2-8.2,.8-13.7,1.6-27.4,2.5-41.1,0-1,.2-2,.3-3,1.2-5,2.4-10,3.7-15,.2-.5,.4-1,.6-1.5,.5-2.3,1.1-4.5,1.6-6.8,.2-.5,.4-1,.5-1.5,.6-2.5,1.2-5,1.7-7.5,.3-1,.5-2,.8-3,.7-2.3,1.4-4.5,2-6.8,0,0,0-.2,0-.3,0,0,0,.2,0,.3,0-.2,.1-.5,.2-.7h0c.3-.3,.5-.6,.8-.9,.2-.2,.3-.4,.5-.6,.6-1.3,1.2-2.6,1.8-3.8,.2-.2,.4-.4,.5-.7,7.4-13.6,13.1-28.2,22.7-40.6,12.1-15.7,25.5-29.9,40.9-42.4,3.6-2.9,6.8-6.1,10.2-9.2q-1.9,.6,0,0c2.6-1.2,5.3-2.1,7.7-3.5,14.1-8.2,28.2-16.4,42.2-24.7,1,3.5,2.2,7,3.1,10.5,1.3,5.1,2.5,10.3,3.8,15.4,.2,.7,.4,1.4,.6,2.1h0c.5,.8,1.2,1.6,1.8,2.3-.6-.8-1.3-1.5-1.8-2.3,1.1,5.6,2.1,11.3,3.3,17.6-1.6-.7-2.4-.9-3.2-1.3-6.5-3.2-12.9-6.4-19.5-9.5-1.3-.6-3.3-1.2-4.4-.6-4.3,2.2-8.3,4.8-12.5,7.3-10.9,4.8-20.1,12.4-29.7,19.2-21.1,15-35,35.7-48,57.4Z"/>
    <path class="capeTrim" d="M136.8,41.2c6.6,6,14.8,9,22.6,12.9,.9,.5,1.6,1.3,2.4,2,.5,0,1,0,1.4,.1,1.5,.5,3,.9,4.5,1.4,.5,0,1,.1,1.5,.2,.3,.2,.5,.4,.8,.6,.2,0,.5,0,.7,0,.5,.2,1,.4,1.6,.7,1.2,.3,2.4,.6,3.7,.8,.2,0,.5,0,.7,0,.8,.2,1.5,.4,2.3,.6,.5,.2,1,.5,1.5,.7,1,.3,2,.6,3,.9,8.9,1.2,17.8,2.6,26.7,3.5,3.1,.3,6.4-.4,9.5-.8,11.6-1.6,23.2-3.5,34.3-7.4,5.3-1.9,10.4-4.4,15.6-6.7q-1.1-.4,0,0c6-3.5,11.9-7,17.9-10.5h0c3.2-3,6.5-6,9.7-9,.6-.7,1.1-1.4,1.7-2.2,1.5-3,3-6,4.5-9.1-2.5-1.5-5.1-2.9-7.6-4.4,.7,3-.6,5.3-2.9,7.2-1.4,1.1-2.8,2.1-4,3.3-9.7,9.6-21.2,16-34.3,19.6-.7,.4-1.5,.8-2.2,1.2-.5,0-1,.2-1.5,.3-2.1,.9-4,2.1-6.2,2.8-5.4,1.6-10.4,4.6-16.3,4-1.2-.1-2.4,.9-3.6,1.4q3,1,0,0c-1.3,0-2.5,0-3.8,.1,0,0,0,.1,0,.2,0,0,0-.1,0-.2-3.9,0-7.8,.2-11.7,.2-2.3,0-4.6-.1-7-.2-1,0-2.1,0-3.1-.1q-1.7,.4,0,0c-2.2-.3-4.4-.5-6.6-.8-.5,0-2.3-.7-2.8-.8-11.8-4.2-23.6-8.4-35.3-12.7-1.9-.7-3.5-2-5.3-3.1-1.3-1-2.6-2.1-3.9-3.1-1-.2-1.9-.5-2.9-.7,0,0,0,0,0,0-1.2-1.3-2.5-2.5-3.7-3.9-.9-1.1-1.7-2.3-2.6-3.4-.5-.3-.9-.7-1.4-1-.5-.4-1-.9-1.5-1.3-.8-.8-1.5-1.6-2.3-2.4-1-1.7-1.9-3.5-2.9-5.2-.8,.6-1.6,1.3-2.4,1.9-1.5,.6-3,1.2-4.5,1.7,1.1,9.9,9.2,14.4,15.6,20.3Z"/>
    <path class="capeTrim" d="M188.3,21.1l-11.6-5.6-12.3,7.3-2,3.5c-.2,.2-.4,.5-.6,.7-.1,2.8-1.3,6.4-.2,8.3v1c0,0,2,.7,2,.7,1.1,.6,2.5,1,3.8,1.4l3.2,1.2c.5,.2,.9,.4,1.4,.5l2,.7,13.5-8.7,.4-6c.1-1.1,.2-1.9,.2-2.6l.2-2.4Zm-5.7,7.1l-10,6.8-7.5-3.5v-8.4l10.6-4.5,6.9,1.3v8.3Z"/>
    <path class="capeTrim" d="M230.3,29.3v-7l-18-11-16,9.7c-.9,.2-1.6,.6-2,1.2h-.2v.4c-.3,.6-.4,1.4-.4,2.4,0,1.9,0,3.9-.1,5.8,0,1.8,0,3.7,.3,5.5,0,.2,.1,.5,.2,.7v1.2l1.2,.6c0,0,.1,.2,.2,.3,.2,.1,.3,.2,.5,.2,4.8,2.6,9.5,5.3,14.5,7.6,0,0,.2,0,.2,0l1.6,.8,18.1-9.8v-4.3c0-.4,.1-.9,.2-1.3,0-1-.1-2.1-.2-3.1Zm-3.6,3l-14.4,6.3-14-6.1v-11.6l14.2-8.3,14.2,9v10.7Z"/>
    <path class="capeTrim" d="M260.1,24.5c-.4-.7-.9-1.4-1.7-2l2,8.3-8.6,4.3-11.7-7.3v-8.1s8.1-2,9-2l3.5,1.7-6-4.3-9.2,4.7c-.8,.3-1.5,.5-2.2,.8,.8,4,1.4,7.5,2.1,11,4.2,3,8.4,6.1,12.7,9.1,.2,0,.3-.2,.5-.2l.6,.4,10.2-4v-11.4l-1.2-.8Z"/>
    <path class="capeTrim" d="M165.8,123c-.5-.3-.8-.9-1.2-1.4-1.3-1.2-2.7-2.3-3.8-3.6-1.7-2-3.1-2-4.9,0-1.8,1.9-4.1,3.4-5.8,5.3-3.7,4.2-10,6.8-8.9,14.1q3.5-3.5,0,0c-.4,2.3-.9,4.5-1.2,6.8-.6,4.5-1.1,9-1.6,13.4,0,.2,0,.5,.1,.7,0,.3,0,.6,0,.9-1,9.2-1.9,18.4-2.9,27.7-.5,4.7-1,9.5-1.5,14.2,0,0,0,0,0,0-.3,3.4-.5,6.7-.8,10.1,.3,0,.6,.1,1,.2,.6-.7,1.2-1.4,1.8-2.2,1.3-1.7,2.6-3.4,3.9-5,0,0,0,0,0,0,.9-.5,1.9-1.1,2.8-1.6,.5-.3,.9-.6,1.4-1,1.4-1.9,2.8-3.8,4.3-5.7,.7-.3,1.3-.6,2-.9,.7,.6,1.4,1.1,2.1,1.7,2.6,3.4,5.1,6.8,7.7,10.2,1.2,1.3,2.5,2.6,3.7,3.8,.5-.5,1.2-.9,1.3-1.4,1-6.6,2-13.2,2.8-19.9,1.2-10.6,2.3-21.2,3.2-31.9,.4-5,0-10,.5-14.9,.8-7.5,1.3-14.7-6.1-19.6Zm-21.7,11.8l9.8-6.8,9.1,5.7-.6,10.5-9.2,6.4-9.1-5.9v-9.9Zm21.1,23.7c-.9,11.9-1.8,23.8-2.7,35.6-.5,1.5-1,3.1-1.5,4.6h0s0,0,0,0c-2.7-2.9-5.4-5.9-8.1-8.8,0,0,0,0,0,0-.8-.9-1.5-1.8-2.3-2.6-1.7,1.3-3.4,2.7-5.2,4,0,.2-.1,.5-.2,.7,.3,0,.6,0,.9,0h0c-.3,0-.6,0-.9,0,0,0,0,.3,0,.3,0,0,0,0,0,0-2.8,2.6-5.5,5.3-8.3,7.9,0-3.1-.1-6.3,.1-9.4,1.4-15.1,3-30.2,4.5-45.8,.6,.7,.9,1,1.2,1.3q.1-.4,0,0c1.7,4.7,6,6.7,10,8.8,.5,.3,1.5-.4,2.3-.6,3.2-2.2,6.5-4.5,9.7-6.7q-.8-.2,0,0c.4,.2,1.1,.5,1.1,.7-.2,3.3-.4,6.7-.7,10Z"/>
    <path class="capeTrim" d="M236.7,132.7c0-1.5,0-3-.2-4.5-.2-1.8,0-4.2-1.1-5.2-7.6-7.4-15.5-14.6-23.4-21.9-2.4,2-4.5,3.8-6.7,5.6-1.3,1.4-2.6,2.9-4,4.3-3.7,3.7-7.4,7.3-11.1,11-1,1.7-2.3,3.3-2.8,5.1-.5,1.7-.2,3.7-.3,5.6-.1,10.1-.4,20.2-.4,30.3,0,11.6,.4,23.1,.5,34.7,.1,13.6,.1,27.2,.2,40.8,0,.9,.2,1.8,.4,3.6,1.4-1.7,2.3-2.7,3.1-3.8,6-6.5,12-12.9,18.1-19.4,.8-.6,1.5-1.2,2.3-1.8,1.2,.7,2.3,1.3,3.5,2,.8,1.1,1.6,2.2,2.5,3.2,3.2,3.4,6.5,6.8,9.7,10.2,2.7,2.6,5.4,5.1,8,7.7,1.4,.6,1.5,.6,1.5-.7,.3-5.1,.6-10.2,.7-15.3,.3-17.2,.9-34.4,.8-51.5,0-13.3-.9-26.6-1.3-39.9Zm-38.3-4l13.5-9.1,13.7,9.1v15.6l-13.6,8.7-13.6-8.2v-16Zm33.7,97.4c-.8-.8-1.5-1.7-2.3-2.5-3.5-3.7-7-7.3-10.6-11-1-1.1-2.2-2-3.3-2.9h0c-1.2-1.4-2.4-2.7-3.9-4.6-6.2,7-12.2,13.7-18.1,20.5q0,.9,0,0c-.6-.3-1.7-.7-1.7-1,0-32.4,.3-64.7,.4-97.1,0,0,0,0,0,0,.5,4.4,.9,8.7,1.5,13.1,.3,2.6,.9,5.2,1.4,7.9,.1-2.4,.2-3.9,.3-4.5q0-.4,0,0c0,.6-.1,2.1-.3,4.5,0,.2,0,.5,.1,.7,5.1,3.9,10.3,7.7,15.4,11.6,.8,0,1.6-.2,2.4-.3,.3-.2,.5-.4,.8-.7,0,0,0,0,0,0,.5,0,.9-.1,1.4-.2,4-3.4,8-6.9,12-10.3h0c.7-1,1.4-2,2.1-3q-.5-.8,0,0c.3-5.6,.5-11.3,1-16.9,0-.9,.9-1.7,1.3-2.5,0,26.9,.1,53.9,.2,80.8,0,.5,0,1,0,1.6,0,.5,0,1,0,1.4,0,2.4,0,4.8,0,7.2,0,2.8-.1,5.5-.2,8.3q.9,3.5,0,0Z"/>
    <path class="capeTrim" d="M287.4,198.9c-1.2-1.1-2.3-2.2-3.5-3.3-3.5-2.9-7-5.8-10.5-8.6,0,0,0,0,0,0,0,0,0,0,0,0-.8,.9-1.6,1.8-2.4,2.7-.7,.5-1.3,1.1-2,1.6-.3,.5-.6,.9-.9,1.4,0,0,0,0,0,0-.2,.3-.5,.5-.7,.8,0,0,0,0,0,0-.3,.3-.5,.5-.8,.8,0,0,0,0,0,0-.8,1.4-1.6,2.8-2.4,4.2q-.5,2.3,0,0c-.7-.7-1.9-1.3-2-2-1.6-14.8-3-29.5-4.4-44.3-.2-1.7,0-3.4,0-5.6,.9,.8,1.5,1.4,2.1,1.9,2.4,1.5,4.8,3.1,7.2,4.5,1.2,.7,2.7,1.1,4,1.6,.2-.2,.5-.5,.7-.7,0,0,.1,0,.1,0,0,0,0,0,0,0,0,0,0,0,0,0,1.9-.8,3.8-1.7,5.8-2.5,1.8-1.2,3.5-2.3,5.3-3.5,.3,2.2,.6,4.4,.9,6.6,.5-5.4-.2-10.8,0-16.2,.1-4.9-.5-9.1-4.6-12.1-2.8-2.5-5.6-5-8.4-7.5-.7-.3-1.3-.5-2-.8l-.2-.2c-.4-.4-.9-.9-1.3-1.3-1.3,.6-2.7,.8-3.7,1.7-3.3,2.8-6.4,5.8-9.7,8.7-.3,.7-.7,1.4-1,2.1,0,0,0,0,0,0-.2,1.4-.7,2.9-.7,4.3,.2,8.7,.2,17.4,.8,26,.7,9.9,1.9,19.9,2.9,29.8,1,7.3,1.9,14.5,3,22.8,1.5-2.2,2.4-3.4,3.2-4.6,0,0,0,0,0,0,2.7-2.8,5.4-5.7,8.1-8.5,.5-1,1.1-1.9,1.6-2.9,.8,0,1.5-.2,2.3-.3,2,2.1,4,4.1,6,6.2,3.1,3.3,6.2,6.6,9.3,9.9,.5-.3,1-.5,1.5-.8-1.2-3.9-2.3-7.9-3.5-11.8Zm-17.1-72.8l10,7.4v10.6l-7.1,6.3s0,0,0,0h0s-.3,.2-.3,.2l-10.5-6-1-11.4,8.8-7.1Z"/>
  </g>
  <g id="capeInside" class="capeInside">
    <path class="capeInside" d="M65.2,493.1c-1.6-.4-3.5-.5-5,0-14.1,5.4-28.1,10.9-42.1,16.4,.9,1.5,1.9,3.1,2.6,4.3,6.8-2.7,13-5.3,19.3-7.7,1-.4,2.4,0,3.6,.1,1-.8,1.8-2,2.9-2.5,4.1-1.7,8.3-3.4,12.5-4.7,2.7-.9,5.6-1.1,8.4-1.7,.7,.3,1.4,.5,2.2,.8,1.5,.3,3,.6,4.5,.8,4.6,1.9,9.8,2.9,12.4,7.9,2.4,2.1,4.7,4.1,7.1,6.2,3.9,2.8,7.9,5.6,11.8,8.5,1.6,1.1,3.1,2.4,4.6,3.6,.1-.2,.3-.3,.5-.4-4-3.7-8-7.5-11.9-11.2-9.6-9.2-20.1-17.2-33.3-20.3Z"/>
    <path class="capeInside" d="M392.9,503.6c-9.1-3.3-18.2-6.4-27.4-9.6,0,0,0,0,0,0,0,0,0,0,0,0-1.6-.4-3.5-1.5-4.9-1-6.1,2.2-12.7,3.9-17.8,7.6-8.5,6.2-16.1,13.7-24,20.6,1.2-.5,2.5-.9,3.5-1.6,5.5-4.2,11-8.4,16.5-12.6,2-4.8,6.9-5.4,10.8-7.5,2.4-.4,4.9-.9,7.3-1.3,1.1-.4,2.2-.6,3.4-.9l23.3,8.8c.5,0,1,0,1.5,.3,6.4,2.5,12.7,5.2,19.6,8,.6-1.6,1.3-3.4,1.9-5.1-4.6-1.9-9.1-3.9-13.8-5.6Z"/>
  </g>
</svg>