<svg id="masterMax-cape-svg" class="rsCapeCustomizer_capeSvg" xmlns="http://www.w3.org/2000/svg" viewBox="0 0 426 857.2">
  <style></style>
  <g id="capeDetailTop" class="capeDetailTop">
    <path class="capeDetailTop" d="M139.6,388.8c-1.8,3.6-3.5,7.3-5.4,10.9-1,1.9-2.1,3.7-3.2,5.5-1.2,6.4-2.4,12.9-3.5,19.3-2,11.9-3.8,23.8-5.8,35.7-2.8,17-5.8,34-8.6,51-2.4,14.8-4.4,29.6-7.1,44.4-2.4,13.4-5.4,26.7-8.1,40-5.6,27.7-11.2,55.4-16.8,83.1-3.7,18.2-7.4,36.4-11.2,54.5-.6,2.9,0,5,2.4,6.8,3.3,2.6,6.5,5.5,9.7,8.2,3.8,3.1,7.7,6.1,12.2,9.7,1.4-8.8,2.6-16.7,4-24.6,1.6-9.5,3.4-18.9,5.1-28.3,3.1-17.9,6.2-35.9,9.3-53.9,3.1-18.2,6.3-36.3,9.3-54.5,3-18.8,5.9-37.6,8.7-56.4,2.3-15.8,4.3-31.6,6.4-47.3,1.9-14.6,3.9-29.1,5.7-43.7,1-8.5,2.8-17.1,2.2-25.6-.8-11.7-3.4-23.3-5.3-34.9Z"/>
    <path class="capeDetailTop" d="M292.8,695c0-.4,0-.8,0-1.1-.5-4.3-.9-8.6-1.6-12.9-1.1-7.5-2.4-14.9-3.7-22.3,0-.5,0-1-.1-1.5-.2-1.8-.4-3.7-.7-5.5-1.4-8.4-1.9-17.1-8.1-23.8-.2-.3-.5-.6-.7-.9-.2-.4-.5-.9-.7-1.3-4.2-7.2-8.4-14.4-13-22.3-.7,1.9-1.1,2.6-1.3,3.5-1.4,7.1-2.3,14.4-4.2,21.4-2.2,7.8-1.3,15.4,0,23.2,2.5,14.4,4.7,28.9,7.2,43.3,1.4,8.1,3,16.1,4.5,24.1,3.2-2.5,6.4-5.1,9.6-7.6h0c1.5-1,3-2.1,4.5-3.1,3-2.2,5.9-4.5,8.9-6.7,.2-.2,.5-.4,.7-.6-.4-1.9-.8-3.8-1.3-5.7Z"/>
    <path class="capeDetailTop" d="M166.7,637.3c-.5-9.2-3.2-18.2-4.9-27.4-.3-2.1-.6-4.2-.9-7.1-1.1,1.4-1.6,1.9-2,2.6-5.1,8.3-10.3,16.5-15.2,24.8-1.7,2.9-3.8,6.1-4.2,9.4-2.9,20.3-5.4,40.7-8,61,.4,.2,.8,.4,1.2,.7,5,3.8,9.9,7.6,14.9,11.4q.2-.8,0,0c1,1,2,2,3,3,.8,.5,1.5,1,2.3,1.4,.5,.5,1,1,1.5,1.5,.3-.9,.7-1.8,.9-2.8,1.9-12.6,3.8-25.1,5.7-37.7,0,0,0,0,0,0,0-.5,0-1,.1-1.5,.9-5.6,1.9-11.2,2.8-16.9,1.1-7.5,3.3-15.1,2.9-22.5Z"/>
    <path class="capeDetailTop" d="M217,86.3c6.1,2.3,12.4,4.2,18.6,6.3,0-12.8,.2-25.7,.2-38.5-2.1,.1-4.2,.3-6.3,.4-9,.4-18,.9-27.1,1-5.6,0-11.2-.5-16.8-.7,0,13,0,26,0,39,6.4-2.3,12.8-4.6,19.2-7,4-1.5,8-2,12.2-.4Z"/>
    <path class="capeDetailTop" d="M154.6,152.1c-1.5,1.3-2.6,2-4.4,.4-1.9-1.7-4.3-2.9-6.4-4.5-1.8-1.3-2.6-.8-2.9,1.3-.7,5.3-1.6,10.5-2.4,15.8-.4,.5-.9,1-1.3,1.4-.4,5.2-.7,10.5-1.1,15.7-.1,.3-.3,.5-.4,.8-.3,5.4-.6,10.9-.9,16.3,3.2,2.5,6.5,4.9,9.5,7.7,2.5,2.3,4.5,2.5,7,.2,2.4-2.2,5.3-3.8,7.5-6.2,1.5-1.6,2.6-3.8,2.9-5.9,1.2-8.5,2.3-17,2.7-25.6,.5-8.5,.1-17,.1-25.8-3.5,3-6.8,5.6-9.9,8.4Z"/>
    <path class="capeDetailTop" d="M285.2,174.2c-.6-5.6-1.5-11.2-2.3-16.8,0-.5,0-1,0-1.6-.2-3.1-.4-6.3-.6-9.4-.9-1.6-1.8-2.6-3.1-.3-1.8,1.5-3.9,2.8-5.5,4.4-2.2,2.2-4,1.8-6.1,0-3.3-2.6-6.7-4.9-10.9-8,.3,4.5,.6,7.9,.9,11.3,1.1,13.8,2.1,27.5,3.3,41.2,.1,1.7,1.2,3.6,2.4,4.8,2.1,2.1,4.7,3.6,7.1,5.4,.3,.2,.5,.4,.8,.6,.5,.3,1,.6,1.5,.9,1.3,2.3,2.7,1,3.9,0,3.7-3,7.3-6.2,11-9.2-.7-7.8-1.4-15.6-2.2-23.4Z"/>
    <path class="capeDetailTop" d="M261.2,716.2c-1.5-9.1-2.9-18.1-4.5-27.2-1.4-7.9-2.9-15.8-4.3-23.7,0-.5,0-1-.1-1.5l-2-10c0-.2,0-.3,0-.5,0-1-.2-2-.2-3-.2,.2-.4,.5-.7,.7h0c.2-.2,.4-.5,.7-.7-.2-.5-.3-1-.5-1.5,0-5.5-2.4-10.9-.3-16.5,.3-1.5,.6-3,.9-4.5h0c3.3-15.7,6.6-31.3,9.9-47,0-.3,0-.6-.1-1-.9-7.2-1.7-14.5-2.6-21.7-1.4-11.2-3.4-22.3-4-33.6-.8-15.7-.5-31.4-.9-47.1-.3-10.4-1-20.8-1.4-31.3-.5-13-1.4-26.1-1.4-39.1,0-22.2,.5-44.4,.6-66.6,0-6.1-.5-12.2-.7-18.3-.5-21.8,1.3-43.6-2.2-65.3-1.7-10.4-2.7-20.9-3.9-31.4-.6-5-1.1-10-1.4-15-.4-7.7-.5-15.4-.8-23.1,0-2.1-.5-4.2-.7-6.3,0-.5,0-1,0-1.5,0-2,0-4,0-6-.5-14.9-1-29.8-1.5-44.7-.1-3.8-.5-7.7-.8-11.5q-1.2-1,0,0c0-2.8-.1-5.7,0-8.5,0-1,1-1.9,1.5-2.8-.3-.6-.5-1.5-1-1.9-5.6-3.5-11.2-6.9-16.9-10.3-7.4-2.5-14.7-1.9-22,.8q.6,.3,0,0c-6,2.3-11.4,5.3-15.6,10.3-.2,2.8-.4,5.7-.6,8.5,0,2.2,0,4.5,0,6.7,0,.2,0,.5,0,.7-.2,12.5-.4,24.9-.8,37.4-.4,13.5-.8,27.1-1.5,40.6-.7,11.4-1.9,22.7-2.9,34.1-.7,8.5-1.3,17.1-2.4,25.5-2.9,23.8-1,47.7-1.4,71.5-.3,23.8,.2,47.7-.2,71.5-.2,15.8-1.4,31.5-2.2,47.3-.3,5.3-.5,10.7-.7,16-.2,5.5-.5,10.9-.7,16.4h0c0,15,0,29.9,0,44.9,0,1.2,0,2.5-.1,3.7-.9,8.4-1.9,16.7-2.9,25.1-1,8.6-2,17.2-3,25.8,.4,1,1,2,1.2,3.1,1.4,7.5,2.8,15.1,4.2,22.6,1.1,6.2,2.1,12.5,3.4,18.7,1.6,7.3,2.7,14.6,.8,22.1-1.2,4.8-2.1,9.6-2.9,14.5-2,13-3.9,26-5.9,39.1-.8,5.3-1.5,10.7-2.3,16,.4,.2,.8,.3,1.2,.5,2.6-5.9,5.3-11.8,7.9-17.8,0,0,0,0,0,0,.2-.2,.4-.4,.6-.6,4.1-7.1,8.3-14.2,12.2-21.5,7.9-14.7,15.5-29.5,23.3-44.1,1.1-2.1,3.1-3.8,4.7-5.7q-.5-.6,0,0s0,0,0,0c3,5.7,6,11.5,8.9,17.2,.6,1.5,1.3,3,1.9,4.4,.4,.5,.8,1,1.2,1.6,2.7,5.1,5.4,10.1,8.1,15.2,0,.2,0,.4,.1,.5,.2,.3,.4,.5,.7,.8,0,0,0,0,0,0,.5,1,.9,2,1.4,3,.2,.5,.5,1,.7,1.5,.8,1.5,1.6,3,2.4,4.5,0,0,0,0,0,0,.7,1.3,1.5,2.7,2.2,4,.2,.4,.4,.9,.6,1.3,.8,1.5,1.6,3,2.4,4.4,0,0,0,0,0,0,.7,1.3,1.5,2.6,2.2,3.9,0,.2,0,.3,0,.5,.2,.3,.5,.5,.7,.8,0,0,0,0,0,0,.8,1.5,1.5,3,2.3,4.4,0,0,0,0,0,0,0,0,0,0,0,0,2.5,4.7,4.9,9.5,7.4,14.2,1.3,2.6,2.5,5.2,3.8,7.8,.8-.9,.9-1.5,.8-2Zm-12-91.3c-.2,1-.4,2-.6,3,.5,0,.9,0,1.4,0-.5,0-.9,0-1.4,0,.2-1,.4-2,.6-3Zm-14.1-459.8c0,20.8-.1,41.7,0,62.5,0,3.3-1,5.4-3.7,7-2.4,1.5-4.5,3.4-6.8,5.2-3.6,2.3-7.2,4.8-10.9,6.9-1.2,.7-3.3,1.1-4.3,.5-6.6-3.9-13-8.2-19.5-12.3-2.6-1.6-3.5-3.9-3.5-6.9,.3-24.2,.5-48.4,.6-72.6,0-10.1-.5-20.1-.5-30.2,0-1.7,1-3.8,2.3-4.9,6.3-5.6,12.9-10.9,19.3-16.4,2.2-1.9,4.1-2.4,6.3,0,1.4,1.6,3.2,2.8,4.8,4.1,4.5,3.9,9.1,7.7,13.4,11.8,1.2,1.2,2.1,3.4,2.2,5.1,.2,13.3,.2,26.7,.2,40Z"/>
    <path class="capeDetailTop" d="M227.2,146.6c-4.4,3.2-9,6.2-13.4,9.5-1.9,1.5-3.3,1.4-5.3,0-5-3.6-10.3-6.9-15.4-10.3l-1.3,.6c0,7.5,0,14.9,0,22.4,0,17.5,0,34.9-.2,52.4,0,3,1.1,4.7,3.6,6.3,5.1,3,10,6.4,15.1,9.6,.6,.4,1.8,.4,2.3,0,5.3-3.5,10.5-7.1,15.5-10.9,1.4-1.1,2.9-3.3,2.9-5.1,0-24.3-.4-48.6-.6-72.9,0-3.2-1.2-2.9-3.3-1.4Z"/>
    <path class="capeDetailTop" d="M355.8,737.2c0-.5-.1-1-.2-1.4-.2-.8-.4-1.5-.6-2.3,0-.7-.2-1.5-.2-2.2-.5-1.8-.9-3.5-1.4-5.3-.3-1.2-.6-2.5-.8-3.7-.2-1-.4-2-.6-3.1,0-.5-.1-1-.2-1.4-.5-2-1-4-1.5-6,0-.5,0-1,0-1.5-1.9-9.3-3.7-18.6-5.6-27.9-1.5-7-3.1-13.9-4.7-20.8,0-.5,0-1,0-1.5-2-9.5-4-18.9-5.9-28.4-3.4-17-6.9-33.9-10-50.9-5.1-27.5-10-55-14.9-82.5-1.7-9.8-3.4-19.5-5.1-29.3,0-.5-.1-1-.2-1.4-2.2-13.7-4.3-27.3-6.7-40.9-1-5.9-2.4-11.8-3.6-17.7,0-.2,0-.3,0-.5-.2-1.1-.5-2.2-.7-3.3,0-.4,0-.9,0-1.3-.9-1.2-1.8-2.2-2.6-3.5-2.2-3.5-4.3-7.1-6.5-10.6l-1.2,.2c-.5,4.6-1,9.2-1.6,13.7-.6,6-1.2,12-1.9,18.1-.2,4.3-.9,8.7-.4,12.9,1.4,11.1,3.4,22.1,4.9,33.1,2.7,19.2,5,38.4,7.8,57.6,2.5,17.4,5.2,34.9,8,52.3,1.5,9.5,3.5,19,5.2,28.5,.1,1.2,.2,2.5,.4,3.7,3.1,17.7,6.3,35.4,9.4,53.1,1.4,7.6,2.9,15.1,4.3,22.6,0,1.1,0,2.3,.2,3.4,3.9,22.4,7.9,44.8,11.9,67.2,.2,1.2,.8,2.3,1.3,3.4,1.1-.9,2.2-1.8,3.2-2.6,0,0,0,0,0,0q.3-.5,0,0c3.3-2.8,6.5-5.5,9.8-8.3,.5-.5,.9-1,1.4-1.5,.3-.3,.5-.5,.8-.8,0,0,0,0,0,0,1-.8,2-1.5,3.1-2.2,.7-.7,1.5-1.5,2.2-2.2,1.9-1,4.4-1.6,3.1-4.7Z"/>
  </g>
  <g id="capeDetailBot" class="capeDetailBot">
    <path class="capeDetailBot" d="M388.2,394.7c-1.6-10.4-3.3-20.8-5-31.3h0c-.2-.6-.3-1.1-.5-1.7-1.1-5.6-2.1-11.3-3.2-16.9-3.1-16.6-6.3-33.3-9.4-49.9-2.2-11.6-4.3-23.3-6.4-35,0-.7,0-1.3,0-2,0-.3,0-.7,0-1.1-.8-4.9-1.5-9.8-2.3-14.6,.1-.1,0-.3,0-.4-.4-3.7-.6-7.4-1.2-11.1-1.5-9.3-3.1-18.6-4.7-27.9-1.5-8.7-2.9-17.3-4.4-26,0,0,0-.3,0-.3-.2-1.4-.5-2.8-.7-4.2,0,0,0-.2,0-.2h-.1c-.2-1.5-.5-2.9-.7-4.3,0,0,0-.2,0-.2v-.2c-.3-1.2-.5-2.4-.7-3.6-.1-1.2-.2-2.4-.4-3.6-1.1-6.3-2.2-12.7-3.3-19,0-1.6,.4-3.2,.2-4.7-1-6.4-2.1-12.7-3.3-19-.5-2.3-1.4-4.6-2.1-6.9-.8-6.2-1.5-12.5-2.6-18.7-1.1-6.7-2.5-13.4-4-20-1.2-5.3-2.9-10.5-4.4-15.7-2.7,2.4-5.4,4.8-8.1,7.1-8.1,6.9-16.3,13.7-24.4,20.5-.5,.4-.9,.8-1.4,1.1,.5,1.7,1.4,3.4,1.5,5.2,.4,10.5,.5,20.9,.8,31.4,.5,15.1,1,30.1,1.5,45.1,.4,12.4,1.2,24.9,1.1,37.3-.1,12.8-1.2,25.6-1.8,38.3-.3,6.3-.4,12.7-.8,19-.9,14.6-1.9,29.2-3,43.8-.3,4.5-1,9-1.5,13.5,3.3,4.7,6.4,9.4,9.8,14,5.7,7.7,11.8,15.1,17.1,23,8.9,13.1,20.4,23.7,32.2,34,3.8,3.4,7.4,7.1,11.3,10.3,6.4,5.4,13.1,10.7,19.6,16,2.7,2.2,5.4,4.4,8.1,6.5,.4,.3,1.2,0,1.8,0-1.4-9.4-2.9-18.9-4.3-28.3Z"/>
    <path class="capeDetailBot" d="M127.3,287.9c-1-14-2-27.9-2.9-41.9,0-1,0-2,0-3-.2-6.6-.5-13.1-.8-19.7,0,0-.2,.2-.3,.3,.1,0,.2-.2,.3-.3-.2-6.5-.7-12.9-.7-19.4,0-10,.4-20.1,.7-30.1,.2-8,.5-15.9,.7-23.9,.3-12.8,.4-25.7,.8-38.5,.2-7.3,.9-14.6,1.5-21.9,0-.7,.5-1.3,.8-2-8.4-6.4-16.9-12.8-25.3-19.4-2-1.6-3.6-3.7-5.4-5.5-1-1-2.1-1.9-3.2-2.8-.5,2-1,3.9-1.5,5.9-.2,.4-.5,.9-.6,1.3-3.9,19.4-8.3,38.6-11.7,58.1-4.3,24.8-7.6,49.7-11.6,74.6-7.9,49-16,98-24,147,0,.3,0,.6,0,.9,0,.4-.1,.8-.2,1.2-.8,5-1.5,10.1-2.3,15.1-3.3,20-6.6,40-9.8,60,9.1-6.8,18.6-13.2,27.2-20.6,11.8-10.1,23.2-20.7,34.3-31.5,4.1-4,6.8-9.4,10.3-14.1,8.2-11.3,16.5-22.7,24.7-34,.8-1.2,1.4-2.6,2-3.9-.5-3.6-1.1-7.3-1.4-10.9-.6-7-1.1-14.1-1.6-21.1Z"/>
    <path class="capeDetailBot" d="M49.9,449.3c-.6,.5-.9,1.4-1.1,2.2-2.1,10-4,20-6.2,30-1.9,8.9-3.9,17.7-5.9,26.5h0c-.5,2.5-1,5-1.6,7.5-1.9,9.2-3.6,18.5-5.6,27.7-8.6,37.8-17.3,75.5-25.8,113.3-.7,3.3-3,6.9,0,10.3,4.4,3.5,8.7,7,13.2,10.4,.4,.3,2-.1,2.1-.5,1.1-4.9,1.8-9.9,2.9-14.8,5.6-24.2,11.5-48.3,17-72.6,10.8-48.1,21.3-96.2,31.9-144.4,.9-4,1.7-8.1,2.6-12.8-1.2,.7-1.8,1-2.3,1.3-7.1,5.2-14.1,10.4-21.2,15.7Z"/>
    <path class="capeDetailBot" d="M259.8,788.7c-5.4-6-10.9-11.9-16.4-17.9,0,3.9-.1,7.8,0,11.7,.2,16.4,.5,32.7,.8,49.1,.3,0,.5,0,.8,.1,1.5-1.1,3.1-2.1,4.5-3.3,7.7-6.3,15.2-12.9,23-19,2.6-2,2.7-3.2,.6-5.5-4.5-5-8.7-10.2-13.2-15.2Z"/>
    <path class="capeDetailBot" d="M181.8,770.9c-.9,1-1.9,2.1-2.8,3.1-.3,.5-.7,.9-1,1.4-7.4,8.3-14.7,16.7-22.1,25-.8,.9-1.5,1.9-2.3,2.8,0,0,0,0,0,0-1.6,1.5-3.2,3,0,4.5,2,1.7,4.1,3.5,6.1,5.2,.7,.4,1.4,.9,2.1,1.3,.2,.1,.4,.2,.7,.2,.8,.7,1.6,1.4,2.4,2.1,0,0,0,0,0,0,1.2,1.1,2.3,2.2,3.5,3.3,.7,.7,1.5,1.4,2.2,2,.3,.3,.6,.6,.9,.9,.5,.5,1,.9,1.5,1.4,.8,.7,1.5,1.5,2.3,2.2,0,0,0,0,0,0,1.3,1.1,2.5,2.3,3.8,3.4,.4,.4,.9,.8,1.3,1.1,.5-.3,1.1-.6,1.6-.9,.3-19.7,.5-39.4,.8-59.2-.3,0-.6,0-.9-.1Z"/>
    <path class="capeDetailBot" d="M424.1,663.3c-1.9-8-3.8-16-5.6-24-3.4-14.7-6.7-29.3-10.1-44-3.4-14.5-6.8-29-10.2-43.5-2-8.4-3.9-16.7-5.9-25.1-.2-1.3-.5-2.5-.7-3.8-.5-2-1-4-1.5-6,0-.7-.2-1.5-.3-2.2-.2-.6-.3-1.1-.5-1.7-.6-2.9-1.1-5.8-1.7-8.7-.3-1-.5-2-.8-3-1.2-5.8-2.4-11.5-3.7-17.3,.3-.4,.5-.9,.8-1.3-1.2-5.2-2.4-10.4-3.5-15.5-.9-4-1.7-8-2.5-12-.5-.3-.9-.6-1.4-.9-.3-4.3-3.4-6.4-6.8-8.2-6-4.6-12-9.2-18.6-14.3,.1,1.7,0,2.4,.2,3.1,1.7,7.8,3.4,15.6,5.1,23.4,7.3,33.5,14.1,67,21.9,100.4,9.2,39.7,19.2,79.2,28.8,118.7,.5,2.2,1.1,2.8,3.2,1.3,3.2-2.3,6.5-4.4,9.7-6.6h.3c.4-.5,.8-.9,1.2-1.3,0,0-.2-.1-.2-.1h.2c.3-.1,.5-.4,.8-.6,3.3-1.6,2.2-4.2,1.7-6.7Z"/>
    <path class="capeDetailBot" d="M296.5,76.7c7.9-5.9,15.9-11.8,23.7-17.8,1.1-.9,1.8-2.4,2.5-3.6,2.4-4.1,4.7-8.3,7-12.5-1.8-3.1-2.9-7.2-5.6-9.2-5.7-4.3-12.1-7.5-18.2-11.1-.4,1.3-.7,2.8-1.4,4-1,1.7-2.3,3.3-3.5,4.9-3.3,3.3-6.6,6.5-9.9,9.8,1.6,10.7,3.3,21.5,4.9,32.2,.2,1.1,.3,2.2,.5,3.3Z"/>
    <path class="capeDetailBot" d="M115.9,27c0-.5-1.3-1-2.1-1.5-2.2,1.3-4.3,2.5-6.5,3.8-2.4,1.5-4.8,3-7.2,4.4-.5,.1-.9,.2-1.3,.5-4.5,2.5-4.4,7.5-6,11.5,2.9,5,4.9,11.1,9,14.8,7.5,6.7,16.4,12,24.7,17.9,.6-8.1,1.2-16.2,1.8-24.3,.7-3.6,1.5-7.2,2.2-10.8-2.7-2.4-5.5-4.6-8.2-7.1-2.7-2.5-6.6-4.3-6.3-9.1Z"/>
  </g>
  <g id="capeBgTop" class="capeBgTop">
    <path class="capeBgTop" d="M393.6,691.3c-7-28.6-13.9-57.2-20.9-85.7-3.1-12.6-6.3-25.1-9.5-37.7-.8-3.5-1.5-7-2.3-10.6-5.8-25.9-11.5-51.8-17.3-77.7-4.1-18.6-8.1-37.1-12.2-55.7-1.3-6-2.1-12.5-8.7-15.5-4.7-4.3-9.5-8.6-14.2-12.8,1.2,9.8,3,18.9,4.9,28,5.1,24.6,10.2,49.2,15.3,73.8,5.4,25.8,10.7,51.6,16.1,77.4,4.8,22.6,9.7,45.3,14.5,67.9,5.1,24.3,10.2,48.7,15.3,73,.3,1.3,1.4,2.4,2.2,3.6,3-2.9,6.1-5.7,8.8-8.9,3.6-4.2,9-7.2,9.7-13.5-.6-1.9-1.2-3.7-1.6-5.6Zm-30.9-113.2c.2-.3,.4-.5,.6-.8h0c-.2,.3-.4,.5-.6,.8Z"/>
    <path class="capeBgTop" d="M101,409.3c-3.6,3.1-5.8,6.6-6.8,11.2-4.4,20.7-8.8,41.4-13.3,62.1-5.8,27.1-11.4,54.3-17.6,81.3-7.8,34-16.2,67.8-24.4,101.7-2.5,10.3-5.1,20.5-7.6,30.8,0,.4,.2,.8,.3,1.2,5.2,5.8,10.4,11.6,15.7,17.3,0,0,0,0,0,0,.3,.4,.6,.8,.9,1.2,0,0,0,.2,0,.2,.2,.2,.4,.5,.6,.7,0,0,0,0,0,0,.8-1.1,2.1-2.1,2.4-3.3,2-8.5,3.7-17,5.5-25.5,6.4-30.4,12.8-60.8,19.2-91.2,2.7-12.7,5.5-25.3,7.9-38,2.7-13.9,4.9-27.9,7.6-41.8,1.6-8.2,3.6-16.3,5.3-24.5,6.1-30.9,12.2-61.8,18.2-92.7,.2-1.2,.2-2.5,.3-3.7-.4-.2-.7-.3-1.1-.5-4.4,4.6-8.5,9.5-13.3,13.6Z"/>
    <path class="capeBgTop" d="M252.8,111.2c1.1-12.3,2.2-24.5,3.2-36.7,.6-7.1,.9-14.1,1.4-21.2-7.2,.3-14.4,.5-21.6,.8,0,12.8-.2,25.7-.2,38.5,3.7,4.2,7.3,8.4,11,12.5,2,2.2,4.2,4.1,6.2,6.1Z"/>
    <path class="capeBgTop" d="M164.8,60.7c.3,7.9,.5,15.9,1,23.8,.7,9.2,1.8,18.4,2.7,27.7,1-.7,2.2-1.1,3-2,4.8-5.4,9.4-11,14.2-16.5,0-13,0-26,0-39-7-.1-14-.2-21.1-.3,0,2.1,0,4.2,.1,6.3Z"/>
    <path class="capeBgTop" d="M390.8,423c-2.8-2.1-5.4-4.3-8.1-6.5-6.5-5.3-13.2-10.5-19.6-16-3.9-3.3-7.4-7-11.3-10.3-11.8-10.3-23.3-20.9-32.2-34-5.3-7.9-11.4-15.3-17.1-23-3.4-4.6-6.5-9.3-9.8-14-3.3-9.5-6.6-18.9-9.8-28.4-.3,0-.7,0-1,0,.4,0,.7,0,1,0-1.1-3.5-2.1-7.2-3.5-10.6-5.4-13.4-6.1-27.8-9.2-41.7-1.7-7.6-2.8-15.4-4.1-23.1-.3-1.6-.3-3.2-.4-4.7-.2-.2-.5-.5-.7-.7-8.2-3.9-8.2-11.6-9-19-.4-3.2-1-6.3-1.5-9.4-.8-17.6-1.7-35.2-2.4-52.8,0-1.3,1.1-2.6,1.7-3.9-.3-2.3-.7-4.6-1-6.9-.7-.2-1.3-.3-2-.5-3.8-3.6-7.6-7.2-11.3-10.9,0,0,0,0,0,0,0,0,0,0,0,0,0,0,0,0,0,0-.5,.9-1.4,1.8-1.5,2.8-.2,2.8,0,5.6,0,8.5,.3,3.8,.6,7.7,.8,11.5,.5,14.9,1,29.8,1.5,44.7,0,2,0,4,0,6,0,.5,0,1,0,1.5,.2,2.1,.6,4.2,.7,6.3,.3,7.7,.4,15.4,.8,23.1,.3,5,.8,10,1.4,15,1.2,10.5,2.2,21,3.9,31.4,3.5,21.7,1.7,43.5,2.2,65.3,.1,6.1,.7,12.2,.7,18.3-.1,22.2-.7,44.4-.6,66.6,0,13,.9,26.1,1.4,39.1,.4,10.4,1.2,20.8,1.4,31.3,.4,15.7,0,31.4,.9,47.1,.6,11.2,2.6,22.4,4,33.6,.9,7.2,1.8,14.5,2.6,21.7,0,.3,0,.6,.1,1,.7,.8,1.5,1.6,2,2.5,4,6.7,8,13.3,12,20,2.3,4.2,4.6,8.3,6.9,12.5,1,1.7,1.9,3.4,2.9,5.1,.4-.2,.8-.3,1.1-.5-.3-3.5-.7-7.1-1-10.6,0-.5,0-1,0-1.5-.2-2.8-.4-5.5-.6-8.3,0-.5,0-1-.1-1.5-.3-5.7-.4-11.5-.9-17.2-.5-6.5-1.3-13.1-2-19.6,0-.7,0-1.5-.1-2.2-.3-4.5-.6-8.9-1-13.4-.3-3.3-.8-6.6-1.2-9.9,0-.5,0-1,0-1.5,0,0,0,0,0,0-.5-3.5-1-7-1.5-10.5,0-1.2,0-2.5,0-3.7,0-5.1,.2-10.2,.2-15.3,0-20-.5-40,0-60,.5-19,1.9-38,3-57,.6-10.1,2.1-20,7.4-28.8,.6-.9,1.9-1.4,2.8-2.1h0c.7,.5,1.5,1.1,2.2,1.7,6.7,5.1,11.5,11.9,16.4,18.6,2.1,2.8,4.2,5.6,6.5,8.1,6.2,7,12.8,13.6,18.7,20.8,9.1,11,18.9,21.1,31.6,28.1,1.5,.8,3.9,1.1,5.4,.4,7-3,13.8-6.4,20.6-9.8,.8-.4,1.1-1.6,1.6-2.5-.6,0-1.4,.2-1.8,0Z"/>
    <path class="capeBgTop" d="M180.3,108.4c-4,3.5-7.9,7.1-11.8,10.7-.3,2.1-.6,4.2-.9,6.3,3.7,3,2.8,7.2,2.8,11.1,0,0,0,0,0,0-.2,4.8-.6,9.7-.6,14.5,.1,12.2-.8,24.3-3.1,36.3-.8,4.2-1.3,8.6-1.3,12.9,0,4.5-2,7.2-5.6,9.2-1,.5-1.8,1.4-2.7,2-1,7-2,14-3.1,21-1.9,12.2-3.3,24.6-6.1,36.6-2.2,9.4-5.9,18.4-9.1,27.6-2.8,7.9-5.7,15.6-8.6,23.5-.7,1.3-1.2,2.7-2,3.9-8.2,11.4-16.5,22.7-24.7,34-3.4,4.7-6.2,10.1-10.3,14.1-11.1,10.8-22.5,21.4-34.3,31.5-8.6,7.4-18.1,13.8-27.2,20.6,.4,.6,.6,1.6,1.1,1.8,7.4,3.5,14.9,6.9,22.4,10.2,1,.4,2.6,.4,3.4-.2,6-4.4,12.3-8.6,17.7-13.7,7.6-7.3,14.7-15.3,21.6-23.3,5.3-6.1,10.1-12.6,15.1-18.9,.3-.5,.5-1.1,.8-1.6,0,0,0,0,0,0,.5-.5,1-1,1.4-1.5,0,0,0,0,0,0,.3-.5,.5-1,.8-1.5,0,0,0,0,0,0,1-1,1.9-2.1,2.9-3.1,0,0,0,0,0,0,1-1.2,2-2.5,3.1-3.7,.2-.3,.4-.5,.6-.8,1.8-1.7,3.5-3.5,5.3-5.2,0,0,0,0,0,0,2-1.5,4-3,6-4.5,0,0,0,0,0,0,.7,0,1.5,0,2.2,0,0,0,0,0,0,0,1.9,5.4,4.9,10.6,5.7,16.1,2.5,17.7,5.8,35.3,5,53.4-.3,7.8,1.3,15.8,1.2,23.6-.2,21.9-.7,43.9-1.4,65.8-.4,11.4-1.6,22.8-2.4,34.3-1,16-1.9,32-2.9,48,0,.5,0,1,0,1.5-.4,6.6-.7,13.2-1.1,19.9,.4,0,.8,.2,1.2,.2,1.5-2.9,3-5.8,4.5-8.8,0,0,0,0,0,0,.7-1.3,1.5-2.5,2.2-3.8,.3-.5,.5-.9,.8-1.4,3.2-5.5,6.4-11.1,9.6-16.6,.3-.5,.5-1,.8-1.5,1.5-2.3,2.9-4.5,4.4-6.8,.3-.3,.5-.7,.8-1,1-8.6,2-17.2,3-25.8,1-8.3,1.9-16.7,2.9-25.1,.1-1.2,.1-2.5,.1-3.7,0-15,0-29.9,0-44.9,.2-5.5,.5-10.9,.7-16.4,.2-5.3,.5-10.7,.7-16,.8-15.8,1.9-31.5,2.2-47.3,.4-23.8-.2-47.7,.2-71.5,.3-23.8-1.6-47.7,1.4-71.5,1-8.5,1.6-17,2.4-25.5,1-11.4,2.2-22.7,2.9-34.1,.8-13.5,1.1-27.1,1.5-40.6,.4-12.4,.5-24.9,.8-37.4,0,0,0,0,0,0,0-.2,0-.5,0-.7v-6.7c.2-2.8,.4-5.7,.6-8.5-1.3,1-2.6,1.9-3.7,3Zm-47.4,249.9c.3,0,.7,0,1.1-.1h0c-.4,0-.7,0-1.1,.1Z"/>
  </g>
  <g id="capeBgBot" class="capeBgBot">
    <path class="capeBgBot" d="M244.1,831.6c-.3-16.4-.6-32.7-.8-49.1,0-3.9,0-7.8,0-11.7,0-.2,0-.4-.2-.6-.5-.3-1-.5-1.5-.8,.5,.2,1,.5,1.5,.8-9.6-10-19.1-20-28.8-29.8-.5-.5-2.8-.1-3.5,.6-5.1,4.9-10.2,10-15.1,15.1-4.7,4.9-9.3,9.9-14,14.8,.3,0,.6,0,.9,.1-.3,19.7-.5,39.4-.8,59.2q2.2,1.5,0,0c-.5,.3-1.1,.6-1.6,.9,.8,.8,1.4,1.8,2.4,2.4,8.9,5.7,17.3,12.4,28,14.4,1.8,.4,4.1,.6,5.7-.2,8.3-3.9,16.4-8.1,24.5-12.4,1.5-.8,2.7-2.3,4-3.5-.3,0-.5,0-.8-.1Z"/>
    <path class="capeBgBot" d="M302.5,756.1c-2.7-18.5-5.6-37-8.4-55.4-.2,.2-.5,.4-.7,.6-3,2.2-5.9,4.5-8.9,6.7-1.5,1-3,2.1-4.5,3.1-3.2,2.5-6.4,5.1-9.6,7.6,.2,3.7,.3,7.5,.8,11.1,1.6,11.9,3.4,23.9,5.2,35.8,1.5,9.6,3.2,19.1,4.7,28.6,.4,2.6,.8,5.2,1.3,8.3,5.6-3.6,11.1-6.4,15.6-10.2,4.1-3.4,7.7-7.9,7.1-13.9-.7-7.5-1.5-15-2.6-22.4Z"/>
    <path class="capeBgBot" d="M152.7,717.1c-.8-.5-1.5-1-2.3-1.4-1-1-2-2-3-3-5-3.8-9.9-7.6-14.9-11.4,0,0,0,0,0,0-.4-.2-.8-.4-1.2-.7-.3,2-.5,4-.8,6-.1,.7-.2,1.4-.4,2.1,0,.3,0,.7,0,1-.3,1.5-.5,2.9-.8,4.4-.6,3.5-1.2,7-1.8,10.5,0,.5-.1,1-.2,1.5-.1,.2-.2,.5,0,.7,0,.5-.1,1-.2,1.5-.7,4-1.3,8-2,12-.3,1.8-.5,3.5-.8,5.3-.7,4.5-1.5,9-2.2,13.5,0,.5-.2,1-.2,1.5-.1,.5-.2,1-.3,1.5-.1,1-.3,2-.4,3-.6,4.9-1.3,9.8-1.9,14.7,0,.4,0,1.1,.3,1.4,2.9,3,5.9,6,8.9,8.9,.2,.2,.4,.4,.7,.6,.6,.5,1.2,.9,1.7,1.4,0,0,0,0,0,0,3.2,2.5,6.5,5.1,9.7,7.6,.7,.5,1.5,1,2.3,1.4,.2-1,.4-2.1,.6-3.1,.8-4.6,1.7-9.2,2.3-13.9,2-13.9,4-27.9,5.7-41.8,1-7.9,1.7-15.8,2.5-23.7-.5-.5-1-1-1.5-1.5Z"/>
    <path class="capeBgBot" d="M282.9,290.8c3.3,9.5,6.6,18.9,9.8,28.4,.5-4.5,1.1-9,1.5-13.5,1.1-14.6,2-29.2,3-43.8,.4-6.3,.5-12.7,.8-19,.6-12.8,1.7-25.6,1.8-38.3,.1-12.4-.7-24.9-1.1-37.3-.5-15-1-30.1-1.5-45.1-.3-10.5-.5-20.9-.8-31.4,0-1.7-1-3.4-1.5-5.2-14,10.8-28,21.6-42,32.3,.3,2.3,.7,4.6,1,6.9,2.9-2.9,6-5.6,8.7-8.7,2.4-2.8,4.2-2.5,6.6-.2,3.2,3.2,6.7,6.2,10.1,9.3,2.6,.8,3.5,2.6,3.7,5.3,1.1,13.9,2.4,27.7,3.6,41.6,.3,3.2,.6,6.4,.7,9.7,.3,6.6,.5,13.2,.8,19.7,.5,2.6-.6,4.5-2.6,6-2.8,2.2-5.6,4.5-8.2,6.9-1.7,1.6-3.1,1.5-4.9,.2-2.1-1.5-4.4-2.7-6.6-4.1,.1,1.6,.2,3.2,.4,4.8,1.3,7.7,2.4,15.5,4.1,23.1,3.1,13.9,3.7,28.3,9.2,41.7,1.4,3.4,2.3,7.1,3.5,10.6Z"/>
    <path class="capeBgBot" d="M126.6,89.6c-.5,7.3-1.2,14.6-1.5,21.9-.4,12.8-.5,25.7-.8,38.5-.2,8-.5,15.9-.7,23.9-.3,10-.7,20.1-.7,30.1,0,6.5,.4,12.9,.7,19.4,.3,6.6,.5,13.1,.8,19.7,0,1,0,2,0,3,1,14,1.9,27.9,2.9,41.9,.5,7,1,14.1,1.6,21.1,.3,3.7,.9,7.3,1.4,10.9,2.9-7.8,5.9-15.6,8.6-23.5,3.2-9.1,7-18.2,9.1-27.6,2.8-12,4.2-24.4,6.1-36.6,1.1-7,2.1-14,3.1-21-1.9,1.3-4.1,2.5-5.7,4.1-3,2.9-5.2,1.6-7.6-.7-1.9-1.9-3.7-4.1-5.9-5.6-3.7-2.6-4.8-5.8-3.3-9.9,.3-5.4,.6-10.9,.9-16.3l.4-.8c.4-5.2,.7-10.5,1.1-15.7,.2-.5,.3-1,.5-1.5,.5-10.9,.9-21.9,1.6-32.8,.1-1.8,1.2-3.9,2.6-5.3,3.7-3.8,7.8-7.2,11.5-11,2.2-2.3,3.7-2,5.6,.3,2.7,3.2,5.8,6.1,8.7,9.1,.3-2.1,.6-4.2,.9-6.3-13.7-10.5-27.4-20.9-41.1-31.4-.3,.7-.8,1.3-.8,2Z"/>
    <path class="capeBgBot" d="M285.6,83.7c3.7-2.2,7.3-4.6,11-7-.2-1.1-.3-2.2-.5-3.3-1.6-10.7-3.3-21.5-4.9-32.2-3.3,1.5-6.5,3.2-9.8,4.4-7.9,2.7-15.9,5.2-23.9,7.7-.4,7.1-.8,14.1-1.4,21.2-1,12.3-2.2,24.5-3.2,36.7,1.6-1.3,3.3-2.4,4.8-3.8,8.9-8.4,17.2-17.5,27.9-23.7Z"/>
    <path class="capeBgBot" d="M165.8,84.5c-.6-7.9-.7-15.8-1-23.8,0-2.1,0-4.2-.1-6.3-1.7-.3-3.4-.3-5-.9-9.8-3.4-19.5-6.9-29.3-10.3-.7,3.6-1.5,7.2-2.2,10.8-.6,8.1-1.2,16.2-1.8,24.3,15.3,9.7,29.4,20.8,42.1,33.8-.9-9.2-2-18.4-2.7-27.7Z"/>
  </g>
  <g id="capeTrim" class="capeTrim">
    <path class="capeTrim" d="M168,37.3l4.2,1.7,.3-.2c1.2,0,2.2-.5,3.3-1.5,3.1-2.6,6.5-4.8,9.8-7.2,.5-3,1-6.1,1.4-9.1,0-.6-.1-1.6-.3-2h0c0,0,0,0,0,0l-1.2-.4-11.2-3.3-12.5,6.8-2.2,11.8,1.6,.6,6.9,2.8Zm-4.5-15.2l9.5-5.4,8,1.7v7.8l-10.3,6.7-7.1-1.4v-9.3Z"/>
    <path class="capeTrim" d="M186.5,18.8c-.4,0-.7-.1-1.1-.2l1.2,.4c0,0-.1-.2-.2-.2Z"/>
    <path class="capeTrim" d="M161.8,35.1c2,.9,4.1,1.5,6.2,2.2l-6.9-2.8c.2,.3,.5,.5,.7,.6Z"/>
    <path class="capeTrim" d="M306,22.5c-2-1.2-3.9-2.4-5.9-3.6-.7-.5-1.4-1-2.2-1.5l-1.4,6.7c-.4,.5-.8,1-1.2,1.5-1.1,.9-2.2,1.8-3.4,2.6-1,.7-2.1,1.3-3.1,2-.5,.4-.9,.8-1.4,1.1-5.4,3.2-10.9,6.3-16.3,9.5-.8,.4-1.6,.7-2.4,1.1-.8,.3-1.6,.6-2.4,.9-2,.6-3.9,1.2-5.9,1.8-1.5,.4-3.1,.8-4.6,1.2-.5,0-.9,0-1.4,.1-2,0-4,0-6.1,0-2.3,.2-4.5,.4-6.8,.6-.7,0-1.5,.1-2.2,.2-1.7,0-3.5,0-5.2,0l-2.2,.5c-5.3,0-10.5,0-15.8,0,0-.4,0-.9,0-1.3,2.7-1.8,5.3-4,8.3-5.4,1.7-.8,3-1.6,3.9-2.7h.2v-.2c.9-1.3,1.2-2.9,.5-5.2-.1-.4,.1-1,.2-1.4-.1-1.9-.4-3.7-.3-5.6,0-1.1,0-2-.4-2.8v-.4l-.3-.2c-.6-.9-1.4-1.7-2.6-2.3-3.8-2.1-7.5-4.4-11.1-6.7-.5-.3-1-.6-1.4-.9l-2.8-1.9-10,6.3c-1.3,.7-2.5,1.4-3.5,2.2l-5.5,3.5v15.3l2,1.1c1.2,1.7,3.1,2.3,5.7,3.3l7.6,4.4c0,.3-.1,.6-.2,.8-1.3,0-2.5,.2-3.8,.2-11.9-.2-23.9,.3-35.7-.9-9.8-1-19.5-3.7-27.5-10.3-4.5-3.7-9.2-7.1-13.8-10.8-.6-.5-.8-1.3-1.2-2-.3-1.3-.6-2.5-.8-3.8-3.3,2-6.5,4-9.8,6,.7,.5,2.1,1.1,2.1,1.5-.2,4.7,3.6,6.5,6.3,9.1,2.6,2.5,5.4,4.7,8.2,7.1,9.8,3.5,19.5,7,29.3,10.3,1.6,.5,3.3,.6,5,.9,7,.1,14,.2,21.1,.3,5.6,.3,11.2,.8,16.8,.7,9-.1,18-.6,27.1-1,2.1,0,4.2-.3,6.3-.4,7.2-.3,14.4-.5,21.6-.8,8-2.6,16-5,23.9-7.7,3.4-1.2,6.6-2.9,9.8-4.4,3.3-3.3,6.6-6.5,9.9-9.8,0,0,0,0,0,0,1.2-1.6,2.5-3.2,3.5-4.9,.7-1.2,.9-2.7,1.4-4Zm-109.5,9.7v-11.4l13.7-8.7,14.2,8.3v11l-13.3,8.9-14.7-8.1Z"/>
    <path class="capeTrim" d="M249.4,38.5l10.4-5.9-.9-10.5-12.7-8.2-11.6,4.6,.7,10,14,10Zm-10.1-20.5l8-2.8,10.3,6.3v8.9l-7.7,2.4-10.6-6.7v-8.1Z"/>
    <path class="capeTrim" d="M288.1,201.4c-.3-6.6-.5-13.2-.8-19.7-.2-3.2-.4-6.4-.7-9.7-1.2-13.9-2.5-27.7-3.6-41.6-.2-2.7-1.1-4.5-3.7-5.3-3.4-3.1-6.8-6.1-10.1-9.3-2.4-2.4-4.2-2.7-6.6,.2-2.6,3.1-5.8,5.8-8.7,8.7-.6,1.3-1.8,2.6-1.7,3.9,.7,17.6,1.5,35.2,2.4,52.8,.5,3.1,1.1,6.3,1.5,9.4,.8,7.4,.7,15.2,9,19,.2,.2,.5,.5,.7,.7,0,0,0,0,0,0,2.2,1.3,4.5,2.6,6.6,4.1,1.8,1.2,3.2,1.4,4.9-.2,2.6-2.4,5.4-4.7,8.2-6.9,2-1.6,3.1-3.4,2.6-6Zm-19.8-78.8l4.5,3c.9,.4,1.8,.7,2.6,1.1q.1-.2,0,0h0c.3,.4,.5,.8,.8,1.2l2.7,1.8v6.5c0,.2,0,.4,0,.7,0,.2,0,.4,0,.6v4.1l-7.3,6.9-9.9-7.3-.9-11.7,7.4-6.9Zm19.1,75c-3.7,3.1-7.3,6.2-11,9.2-1.2,1-2.6,2.2-3.9,0-.5-.3-1-.6-1.5-.9-.3-.2-.5-.4-.8-.6-2.4-1.8-5-3.3-7.1-5.4-1.2-1.2-2.2-3.1-2.4-4.8-1.2-13.7-2.2-27.5-3.3-41.2-.3-3.4-.5-6.8-.9-11.3,4.2,3.1,7.6,5.5,10.9,8,2.2,1.7,4,2.2,6.1,0,1.6-1.7,3.7-3,5.5-4.4,1.3-2.3,2.2-1.2,3.1,.3,0,0,0,0,0,0l.6,9.4c0,.5,0,1,0,1.6,.8,5.6,1.7,11.2,2.3,16.8,.9,7.8,1.5,15.6,2.2,23.4,0,.2,0,.4,0,.5,0-.2,0-.4,0-.6Z"/>
    <path class="capeTrim" d="M33,701.8c1.8,2.3,4,4.3,6.2,6.3,2.6,2.3,5.3,4.5,8,6.7-5.2-5.8-10.4-11.6-15.7-17.3,.5,1.5,.5,3.2,1.4,4.3Z"/>
    <path class="capeTrim" d="M410.3,678.7c-2,1.5-2.6,.9-3.2-1.3-9.6-39.6-19.6-79.1-28.8-118.7-7.7-33.4-14.6-66.9-21.9-100.4-1.7-7.8-3.4-15.6-5.1-23.4-.1-.7-.1-1.4-.2-3.1,6.6,5.1,12.6,9.7,18.6,14.3,3.3,1.8,6.4,3.9,6.8,8.2,.5,.3,.9,.6,1.4,.9,5.8,3,11.6,6.1,17.5,8.8,3,1.4,6.3,2,9.4,2.9,0-1.4,0-2.7-.3-4.1-1.3-6.4-2.6-12.9-4-19.3-2.2-10.8-4.4-21.6-6.8-32.4-2.9-13.6-5.9-27.1-8.9-40.7-.5-2.4-1.2-4.7-1.8-7.1,1.7,10.4,3.3,20.8,5,31.3,1.5,9.4,2.9,18.9,4.3,28.3-.5,.9-.9,2.1-1.6,2.5-6.8,3.4-13.6,6.8-20.6,9.8-1.5,.6-3.9,.4-5.4-.4-12.6-6.9-22.5-17.1-31.6-28.1-5.9-7.2-12.5-13.8-18.7-20.8-2.3-2.6-4.5-5.3-6.5-8.1-4.9-6.7-9.6-13.6-16.4-18.6-.7-.6-1.5-1.2-2.2-1.7h0c-1,.7-2.3,1.2-2.8,2.1-5.3,8.8-6.8,18.7-7.4,28.8-1.1,19-2.6,38-3,57-.5,20,0,40,0,60,0,5.1-.1,10.2-.2,15.3,0,1.2,0,2.5,0,3.7,.5,3.5,1,7,1.5,10.5,0,.5,0,1,0,1.5,.4,3.3,.9,6.6,1.2,9.9,.4,4.4,.7,8.9,1,13.4,0,.7,0,1.5,.1,2.2,.7,6.5,1.5,13,2,19.6,.5,5.7,.6,11.4,.9,17.2,0,.5,0,1,.1,1.5,.2,2.8,.4,5.5,.6,8.3,0,.5,0,1,0,1.5,.3,3.5,.7,7.1,1,10.6-.4,.2-.8,.3-1.1,.5-1-1.7-1.9-3.4-2.9-5.1-2.3-4.2-4.6-8.3-6.9-12.5-4-6.7-8-13.3-12-20-.6-.9-1.3-1.7-2-2.5-3.3,15.7-6.6,31.3-9.9,47-.3,1.5-.6,3-.9,4.5-2.1,5.5,.3,11,.3,16.5,.2,.5,.3,1,.5,1.5,0,1,.2,2,.2,3,0,.2,.1,.3,0,.5l2,10c0,.5,0,1,.1,1.5,1.5,7.9,3,15.8,4.3,23.7,1.6,9,3,18.1,4.5,27.2,0,.6,0,1.2-.8,2-1.3-2.6-2.5-5.2-3.8-7.8-2.5-4.7-4.9-9.5-7.4-14.2,0,0,0,0,0,0-.8-1.5-1.5-3-2.3-4.4h0c-.2-.3-.5-.6-.7-.9,0-.2-.1-.3,0-.5-.7-1.3-1.5-2.6-2.2-3.9h0c-.8-1.5-1.6-3-2.4-4.5-.2-.4-.4-.9-.6-1.3-.7-1.3-1.5-2.7-2.2-4h0c-.8-1.5-1.6-3-2.4-4.5-.2-.5-.5-1-.7-1.5-.5-1-.9-2-1.4-3h0c-.2-.3-.4-.6-.7-.8,0-.2-.1-.3-.1-.5-2.7-5.1-5.4-10.1-8.1-15.2-.4-.5-.8-1-1.2-1.6-.6-1.5-1.3-3-1.9-4.4-3-5.7-6-11.5-8.9-17.2,0,0,0,0,0,0-1.6,1.9-3.5,3.6-4.7,5.7-7.9,14.7-15.5,29.5-23.3,44.1-3.9,7.3-8.1,14.3-12.2,21.5-.2,.2-.4,.4-.6,.6-2.6,5.9-5.3,11.8-7.9,17.8-.4-.2-.8-.3-1.2-.5,.8-5.3,1.5-10.7,2.3-16,1.9-13,3.8-26,5.9-39.1,.8-4.9,1.7-9.7,2.9-14.5,1.9-7.5,.7-14.7-.8-22.1-1.3-6.2-2.3-12.4-3.4-18.7-1.4-7.5-2.7-15.1-4.2-22.6-.2-1.1-.8-2-1.2-3.1-.3,.3-.5,.7-.8,1-1.5,2.3-2.9,4.5-4.4,6.8-.3,.5-.5,1-.8,1.5-3.2,5.5-6.4,11.1-9.6,16.6-.3,.5-.5,.9-.8,1.4-.7,1.3-1.5,2.5-2.2,3.8h0c-1.5,2.9-3,5.9-4.5,8.8-.4,0-.8-.2-1.2-.2,.4-6.6,.7-13.2,1.1-19.9,0-.5,0-1,0-1.5,1-16,1.9-32,2.9-48,.7-11.4,2-22.8,2.4-34.3,.7-21.9,1.2-43.8,1.4-65.8,0-7.9-1.6-15.8-1.2-23.6,.8-18.1-2.5-35.7-5-53.4-.8-5.5-3.7-10.8-5.7-16.1h0c-.7,0-1.5,0-2.2,0h0c-2,1.5-4,3-6,4.5h0c-1.8,1.7-3.5,3.5-5.3,5.2-.2,.3-.4,.5-.6,.8-1,1.2-2,2.5-3.1,3.7h0c-1,1-1.9,2.1-2.9,3.1h0c-.3,.4-.5,.9-.8,1.4h0c-.5,.5-1,1-1.4,1.6h0c-.3,.5-.5,1-.8,1.6-5,6.3-9.8,12.8-15.1,18.9-7,8-14,15.9-21.6,23.3-5.3,5.1-11.7,9.3-17.7,13.7-.8,.6-2.4,.6-3.4,.2-7.5-3.3-15-6.7-22.4-10.2-.5-.3-.8-1.2-1.1-1.8,3.3-20,6.6-40,9.8-60,.8-5,1.6-10.1,2.3-15.1-.4,.6-.9,1.2-1,1.8-2.3,11.6-4.4,23.2-6.9,34.7-4.6,21.6-9.3,43.2-13.9,64.8-1.2,5.8-2.2,11.7-3.2,17.5,2.5-.8,4.9-1.6,7.4-2.4,6.6-3.2,13.3-6.3,20.4-9.7-1.7,6.4-3.3,12.6-4.9,18.7-.3,1.2-.3,2.4-.5,3.6-.3,1.5-.6,3-.9,4.5-.5,3.9-1,7.8-1.6,11.6-.7,4.6-1.4,9.2-2,13.8,2-8.8,4-17.7,5.9-26.5,2.1-10,4.1-20,6.2-30,.2-.8,.5-1.8,1.1-2.2,7-5.3,14.1-10.5,21.2-15.7,.5-.4,1-.6,2.3-1.3-1,4.7-1.8,8.7-2.6,12.8-10.6,48.1-21.1,96.3-31.9,144.4-5.4,24.2-11.3,48.4-17,72.6-1.1,4.9-1.9,9.9-2.9,14.8,0,.3-1.7,.7-2.1,.5-4.4-3.4-8.8-6.9-13.2-10.4,.1,.6,0,1.4,.4,1.8,4.6,4.7,9.2,9.4,14,13.9,1.8,1.6,4.4,.3,5-2.3,3-12.1,6.1-24.3,9.1-36.5,6.4-26,13.1-52,19.2-78.1,4.5-19.5,8.2-39.1,12.3-58.7,.7-3.5,2-6.9,3-10.4,.3-2.2,.7-4.4,1-6.7,1.7-9,3.6-18.1,5-27.1,1.2-7.8,2-15.7,2.9-23.6,.3-2.8,1.2-4.8,3.5-6.6,3.7-2.8,7.1-6.1,11.1-9.6-5.1,23.2-10.1,45.8-15.1,68.4-.8,2.8-1.7,5.6-2.5,8.3,0,2.9,.3,5.8-.3,8.6-5.7,25.9-11.4,51.7-17.3,77.5-7.6,33-15.3,65.8-22.9,98.8-.8,3.7-3.2,7.5-.8,11.5,2.6-10.3,5.2-20.5,7.6-30.8,8.2-33.9,16.6-67.7,24.4-101.7,6.2-27,11.7-54.2,17.6-81.3,4.4-20.7,8.9-41.4,13.3-62.1,1-4.6,3.2-8,6.8-11.2,4.8-4.1,8.9-9,13.3-13.6,.4,.2,.7,.3,1.1,.5-.1,1.2,0,2.5-.3,3.7-6.1,30.9-12.1,61.8-18.2,92.7-1.6,8.2-3.7,16.3-5.3,24.5-2.6,13.9-4.9,27.9-7.6,41.8-2.5,12.7-5.2,25.3-7.9,38-6.4,30.4-12.8,60.8-19.2,91.2-1.8,8.5-3.6,17.1-5.5,25.5-.3,1.2-1.5,2.2-2.4,3.3,2.1,2.2,4.1,4.4,6.7,7.2,.8-2.1,1.7-3.7,2.1-5.4,3.4-16.3,6.6-32.6,10-48.9,4.1-19.8,8.2-39.6,12.3-59.5,2.3-11.2,4.6-22.4,6.8-33.6,3.1-15.3,6-30.7,9.2-46,1-4.8,2.5-9.6,3.7-14.3,.5-2.5,1.1-5,1.6-7.5,4-19.9,8.2-39.7,11.9-59.7,2.3-12.6,4-25.2,5.5-37.9,.5-4.3-1-8.9-1.3-13.3-.1-1.6,0-3.5,.9-4.9,3.7-5.9,7.8-11.6,11.6-17.4,1.2-1.8,2.1-1.5,3.9-.6,6.3,2.9,5.5,8.5,5.8,13.8,1.9,11.6,4.5,23.2,5.3,34.9,.6,8.4-1.2,17.1-2.2,25.6-1.8,14.6-3.8,29.1-5.7,43.7-2.1,15.8-4.1,31.6-6.4,47.3-2.7,18.8-5.6,37.6-8.7,56.4-2.9,18.2-6.2,36.3-9.3,54.5-3.1,18-6.2,35.9-9.3,53.9-1.6,9.5-3.4,18.9-5.1,28.3-1.4,7.9-2.6,15.8-4,24.6-4.5-3.5-8.3-6.6-12.2-9.7-3.3-2.7-6.4-5.6-9.7-8.2-2.4-1.8-3-3.9-2.4-6.8,3.8-18.2,7.5-36.3,11.2-54.5,5.6-27.7,11.2-55.4,16.8-83.1,2.7-13.3,5.7-26.6,8.1-40,2.6-14.7,4.6-29.6,7.1-44.4,2.8-17,5.7-34,8.6-51,2-11.9,3.8-23.8,5.8-35.7,1.1-6.5,2.3-12.9,3.5-19.3-1,1.8-2.6,3.5-3,5.5-5.3,27.9-10.4,55.9-15.6,83.8-1.1,5.8-2.1,11.5-3.2,17.3-.5,3.3-1,6.5-1.6,9.7,0,1.2,0,2.5-.2,3.7-4,22.2-8,44.3-12,66.5-2.5,13.8-5.2,27.6-7.7,41.4-2.4,13.2-4.7,26.5-7.2,39.8-4.1,21.5-8.3,42.9-12.2,64.4-.5,2.5,.1,6.2,1.8,7.9,7.4,7.5,15.1,14.7,23.1,21.6,1.3,1.2,4.4,.8,6.5,.4,.9-.2,1.7-2.3,2.1-3.6,1.1-3.2,1.9-6.5,2.9-9.7,.3-3.9,.4-7.8,1-11.7,4.8-30.5,9.8-61,14.7-91.5,4.7-29.2,9.4-58.3,14-87.5,2-12.6,3.6-25.2,5.4-37.7,.1-.8,.4-1.5,1.5-2.2,.1,1,.4,2,.3,2.9-1.5,31.4-2.3,62.8-4.6,94.2-1.7,22.7-4.7,45.4-8,67.9-3.6,25.3-8.1,50.4-12.2,75.6-.2,1-.9,1.8-1.4,2.7,.4,1.7,1,3.4,1.1,5.1,0,2.8-.4,5.6-.2,8.4,0,1.5,.8,3,1.6,4.3,7.1,10.9,17.5,18.2,27.7,25.7,7.9,5.8,15.8,11.6,23.6,17.5,4.8,3.7,9.2,8,14.1,11.5,4.9,3.5,10.2,6.8,15.6,9.4,7.1,3.4,13.6,9.5,22.7,3,8.6-6.2,18.5-10.5,27.2-16.5,9.1-6.4,17.5-13.9,26.2-20.8,9.7-7.8,19.4-15.4,29-23.2,4-3.3,6.3-7.4,5.5-13.1-.5-3,.4-6.2,.6-9.4-.5-.7-1.4-1.4-1.5-2.2-2.6-16.3-5.2-32.7-7.7-49-2.3-15.2-4.7-30.5-6.9-45.8-1.6-11.3-3.1-22.7-4.3-34.1-2.3-21.1-5-42.2-6.4-63.4-1.2-18.9-.9-37.8-.4-56.8,1,7.4,2,14.8,3.1,22.2,3.6,23.1,7.1,46.3,10.9,69.4,3,18.2,6.2,36.3,9.3,54.5,3.1,18,6.3,36.1,9.4,54.1,.1,.6,.5,1.1,.7,1.7h0c1.2,6.8,2.3,13.7,3.5,20.5,.6,4.2,1.3,8.4,1.8,12.7,.1,1.3-.6,2.6-.9,3.9,.8,.6,2,1.2,2.3,2,.7,2.5,.9,5.1,1.6,7.6,.3,1.3,1,3.2,1.8,3.4,2.2,.5,4.4,2,6.8-.5,7-7.1,14.6-13.8,21.4-21.1,2-2.1,3.5-6,3-8.7-2.3-14.7-5.3-29.3-8.2-43.9-2.7-13.9-5.7-27.7-8.5-41.6-2.5-12.9-4.9-25.9-7.3-38.8-2.9-15.4-5.7-30.8-8.6-46.1-2.6-13.7-5.3-27.3-7.7-41-.4-2.1,.1-4.3,.2-6.5-1.1-3.7-2.5-7.4-3.2-11.2-4.2-22.9-8.2-45.8-12.4-68.7-1.8-10-3.7-20.1-5.8-30.1-.5-2.5-2.1-4.7-3.3-7,0,.4,0,.9,0,1.3,.2,1.1,.5,2.2,.7,3.3,0,.2,.1,.3,0,.5,1.2,5.9,2.6,11.8,3.6,17.7,2.3,13.6,4.5,27.3,6.7,40.9,0,.5,.1,1,.2,1.4,1.7,9.8,3.3,19.5,5.1,29.3,4.9,27.5,9.8,55.1,14.9,82.5,3.1,17,6.6,34,10,50.9,1.9,9.5,3.9,18.9,5.9,28.4,0,.5,0,1,0,1.5,1.6,6.9,3.3,13.9,4.7,20.8,2,9.3,3.8,18.6,5.6,27.9,0,.5,0,1,0,1.5,.5,2,1,4,1.5,6,0,.5,.1,1,.2,1.4,.2,1,.4,2,.6,3.1,.3,1.2,.6,2.5,.8,3.7,.5,1.8,.9,3.5,1.4,5.3,0,.7,.2,1.5,.2,2.2,.2,.8,.4,1.5,.6,2.3,0,.5,.1,1,.2,1.4,1.3,3.1-1.2,3.7-3.1,4.7-.7,.7-1.5,1.5-2.2,2.2-1,.7-2,1.5-3.1,2.2h0c-.3,.2-.5,.5-.8,.8-.5,.5-.9,1-1.4,1.5-3.3,2.8-6.5,5.5-9.8,8.3,0,0,0,0,0,0-1.1,.9-2.2,1.8-3.2,2.6-.4-1.1-1.1-2.2-1.3-3.4-4-22.4-8-44.8-11.9-67.2-.2-1.1-.2-2.2-.2-3.4-1.5-7.5-3-15.1-4.3-22.6-3.2-17.7-6.3-35.4-9.4-53.1-.2-1.2-.3-2.5-.4-3.7-1.7-9.5-3.7-19-5.2-28.5-2.8-17.4-5.5-34.8-8-52.3-2.7-19.2-5.1-38.4-7.8-57.6-1.5-11-3.6-22-4.9-33.1-.5-4.2,.2-8.6,.4-12.9,.6-6,1.2-12,1.9-18.1,1.2-10.6,3.2-27.7,2.9-25.6l1.2-.7s0,0,0,0q6.4-3.9,11,2.5c3.2,4.4,6.8,8.7,9.4,13.4,1.2,2,1.1,5.2,.5,7.7-1.8,7.9-.5,15.5,.8,23.2,1.6,9.9,2.7,19.9,4.6,29.7,2.2,11.6,5.2,23,7.7,34.5,1.8,8.3,3.6,16.5,5.2,24.8,.2,.9-.2,1.9-.4,2.8,.8,1,2.1,2,2.3,3.2,2.3,10.2,4.4,20.4,6.6,30.6,4,18.9,8.1,37.7,12,56.6,3.9,18.8,7.7,37.7,11.7,56.6,2.9,14,6,27.9,9,41.9,1.2,5.6,2.3,11.2,3.6,16.7,.3,1.5,.6,4.3,3.1,2.7,1.8-1.1,2.9-3.2,4.3-4.9-.7-1.2-1.9-2.3-2.2-3.6-5.2-24.3-10.2-48.7-15.3-73-4.8-22.6-9.7-45.2-14.5-67.9-5.4-25.8-10.8-51.6-16.1-77.4-5.1-24.6-10.2-49.2-15.3-73.8-1.9-9.1-3.7-18.2-4.9-28,4.7,4.3,9.5,8.6,14.2,12.8,6.6,3.1,7.4,9.5,8.7,15.5,4.1,18.5,8.1,37.1,12.2,55.7,5.7,25.9,11.5,51.8,17.3,77.7,.8,3.5,1.6,7,2.3,10.6,3.2,12.6,6.4,25.1,9.5,37.7,7,28.6,13.9,57.2,20.9,85.7,.5,1.9,1.1,3.8,1.6,5.6,0-2.9,.3-5.8-.4-8.6-2.7-11.7-5.7-23.3-8.5-35-3-12.8-5.9-25.6-8.9-38.3-3.5-14.8-7.2-29.6-10.8-44.5-2.7-11.3-5.3-22.7-7.9-34.1-2.3-10.3-4.7-20.5-6.9-30.8-.4-2.1-.1-4.3-.2-6.5-1.2-4.4-2.6-8.7-3.6-13.2-4.4-19.7-8.6-39.4-12.9-59.1-.1-.6,0-1.2-.1-2.3,7.8,5.4,14.6,10.4,14.3,21.1-.2,6.5,1.5,13,2.7,19.4,1.9,10.3,4.1,20.5,6.1,30.8,.3-2.1,.6-4.3,1-6.8,2.7,12.4,5.3,24.5,8.1,36.6,7.5,32.5,15,65,22.7,97.4,4.5,18.8,9.4,37.4,14.1,56.1,1.6,6.6,1.6,6.7,6.6,2.2,3.3-2.9,6.2-6.3,9.3-9.4-3.3,2.2-6.6,4.3-9.7,6.6Zm-266.7,119.3c-.2,1-.4,2.1-.6,3.1-.8-.5-1.6-.9-2.3-1.4-3.3-2.5-6.5-5.1-9.7-7.6h0c-.6-.5-1.2-.9-1.7-1.4-.2-.2-.4-.4-.7-.6-3-3-6-5.9-8.9-8.9-.3-.3-.4-.9-.3-1.4,.6-4.9,1.2-9.8,1.9-14.7,.1-1,.3-2,.4-3,.1-.5,.2-1,.3-1.5,0-.5,.2-1,.2-1.5,.7-4.5,1.5-9,2.2-13.5,.3-1.8,.5-3.5,.8-5.3,.7-4,1.3-8,2-12l.2-1.5c0-.3,0-.5,0-.7,0-.5,.1-1,.2-1.5,.6-3.5,1.2-7,1.8-10.5,.3-1.5,.5-2.9,.8-4.4,0-.3,0-.7,0-1,.1-.7,.2-1.4,.4-2.1,.3-2,.5-4,.8-6,2.6-20.3,5.1-40.7,8-61,.5-3.3,2.5-6.4,4.2-9.4,5-8.4,10.1-16.6,15.2-24.8,.4-.6,.9-1.1,2-2.6,.4,2.9,.7,5,.9,7.1,1.7,9.1,4.4,18.2,4.9,27.4,.4,7.4-1.8,15-2.9,22.5-.9,5.6-1.8,11.2-2.8,16.9,0,.5,0,1-.1,1.5-1.9,12.6-3.8,25.1-5.7,37.7-.1,1-.6,1.9-.9,2.8-.8,7.9-1.5,15.9-2.5,23.7-1.8,14-3.8,27.9-5.7,41.8-.7,4.6-1.5,9.2-2.3,13.9Zm128.7,11.5c-7.8,6.1-15.3,12.7-23,19-1.4,1.2-3,2.2-4.5,3.3-1.3,1.2-2.5,2.7-4,3.5-8.1,4.3-16.3,8.5-24.5,12.4-1.6,.7-3.8,.5-5.7,.2-10.7-2.1-19.1-8.7-28-14.4-.9-.6-1.6-1.6-2.4-2.4-.4-.4-.9-.8-1.3-1.1-1.3-1.1-2.5-2.3-3.8-3.4h0c-.8-.8-1.5-1.5-2.3-2.2-.5-.5-1-.9-1.5-1.4-.3-.3-.6-.6-.9-.9-.7-.7-1.5-1.4-2.2-2-1.2-1.1-2.3-2.2-3.5-3.3h0c-.8-.8-1.6-1.5-2.4-2.2-.2,0-.5,0-.7-.2-.7-.4-1.4-.9-2.1-1.3-2-1.7-4.1-3.5-6.1-5.2-3.2-1.5-1.6-3,0-4.5h0c.8-1,1.5-1.9,2.3-2.8,7.4-8.3,14.7-16.7,22.1-25,.3-.5,.7-.9,1-1.4,.9-1,1.9-2.1,2.8-3.1,4.7-4.9,9.3-9.9,14-14.8,5-5.1,10-10.2,15.1-15.1,.7-.7,3-1.1,3.5-.6,9.7,9.8,19.2,19.8,28.8,29.8,0,.2,.1,.4,.2,.6,5.5,6,11,11.9,16.4,17.9,4.5,5,8.7,10.2,13.2,15.2,2.1,2.3,2,3.5-.6,5.5Zm15-152.4c0,.5,.1,1,.2,1.5,1.2,7.4,2.5,14.9,3.7,22.3,.7,4.3,1.1,8.6,1.6,12.9,0,.4,0,.8,0,1.1,.4,1.9,.8,3.8,1.3,5.7,2.8,18.5,5.7,36.9,8.4,55.4,1.1,7.4,1.9,14.9,2.6,22.4,.5,6-3,10.4-7.1,13.9-4.5,3.8-9.9,6.6-15.6,10.2-.5-3-.9-5.7-1.3-8.3-1.6-9.5-3.3-19.1-4.7-28.6-1.8-11.9-3.6-23.9-5.2-35.8-.5-3.7-.5-7.4-.8-11.1-1.5-8-3.1-16.1-4.5-24.1-2.5-14.4-4.7-28.9-7.2-43.3-1.3-7.7-2.2-15.3,0-23.2,1.9-7,2.8-14.2,4.2-21.4,.2-.8,.6-1.6,1.3-3.5,4.6,7.9,8.8,15.1,13,22.3,.2,.4,.5,.9,.7,1.3l.7,.9c6.2,6.7,6.8,15.4,8.1,23.8,.3,1.8,.4,3.7,.7,5.5Zm30.1,63.8c0-.2-.1-.4-.3-.6,.1,.2,.2,.4,.3,.6Z"/>
    <path class="capeTrim" d="M93.5,59.9c1.1,.9,2.2,1.8,3.2,2.8,1.8,1.8,3.4,4,5.4,5.5,8.4,6.5,16.9,12.9,25.3,19.4,13.7,10.5,27.4,20.9,41.1,31.4,3.9-3.6,7.8-7.1,11.8-10.7,1.2-1.1,2.5-2,3.7-3,4.2-5,9.7-8.1,15.6-10.3,7.2-2.7,14.6-3.3,22-.8,5.6,3.4,11.3,6.8,16.9,10.3,.5,.3,.7,1.2,1,1.9h0c3.8,3.6,7.6,7.2,11.3,10.9,.7,.2,1.3,.3,2,.5,14-10.8,28-21.6,42-32.3,.5-.4,1-.8,1.4-1.1,8.1-6.8,16.3-13.7,24.4-20.5,2.7-2.3,5.4-4.7,8.1-7.1,2.2-4.5,2.9-9.1,.9-13.9-2.3,4.2-4.6,8.3-7,12.5-.7,1.3-1.4,2.8-2.5,3.6-7.9,6-15.8,11.9-23.7,17.8-3.7,2.3-7.2,4.8-11,7-10.8,6.2-19,15.3-27.9,23.7-1.5,1.4-3.2,2.6-4.8,3.8-2.1-2-4.3-4-6.2-6.1-3.7-4.1-7.3-8.3-11-12.5-6.2-2.1-12.4-4-18.6-6.3-4.2-1.6-8.2-1.1-12.2,.4-6.4,2.4-12.8,4.7-19.2,7-4.7,5.5-9.4,11-14.2,16.5-.8,.9-2,1.3-3,2-12.7-13-26.8-24.1-42.1-33.8-8.3-5.9-17.1-11.2-24.7-17.9-4.1-3.7-6.1-9.8-9-14.8-2.5,2.7-2.6,7-.5,10,.8,1.2,3,2.2,1.3,4.3Z"/>
    <path class="capeTrim" d="M167.7,125.3c-2.9-3-6-5.9-8.7-9.1-2-2.3-3.4-2.6-5.6-.3-3.7,3.8-7.8,7.2-11.5,11-1.3,1.4-2.4,3.5-2.6,5.3-.7,10.9-1.1,21.9-1.6,32.8h0c-.2,.5-.3,1-.5,1.5,.4-.5,.9-1,1.3-1.4,.8-5.3,1.6-10.5,2.4-15.8,.3-2.1,1.1-2.6,2.9-1.3,2.1,1.5,4.5,2.8,6.4,4.5,1.8,1.6,2.9,1,4.4-.4,3.1-2.8,6.4-5.5,9.9-8.4,0,8.8,.4,17.3-.1,25.8-.5,8.5-1.6,17.1-2.7,25.6-.3,2.1-1.5,4.4-2.9,5.9-2.2,2.3-5.1,4-7.5,6.2-2.5,2.3-4.5,2.1-7-.2-3-2.8-6.3-5.1-9.5-7.7-1.4,4.2-.4,7.3,3.3,9.9,2.2,1.5,4,3.7,5.9,5.6,2.3,2.3,4.6,3.6,7.6,.7,1.7-1.6,3.8-2.7,5.7-4.1,.9-.7,1.7-1.5,2.7-2,3.7-2,5.7-4.7,5.6-9.2,0-4.3,.4-8.6,1.3-12.9,2.4-12,3.2-24.1,3.1-36.3,0-4.8,.4-9.7,.6-14.5,0-3.9,.9-8.1-2.8-11.1Zm-8.2,12.4v3.9l-8.9,6.9-8.9-5.8v-11.9l10.4-7.1,4.7,4.5c1.2,.4,1.9,1.1,2.3,2.2l.4,.4v1.2c0,.2,0,.4,.1,.7,.2,1.8,.2,3.5-.1,5Z"/>
    <path class="capeTrim" d="M232.7,119.9c-4.3-4.1-8.9-7.9-13.4-11.8-1.6-1.4-3.4-2.6-4.8-4.1-2.2-2.5-4.1-1.9-6.3,0-6.4,5.5-13,10.8-19.3,16.4-1.3,1.1-2.3,3.3-2.3,4.9,0,10.1,.5,20.1,.5,30.2,0,24.2-.3,48.4-.6,72.6,0,3,.9,5.3,3.5,6.9,6.5,4.1,12.9,8.4,19.5,12.3,1,.6,3.1,.2,4.3-.5,3.7-2.1,7.3-4.6,10.9-6.9,2.2-1.7,4.4-3.7,6.8-5.2,2.8-1.7,3.7-3.8,3.7-7-.1-20.8,0-41.7,0-62.5,0-13.3,0-26.7-.2-40,0-1.7-.9-3.9-2.2-5.1Zm-35.9,5.9l13.8-9.3s14,8.4,14,9.3v14.3l-13.9,11.3-13.9-10.2v-15.4Zm31.4,100.2c-5,3.9-10.3,7.4-15.5,10.9-.6,.4-1.8,.4-2.3,0-5.1-3.1-10-6.6-15.1-9.6-2.6-1.5-3.7-3.3-3.6-6.3,.2-17.5,.2-34.9,.2-52.4,0-7.5,0-14.9,0-22.4l1.3-.6c5.2,3.4,10.4,6.7,15.4,10.3,2,1.4,3.3,1.5,5.3,0,4.4-3.3,9-6.3,13.4-9.5,2.1-1.5,3.3-1.8,3.3,1.4,.2,24.3,.6,48.6,.6,72.9,0,1.7-1.4,3.9-2.9,5.1Z"/>
  </g>
  <g id="capeInside" class="capeInside">
    <path class="capeInside" d="M18.9,467.8c.4,.5,.6,1.1,1.1,1.4,6,4.3,12,8.5,18,12.7,.7,.5,1.6,.5,2.4,.7,.3-1.5,.6-3,.9-4.5,.1-1.2,.2-2.5,.5-3.6,1.6-6.2,3.2-12.3,4.9-18.7-7.1,3.4-13.7,6.5-20.4,9.7-2.5,.8-4.9,1.6-7.4,2.4Z"/>
    <path class="capeInside" d="M324.5,513.3c-1.7-8.3-3.4-16.6-5.2-24.8-2.5-11.5-5.5-22.9-7.7-34.5-1.9-9.8-3-19.8-4.6-29.7-1.3-7.7-2.6-15.4-.8-23.2,.5-2.4,.6-5.6-.5-7.7-2.7-4.7-6.3-9-9.4-13.4q-4.6-6.4-11-2.5s0,0,0,0l-1.2,.7c-.5,4-.9,7.9-1.4,11.9l1.2-.2c2.1,3.5,4.3,7.1,6.5,10.6,.8,1.2,1.7,2.3,2.6,3.5,1.1,2.3,2.7,4.5,3.3,7,2.1,10,4,20,5.8,30.1,4.1,22.9,8.2,45.8,12.4,68.7,.7,3.8,2.1,7.5,3.2,11.2,2.2-1.6,4.5-3.2,6.7-4.8,.1-.9,.6-1.9,.4-2.8Zm-40.7-123.5s0,0,0,0"/>
    <path class="capeInside" d="M349.5,445.8c.3-10.7-6.6-15.7-14.3-21.1,0,1.1,0,1.7,.1,2.3,4.3,19.7,8.5,39.4,12.9,59.1,1,4.4,2.4,8.8,3.6,13.2,2.2-1.1,4.3-2.2,6.5-3.3-2-10.3-4.2-20.5-6.1-30.8-1.2-6.4-2.9-13-2.7-19.4Z"/>
    <path class="capeInside" d="M395.5,464c-5.9-2.7-11.7-5.9-17.5-8.8,.8,4,1.6,8,2.5,12,1.1,5.2,2.4,10.4,3.5,15.5,4.7-3,9.5-5.9,14-9.2,2.6-1.8,4.6-4.4,6.9-6.6-3.2-.9-6.5-1.6-9.4-2.9Z"/>
    <path class="capeInside" d="M133.8,375c-1.8-.8-2.7-1.1-3.9,.6-3.8,5.8-7.9,11.5-11.6,17.4-.8,1.3-1,3.2-.9,4.9,.3,4.5,1.8,9,1.3,13.3-1.4,12.7-3.1,25.4-5.5,37.9-3.7,19.9-7.9,39.8-11.9,59.7-.4,1.8-1.6,7.5-1.6,7.5l8,5.3s1.3-7.9,1.6-9.7c1.1-5.8,2.1-11.5,3.2-17.3,5.2-27.9,10.3-55.9,15.6-83.8,.4-1.9,2-3.7,3-5.5,1.1-1.8,2.2-3.6,3.2-5.5,1.9-3.6,3.6-7.3,5.4-10.9-.2-5.3,.5-10.9-5.8-13.8Z"/>
    <path class="capeInside" d="M75.7,439.2c-.8,7.9-1.6,15.8-2.9,23.6-1.4,9.1-3.3,18.1-5,27.1-.3,2.2-.7,4.4-1,6.7,2,1.1,4,2.1,5.9,3.2,.8-2.8,1.7-5.6,2.5-8.3,5-22.6,10-45.2,15.1-68.4-4,3.5-7.3,6.8-11.1,9.6-2.3,1.8-3.2,3.8-3.5,6.6Z"/>
    <path class="capeInside" d="M321.5,752.1c-.4-4.2-1.2-8.4-1.8-12.7-1.2-6.8-2.3-13.7-3.5-20.5-.2-.6-.6-1.1-.7-1.7-3.2-18-6.3-36.1-9.4-54.1-3.1-18.2-6.3-36.3-9.3-54.5-3.8-23.1-7.3-46.3-10.9-69.4-1.1-7.4-2.1-14.8-3.1-22.2-.5,19-.8,38,.4,56.8,1.4,21.2,4.1,42.3,6.4,63.4,1.2,11.4,2.7,22.7,4.3,34.1,2.2,15.3,4.5,30.5,6.9,45.8,2.5,16.3,5.1,32.7,7.7,49,.1,.8,1,1.5,1.5,2.2,3.6-4.1,7.1-8.2,10.7-12.3,.3-1.3,1-2.6,.9-3.9Z"/>
    <path class="capeInside" d="M137,620.2c2.3-31.3,3.2-62.8,4.6-94.2,0-1-.2-2-.3-2.9-1.1,.7-1.4,1.5-1.5,2.2-1.8,12.6-3.4,25.2-5.4,37.7-4.6,29.2-9.3,58.3-14,87.5-4.9,30.5-9.9,61-14.7,91.5-.6,3.9-.7,7.8-1,11.7,3.5,4.2,7.1,8.5,10.6,12.7,.5-.9,1.3-1.8,1.4-2.7,4.1-25.2,8.6-50.4,12.2-75.6,3.2-22.6,6.3-45.2,8-67.9Z"/>
  </g>
</svg>