<svg id="max-capg-svg" class="rsCapeCustomizer_capeSvg" xmlns="http://www.w3.org/2000/svg" viewBox="0 0 442 850">
  <style></style>
  <path id="capeDetailTop" d="m348 21 1 1 13 65 4 50 3 37 3 41 10 98-48 13 54 132-52.5-38-6.5 51-3 106 5 80 1 17-8 78-2-10-3-27-5-28-1-8-5-41-31.896 4.984L282 699l-22 80-34 47.5L276 642l.061.582L288 561l7-81-2-154-5-95-3-83V91l13-7 7-7 19 29 6 91 34-2-8-110-19-32 11-32ZM87 19l11 34-19 32-7 109 36 3 4-90 20-31 6 6 14 8v70l-2 115-3 49v158l9 82 14.94 80.679.06-.679 53 182.5-34.5-46.5-23.5-79 4.913-56.008L138 642l-14.5 121-9-87 3.5-108-3-59-1-33-8-53h-1l-51 40 52-134 2-130-49 112L74 87l11-62 2-6Zm263 93 6 74-18 1c-4-49.333333-5.666667-74-5-74 .666667 0 4 1.333333 10 4l7-5Zm-264-1 9 5 8-4-3 75-18-1 4-75Zm199-64 14 21-5 5-9 5V47Zm-134 0v30l-8-4-6-7 14-19ZM113 0l13 2 32 37 54 8h10l55-6 32-37 12-3-2 3 6 6h-6l-11 3-23 34-60 9-7-4-6 4-61-9-26-38-14-7 2-2Z"/>
  <path id="capeDetailBot" d="m218 63 20 13 12 34 35-19v58l9 173 1 158-7 81-12 82-50 183.5h-2L171 645l-15-80-9-82V324l3-49c1.333333-123.333333 2-185 2-185s11.666667 6.3333333 35 19l12-32 19-14ZM114.5 676l9 87-21.5-6 12.5-81Zm217.5-1 13 75.5-20 6.5-1-7 8-75ZM97 472l-8 85-61 87 16-103 53-69Zm250 0 50.5 64 13 72.5L413 632l-59-80-7-80ZM108 199l-2 130-52 134 5-152 49-112Zm222-2 52 116 6 145-54-131-4-130ZM218 95l-18 45 2 108h37V140l-21-45Zm12 61v81l-8 2-14-2v-81l12 7 10-7ZM330 12l10 2 8 7c-18 43.3333333-27 65.3333333-27 66 0 .6666667 1 7 3 19l-19-29 31-34-1-25-5-6ZM103 8l-4 3 1 30 32 35-19 29 2-18-16-34-1-1-11-32 1-4 15-8Zm48 39 61 9-18 12-11 27-32-18V47Zm134 0v31l-29 17h-2l-11-27-18-12 60-9Zm39-37 2 1 2 23-30 33-13-20 23-34 11-3h5ZM111 2l14 7 26 38-14 19-29-35V4l3-2Z"/>
  <path id="capeBgTop" d="m262 819.5 3 15-37.5 15.5h-6c-.66 0-12.59115-4.9005-35.79345-14.7015L185 835l2-13.5 36 12.5h4l35-14.5ZM158.5 811l19.5 8-.5 13-22-10 3-11Zm133-4 2.5 11-20 11-3-13 20.5-9ZM145 649.5l17 1.5-10 108-22 1 15-110.5Zm156.5-3.5L318 756h-22l-12-107.5 17.5-2.5ZM77 653l-.5 33.5L72 716l-60-9 9-33 56-21Zm291-6 54 18 2 5 10 28.5-60.5 11-5-31c-.333333-21-.5-31.5-.5-31.5ZM104 431.5l4.5 48L98 471l-53 69 5.5-70 53.5-38.5Zm234.5-2 52.5 37 6.5 69.5-50.5-63-1-4h-3l-8.5 7.5.645881-7.16984L338.5 429.5ZM87 18l-2 7-11 63-12 177-3 45-5 153-22 5 22.5-144L71 90l11-67 5-5ZM323 0l26 19 3 5 13 64 19 229 24 148-20-7-6-145-10-98-10-128-13-63-9-10-12-4-5-4V0Z"/>
  <path id="capeBgBot" d="m260 779 1 32-35 15.5 34-47.5Zm-70.5 1 34.5 46.5-35-13 .5-33.5ZM165 725l1.5 3 15.5 55-3 26.5-19.5-5L165 725Zm118.5-1.5L290 801l-19 6-3.5-26 16-57.5ZM99 765l23 6v19h-2.5L92 783l7-18Zm250-6 7 17-30 9v-20l23-6ZM89 557l-12 96c-37.3333333 14.666667-56 21.666667-56 21 0-.666667 2.3333333-11 7-31l61-86Zm265-5 59 80 9 33-54-18-14-95Z"/>
  <path fill="#D6AF70" d="m20 674-9 33 60 9 4.5-29.5 4.5 43L0 713l20-39Zm401-9 21 38-78 20 3.5-44.5 5 31 60.5-11-12-33.5Z"/>
  <path fill="#EEC985" d="M104.5 422.5 113 476l4 92-3.5 108-12.5 81.5-3 7.5-14 15.5 13-25 10-74.5 2-111.5-1.5-90-2.5-27-2-21 1.5-9Zm230-2.5 3 9.5-4 47L337 675l10.5 72.5 13.5 26-13-14.5-4-8.5-13-75-6-97.5 3-107 6.5-51Z"/>
  <path fill="#AE8D57" d="m104.5 422.5-1.5 9L49.5 470 31 468l22-5 51.5-40.5Zm230-2.5 52.5 38 20 7-17 1.5-52.5-37-3-9.5Z"/>
  <path fill="#FAD591" d="m165 701.5 23.5 78.5-.5 33.5-2 8-2 13.5-7.5-3 .5-13 1-9.5 3-26.5-15.5-55-1.5-3 1-23.5Zm116-2.5 1.5 24.5-16 57.5 3.5 26v9l3 13-9 5.5-3-15-1-8.5-1-32 22-80Z"/>
  <path fill="#F2CF89" d="m137 642 33 3-9 6-17-1.5-7-7.5Zm170-4-6.5 8-17.5 2.5-8-5.5 32-5Z"/>
  <path fill="#C29B61" d="m137 642 7 7.5L129 760l-.5 30H121v-19l-23-6 3-7.5s7.166667 1.833333 21.5 5.5L137 642Zm170-4 17 119 20-6.5 4 8.5-23 6v20h-7l-1-29-16.5-110 6.5-8ZM98 765l-7 18-7-2.5L98 765Zm250-6 13 14.5-6 2.5-7-17Z"/>
  <path fill="#E4BD78" d="m260 811 1 8.5-35 14.5h-4l-36-12.5 2-8 35 13h2l35-15.5Zm-90-166-5 56-1 24-5.5 79.5 19.5 5-1 9.5-19.5-8-3 11-9.5-5.5 6-58.5 10-107 9-6Zm105-2 8 5.5 19 164-9 5.5-2.5-11-20.5 9v-9l19-6-6.5-77.5L281 699l-6-56Z"/>
</svg>
